<?xml version="1.0" standalone="no"?>
<!DOCTYPE svg PUBLIC "-//W3C//DTD SVG 1.1//EN" "http://www.w3.org/Graphics/SVG/1.1/DTD/svg11.dtd" >
<svg xmlns="http://www.w3.org/2000/svg" xmlns:xlink="http://www.w3.org/1999/xlink" version="1.1">
<metadata>
Created by FontForge 20170731 at Fri Jul 20 05:08:29 2012
 By Aleksey,,,
(c) 2004-2009 Typodermic Fonts. This font is not freely distributable. Languages by Chikako Larabie
</metadata>
<defs>
<font id="PirulenRg-Regular" horiz-adv-x="1030" >
  <font-face 
    font-family="Pirulen Rg"
    font-weight="400"
    font-stretch="normal"
    units-per-em="1000"
    panose-1="2 11 6 5 2 2 0 8 1 4"
    ascent="760"
    descent="-240"
    cap-height="704"
    bbox="-293 -240 1858 957"
    underline-thickness="50"
    underline-position="-175"
    unicode-range="U+0017-25B3"
  />
<missing-glyph horiz-adv-x="896" 
d="M131 -176q-97 0 -97 84v847q0 85 97 85h633q98 0 98 -85v-847q0 -84 -98 -84h-633zM788 354q7 28 11.5 46.5t7 31t3 20.5t0.5 15q0 63 -48.5 114t-159.5 81l-387 104l-38 -140l387 -104q59 -14 59 -50l-17 -70q-5 -19 -17 -26t-30 -7q-20 0 -45 5.5t-52 12t-54 12
t-49 5.5q-86 0 -135 -40.5t-66 -107.5l-18 -69l153 -41l19 69q6 21 21.5 33t42.5 12q5 0 11 -1t18 -3.5t31.5 -7.5t51.5 -13q33 -9 61.5 -13t54.5 -4q78 0 122.5 36.5t61.5 99.5zM234 -71l39 144l-151 41l-39 -144z" />
    <glyph glyph-name=".notdef" unicode="&#x28;P&#x29;" horiz-adv-x="896" 
d="M131 -176q-97 0 -97 84v847q0 85 97 85h633q98 0 98 -85v-847q0 -84 -98 -84h-633zM788 354q7 28 11.5 46.5t7 31t3 20.5t0.5 15q0 63 -48.5 114t-159.5 81l-387 104l-38 -140l387 -104q59 -14 59 -50l-17 -70q-5 -19 -17 -26t-30 -7q-20 0 -45 5.5t-52 12t-54 12
t-49 5.5q-86 0 -135 -40.5t-66 -107.5l-18 -69l153 -41l19 69q6 21 21.5 33t42.5 12q5 0 11 -1t18 -3.5t31.5 -7.5t51.5 -13q33 -9 61.5 -13t54.5 -4q78 0 122.5 36.5t61.5 99.5zM234 -71l39 144l-151 41l-39 -144z" />
    <glyph glyph-name="copyright" unicode="&#x28;C&#x29;" horiz-adv-x="821" 
d="M664 508q0 110 -119 110h-292q-111 0 -111 -110v-302q0 -114 111 -114h292q119 0 119 114v302zM253 1q-193 0 -193 205v302q0 195 193 195h292q205 0 205 -195v-302q0 -205 -205 -205h-292zM362 169q-78 0 -110.5 30.5t-32.5 79.5v157q0 49 32.5 79.5t110.5 30.5h208v-68
h-208q-57 0 -57 -42v-157q0 -42 57 -42h208v-68h-208z" />
    <glyph glyph-name="registered" unicode="&#x28;R&#x29;" horiz-adv-x="659" 
d="M537 549q0 87 -94 87h-231q-87 0 -87 -87v-238q0 -90 87 -90h231q94 0 94 90v238zM212 149q-152 0 -152 162v238q0 154 152 154h231q162 0 162 -154v-238q0 -162 -162 -162h-231zM401 296l-56 119h-76v-119h-62v272h178q81 0 81 -69v-17q0 -28 -16 -44t-38 -20l56 -122
h-67zM403 499q0 14 -18 14h-116v-48h116q18 0 18 13v21z" />
    <glyph glyph-name=".null" horiz-adv-x="0" 
 />
    <glyph glyph-name="nonmarkingreturn" horiz-adv-x="500" 
 />
    <glyph glyph-name="uni0017" horiz-adv-x="500" 
 />
    <glyph glyph-name="space" unicode=" " horiz-adv-x="500" 
 />
    <glyph glyph-name="exclam" unicode="!" horiz-adv-x="274" 
d="M78 0v130h117v-130h-117zM90 200l-30 504h153l-30 -504h-93z" />
    <glyph glyph-name="quotedbl" unicode="&#x22;" horiz-adv-x="413" 
d="M95 480l-35 104v120h104v-121l-38 -103h-31zM270 480l-28 106v118h103v-118l-32 -106h-43z" />
    <glyph glyph-name="numbersign" unicode="#" horiz-adv-x="590" 
d="M353 420h-110v-124h110v124zM353 0v206h-110v-206h-90v206h-100v90h100v124h-100v90h100v194h90v-194h110v194h90v-194h100v-90h-100v-124h100v-90h-100v-206h-90z" />
    <glyph glyph-name="dollar" unicode="$" horiz-adv-x="584" 
d="M251 0v115h-185v97h317q50 0 50 34v35q0 34 -50 34h-165q-46 0 -78 9.5t-52.5 27t-29.5 42t-9 54.5v28q0 29 9 53.5t29.5 42t52.5 27t78 9.5h33v96h105v-96h167v-97h-305q-52 0 -52 -34v-30q0 -35 52 -35h165q46 0 78 -9.5t52 -27t29 -42t9 -53.5v-33q0 -59 -38.5 -95.5
t-129.5 -36.5h-27v-115h-105z" />
    <glyph glyph-name="percent" unicode="%" horiz-adv-x="1022" 
d="M60 0zM170 362q-60 0 -85 23.5t-25 61.5v182q0 38 25 61.5t85 23.5h166q60 0 85 -23.5t25 -61.5v-182q0 -38 -25 -61.5t-85 -23.5h-166zM380 629q0 33 -44 33h-166q-44 0 -44 -33v-183q0 -32 44 -32h166q44 0 44 32v183zM108 -30l723 774h83l-724 -774h-82zM686 -10
q-60 0 -85 23.5t-25 61.5v182q0 38 25 61.5t85 23.5h166q60 0 85 -23.5t25 -61.5v-182q0 -38 -25 -61.5t-85 -23.5h-166zM896 257q0 33 -44 33h-166q-44 0 -44 -33v-183q0 -32 44 -32h166q44 0 44 32v183z" />
    <glyph glyph-name="ampersand" unicode="&#x26;" horiz-adv-x="827" 
d="M283 0q-65 0 -108 12.5t-68.5 33.5t-36 48.5t-10.5 57.5v115q0 51 26 77.5t66 37.5q-38 8 -60.5 39.5t-22.5 77.5v53q0 35 12 63.5t37.5 48t66.5 30t100 10.5h319v-104h-319q-47 0 -65 -13t-18 -42v-61q0 -29 18 -42t65 -13h527v-104h-86v-325h-443zM593 325h-310
q-40 0 -65 -13.5t-25 -46.5v-88q0 -43 25 -58t65 -15h310v221z" />
    <glyph glyph-name="quotesingle" unicode="'" horiz-adv-x="251" 
d="M95 480l-35 104v120h123v-121l-36 -103h-52z" />
    <glyph glyph-name="parenleft" unicode="(" horiz-adv-x="301" 
d="M199 -109q-63 125 -91 237t-28 227q0 112 29.5 225t86.5 234h93q-126 -258 -126 -460q0 -105 30 -217.5t98 -245.5h-92z" />
    <glyph glyph-name="parenright" unicode=")" horiz-adv-x="301" 
d="M10 -109q67 133 97.5 245.5t30.5 217.5q0 202 -126 460h93q57 -121 86.5 -234t29.5 -225q0 -115 -28 -227t-91 -237h-92z" />
    <glyph glyph-name="asterisk" unicode="*" horiz-adv-x="425" 
d="M269 388l-56 108l-64 -107l-77 57l91 87l-130 30l30 80l117 -54l-19 123h101l-16 -124l119 54l26 -81l-131 -26l90 -91z" />
    <glyph glyph-name="plus" unicode="+" horiz-adv-x="543" 
d="M234 132v194h-194v74h194v194h74v-194h194v-74h-194v-194h-74z" />
    <glyph glyph-name="comma" unicode="," horiz-adv-x="269" 
d="M60 -73v203h137v-60l-84 -143h-53z" />
    <glyph glyph-name="hyphen" unicode="-" horiz-adv-x="417" 
d="M21 321v111h374v-111h-374z" />
    <glyph glyph-name="period" unicode="." horiz-adv-x="285" 
d="M60 0v130h157v-130h-157z" />
    <glyph glyph-name="slash" unicode="/" horiz-adv-x="486" 
d="M7 -40l388 784h88l-388 -784h-88z" />
    <glyph glyph-name="zero" unicode="0" horiz-adv-x="893" 
d="M281 0q-60 0 -102 12.5t-68.5 35t-38.5 53.5t-12 69v364q0 38 12 69t38.5 53.5t68.5 35t102 12.5h331q60 0 102 -12.5t68.5 -35t38.5 -53.5t12 -69v-364q0 -38 -12 -69t-38.5 -53.5t-68.5 -35t-102 -12.5h-331zM700 535q0 65 -88 65h-331q-88 0 -88 -65v-366
q0 -65 88 -65h331q88 0 88 65v366z" />
    <glyph glyph-name="one" unicode="1" horiz-adv-x="393" 
d="M194 0v605l-49 -56h-140l137 155h185v-704h-133z" />
    <glyph glyph-name="two" unicode="2" horiz-adv-x="838" 
d="M53 0v257q0 38 12 69t38.5 53.5t68.5 35t102 12.5h286q88 0 88 65v43q0 65 -88 65h-469v104h469q60 0 102 -12.5t68.5 -35t38.5 -53.5t12 -69v-41q0 -38 -12 -69t-38.5 -53.5t-68.5 -35t-102 -12.5h-286q-88 0 -88 -65v-154h595v-104h-728z" />
    <glyph glyph-name="three" unicode="3" horiz-adv-x="809" 
d="M54 0v104h472q40 0 65 15t25 58v88q0 33 -25 46.5t-65 13.5h-442v104h440q47 0 65 13t18 42v61q0 29 -18 42t-65 13h-470v104h470q58 0 99.5 -10.5t67 -30t37.5 -48t12 -63.5v-53q0 -46 -22.5 -77.5t-60.5 -39.5q40 -11 66 -37.5t26 -77.5v-115q0 -30 -10.5 -57.5
t-36 -48.5t-68.5 -33.5t-108 -12.5h-472z" />
    <glyph glyph-name="four" unicode="4" horiz-adv-x="881" 
d="M651 0v120h-635v84l372 500h144l-358 -480h477v480h133v-480h74v-104h-74v-120h-133z" />
    <glyph glyph-name="five" unicode="5" horiz-adv-x="835" 
d="M61 0v104h503q88 0 88 65v126q0 65 -88 65h-503v344h701v-104h-568v-136h370q60 0 102 -12.5t68.5 -35t38.5 -53.5t12 -69v-124q0 -38 -12 -69t-38.5 -53.5t-68.5 -35t-102 -12.5h-503z" />
    <glyph glyph-name="six" unicode="6" horiz-adv-x="915" 
d="M281 0q-60 0 -102 12.5t-68.5 35t-38.5 53.5t-12 69v364q0 38 12 69t38.5 53.5t68.5 35t102 12.5h544v-104h-544q-88 0 -88 -65v-81h444q60 0 102 -12.5t68.5 -35t38.5 -53.5t12 -69v-114q0 -38 -12 -69t-38.5 -53.5t-68.5 -35t-102 -12.5h-356zM725 285q0 65 -88 65
h-444v-181q0 -65 88 -65h356q88 0 88 65v116z" />
    <glyph glyph-name="seven" unicode="7" horiz-adv-x="840" 
d="M201 0l470 600h-638v104h788v-84l-469 -620h-151z" />
    <glyph glyph-name="eight" unicode="8" horiz-adv-x="921" 
d="M283 0q-65 0 -108 12.5t-68.5 33.5t-36 48.5t-10.5 57.5v115q0 51 26 77.5t66 37.5q-38 8 -60.5 39.5t-22.5 77.5v53q0 35 12 63.5t37.5 48t66.5 30t100 10.5h351q58 0 99.5 -10.5t67 -30t37.5 -48t12 -63.5v-53q0 -46 -22.5 -77.5t-60.5 -39.5q40 -11 66 -37.5t26 -77.5
v-115q0 -30 -10.5 -57.5t-36 -48.5t-68.5 -33.5t-108 -12.5h-355zM728 265q0 33 -25 46.5t-65 13.5h-355q-40 0 -65 -13.5t-25 -46.5v-88q0 -43 25 -58t65 -15h355q40 0 65 15t25 58v88zM719 545q0 29 -18 42t-65 13h-351q-47 0 -65 -13t-18 -42v-61q0 -29 18 -42t65 -13
h351q47 0 65 13t18 42v61z" />
    <glyph glyph-name="nine" unicode="9" horiz-adv-x="918" 
d="M98 0v104h539q88 0 88 65v99h-444q-60 0 -102 12.5t-68.5 35t-38.5 53.5t-12 69v96q0 38 12 69t38.5 53.5t68.5 35t102 12.5h356q60 0 102 -12.5t68.5 -35t38.5 -53.5t12 -69v-364q0 -38 -12 -69t-38.5 -53.5t-68.5 -35t-102 -12.5h-539zM725 535q0 65 -88 65h-356
q-88 0 -88 -65v-98q0 -65 88 -65h444v163z" />
    <glyph glyph-name="colon" unicode=":" horiz-adv-x="253" 
d="M58 400v130h137v-130h-137zM58 0v130h137v-130h-137z" />
    <glyph glyph-name="semicolon" unicode=";" horiz-adv-x="264" 
d="M63 400v130h137v-130h-137zM63 -73v203h137v-60l-84 -143h-53z" />
    <glyph glyph-name="less" unicode="&#x3c;" horiz-adv-x="537" 
d="M63 331v66l410 236v-87l-323 -183l323 -184v-87z" />
    <glyph glyph-name="equal" unicode="=" horiz-adv-x="537" 
d="M40 426v74h462v-74h-462zM40 226v74h462v-74h-462z" />
    <glyph glyph-name="greater" unicode="&#x3e;" horiz-adv-x="537" 
d="M63 92v87l323 184l-323 183v87l410 -236v-66z" />
    <glyph glyph-name="question" unicode="?" horiz-adv-x="673" 
d="M659 493q0 -38 -12 -69t-38.5 -53.5t-68.5 -35t-102 -12.5h-109q-88 0 -88 -65v-62h-113v61q0 38 12 69t39 53.5t69 35t102 12.5h88q88 0 88 65v43q0 65 -88 65h-392v104h392q60 0 102 -12.5t68.5 -35t38.5 -53.5t12 -69v-41zM128 0v130h113v-130h-113z" />
    <glyph glyph-name="at" unicode="@" horiz-adv-x="896" 
d="M281 -144q-60 0 -102 12.5t-68.5 35t-38.5 53.5t-12 69v508q0 38 12 69t38.5 53.5t68.5 35t102 12.5h334q60 0 102 -12.5t68.5 -35t38.5 -53.5t12 -69v-285q0 -38 -12 -69t-38.5 -53.5t-68.5 -35t-102 -12.5h-88q-60 0 -102 12.5t-68.5 35t-38.5 53.5t-12 69v67
q0 38 12 69t38.5 53.5t68.5 35t102 12.5h176v49q0 65 -88 65h-334q-88 0 -88 -65v-510q0 -65 88 -65h551v-104h-551zM703 382h-176q-88 0 -88 -65v-69q0 -65 88 -65h88q88 0 88 65v134z" />
    <glyph glyph-name="A" unicode="A" 
d="M880 0l-363 567l-369 -567h-148l468 704h97l465 -704h-150z" />
    <glyph glyph-name="B" unicode="B" horiz-adv-x="923" 
d="M65 0v704h573q58 0 99.5 -10.5t67 -30t37.5 -48t12 -63.5v-65q0 -46 -22.5 -77.5t-60.5 -39.5q40 -11 66 -37.5t26 -77.5v-103q0 -30 -10.5 -57.5t-36 -48.5t-68.5 -33.5t-108 -12.5h-575zM730 253q0 33 -25 46.5t-65 13.5h-442v-209h442q40 0 65 15t25 58v76zM721 545
q0 29 -18 42t-65 13h-440v-183h440q47 0 65 13t18 42v73z" />
    <glyph glyph-name="C" unicode="C" horiz-adv-x="895" 
d="M281 0q-60 0 -102 12.5t-68.5 35t-38.5 53.5t-12 69v364q0 38 12 69t38.5 53.5t68.5 35t102 12.5h567v-104h-567q-88 0 -88 -65v-366q0 -65 88 -65h567v-104h-567z" />
    <glyph glyph-name="D" unicode="D" 
d="M65 0v704h645q75 0 125 -13t80 -39t42.5 -65t12.5 -91v-295q0 -50 -12.5 -87.5t-42.5 -62.5t-80 -38t-125 -13h-645zM837 496q0 30 -6 50t-20.5 32t-39 17t-61.5 5h-512v-496h512q37 0 61.5 5t39 16t20.5 30t6 47v294z" />
    <glyph glyph-name="E" unicode="E" horiz-adv-x="837" 
d="M65 0v704h724v-104h-591v-176h561v-104h-561v-216h591v-104h-724z" />
    <glyph glyph-name="F" unicode="F" horiz-adv-x="796" 
d="M198 290v-290h-133v704h724v-104h-591v-206h551v-104h-551z" />
    <glyph glyph-name="G" unicode="G" horiz-adv-x="931" 
d="M311 0q-251 0 -251 152v400q0 152 251 152h551v-104h-551q-118 0 -118 -48v-400q0 -48 118 -48h311q118 0 118 46v234h133v-234q0 -150 -251 -150h-311z" />
    <glyph glyph-name="H" unicode="H" horiz-adv-x="972" 
d="M774 0v320h-576v-320h-133v704h133v-280h576v280h133v-704h-133z" />
    <glyph glyph-name="I" unicode="I" horiz-adv-x="273" 
d="M70 0v704h133v-704h-133z" />
    <glyph glyph-name="J" unicode="J" horiz-adv-x="484" 
d="M9 0v104h193q46 0 66.5 11.5t20.5 34.5v554h133v-554q0 -33 -12.5 -60.5t-39 -47.5t-68.5 -31t-100 -11h-193z" />
    <glyph glyph-name="K" unicode="K" horiz-adv-x="859" 
d="M693 0l-266 314h-229v-314h-133v704h133v-286h226l265 286h158l-313 -328l312 -376h-153z" />
    <glyph glyph-name="L" unicode="L" horiz-adv-x="798" 
d="M65 0v704h134v-600h571v-104h-705z" />
    <glyph glyph-name="M" unicode="M" horiz-adv-x="1202" 
d="M1014 0v493l-358 -493h-109l-359 492v-492h-123v704h124l418 -575l416 575h114v-704h-123z" />
    <glyph glyph-name="N" unicode="N" horiz-adv-x="1062" 
d="M932 0l-751 548v-548h-116v704h115l701 -523v523h116v-704h-65z" />
    <glyph glyph-name="O" unicode="O" horiz-adv-x="1027" 
d="M281 0q-60 0 -102 12.5t-68.5 35t-38.5 53.5t-12 69v364q0 38 12 69t38.5 53.5t68.5 35t102 12.5h465q60 0 102 -12.5t68.5 -35t38.5 -53.5t12 -69v-364q0 -38 -12 -69t-38.5 -53.5t-68.5 -35t-102 -12.5h-465zM834 535q0 65 -88 65h-465q-88 0 -88 -65v-366
q0 -65 88 -65h465q88 0 88 65v366z" />
    <glyph glyph-name="P" unicode="P" horiz-adv-x="891" 
d="M198 260v-260h-133v704h577q60 0 102 -12.5t68.5 -35t38.5 -53.5t12 -69v-104q0 -38 -12 -69t-38.5 -53.5t-68.5 -35t-102 -12.5h-444zM730 535q0 65 -88 65h-444v-236h444q88 0 88 65v106z" />
    <glyph glyph-name="Q" unicode="Q" horiz-adv-x="1027" 
d="M730 -156l-85 156h-364q-60 0 -102 12.5t-68.5 35t-38.5 53.5t-12 69v364q0 38 12 69t38.5 53.5t68.5 35t102 12.5h465q60 0 102 -12.5t68.5 -35t38.5 -53.5t12 -69v-364q0 -70 -42.5 -115.5t-142.5 -53.5l90 -157h-142zM834 535q0 65 -88 65h-465q-88 0 -88 -65v-366
q0 -65 88 -65h465q88 0 88 65v366z" />
    <glyph glyph-name="R" unicode="R" horiz-adv-x="926" 
d="M734 0l-165 314h-371v-314h-133v704h598q60 0 102 -12.5t68.5 -35t38.5 -53.5t12 -69v-50q0 -68 -40 -113.5t-134 -54.5l166 -316h-142zM751 535q0 65 -88 65h-465v-182h465q88 0 88 65v52z" />
    <glyph glyph-name="S" unicode="S" horiz-adv-x="951" 
d="M74 0v104h612q88 0 88 65v89q0 65 -88 65h-414q-60 0 -102 12.5t-68.5 35t-38.5 53.5t-12 69v41q0 38 12 69t38.5 53.5t68.5 35t102 12.5h596v-104h-596q-88 0 -88 -65v-43q0 -65 88 -65h414q60 0 102 -12.5t68.5 -35t38.5 -53.5t12 -69v-87q0 -38 -12 -69t-38.5 -53.5
t-68.5 -35t-102 -12.5h-612z" />
    <glyph glyph-name="T" unicode="T" horiz-adv-x="908" 
d="M392 0v600h-369v104h861v-104h-359v-600h-133z" />
    <glyph glyph-name="U" unicode="U" horiz-adv-x="1003" 
d="M283 0q-60 0 -102 12.5t-68.5 35t-38.5 53.5t-12 69v534h133v-535q0 -65 88 -65h437q88 0 88 65v535h133v-534q0 -38 -7.5 -69t-29 -53.5t-59 -35t-97.5 -12.5h-465z" />
    <glyph glyph-name="V" unicode="V" 
d="M468 0l-468 704h151l368 -567l364 567h147l-465 -704h-97z" />
    <glyph glyph-name="W" unicode="W" horiz-adv-x="1339" 
d="M914 0l-244 540l-249 -540h-97l-324 704h128l245 -540l247 540h99l244 -540l247 540h129l-325 -704h-100z" />
    <glyph glyph-name="X" unicode="X" horiz-adv-x="996" 
d="M812 0l-314 281l-312 -281h-174l402 352l-402 352h173l313 -282l313 282h171l-399 -347l401 -357h-172z" />
    <glyph glyph-name="Y" unicode="Y" horiz-adv-x="1034" 
d="M452 0v286l-452 418h170l348 -322l348 322h168l-449 -418v-286h-133z" />
    <glyph glyph-name="Z" unicode="Z" horiz-adv-x="1031" 
d="M48 0v90l712 500h-712v114h946v-90l-715 -500h715v-114h-946z" />
    <glyph glyph-name="bracketleft" unicode="[" horiz-adv-x="272" 
d="M78 -110v924h167v-74h-74v-778h74v-72h-167z" />
    <glyph glyph-name="backslash" unicode="\" horiz-adv-x="486" 
d="M395 -40l-388 784h88l388 -784h-88z" />
    <glyph glyph-name="bracketright" unicode="]" horiz-adv-x="270" 
d="M25 -110v72h74v778h-74v74h167v-924h-167z" />
    <glyph glyph-name="asciicircum" unicode="^" horiz-adv-x="643" 
d="M502 294l-183 323l-184 -323h-87l239 410h66l236 -410h-87z" />
    <glyph glyph-name="underscore" unicode="_" horiz-adv-x="651" 
d="M0 -140v84h651v-84h-651z" />
    <glyph glyph-name="grave" unicode="`" horiz-adv-x="428" 
d="M50 794v113l328 -69v-83z" />
    <glyph glyph-name="a" unicode="a" 
d="M0 0zM880 0l-363 567l-369 -567h-148l468 704h97l465 -704h-150z" />
    <glyph glyph-name="b" unicode="b" horiz-adv-x="923" 
d="M65 0zM65 0v704h573q58 0 99.5 -10.5t67 -30t37.5 -48t12 -63.5v-65q0 -46 -22.5 -77.5t-60.5 -39.5q40 -11 66 -37.5t26 -77.5v-103q0 -30 -10.5 -57.5t-36 -48.5t-68.5 -33.5t-108 -12.5h-575zM730 253q0 33 -25 46.5t-65 13.5h-442v-209h442q40 0 65 15t25 58v76z
M721 545q0 29 -18 42t-65 13h-440v-183h440q47 0 65 13t18 42v73z" />
    <glyph glyph-name="c" unicode="c" horiz-adv-x="895" 
d="M60 0zM281 0q-60 0 -102 12.5t-68.5 35t-38.5 53.5t-12 69v364q0 38 12 69t38.5 53.5t68.5 35t102 12.5h567v-104h-567q-88 0 -88 -65v-366q0 -65 88 -65h567v-104h-567z" />
    <glyph glyph-name="d" unicode="d" 
d="M65 0zM65 0v704h645q75 0 125 -13t80 -39t42.5 -65t12.5 -91v-295q0 -50 -12.5 -87.5t-42.5 -62.5t-80 -38t-125 -13h-645zM837 496q0 30 -6 50t-20.5 32t-39 17t-61.5 5h-512v-496h512q37 0 61.5 5t39 16t20.5 30t6 47v294z" />
    <glyph glyph-name="e" unicode="e" horiz-adv-x="837" 
d="M65 0zM65 0v704h724v-104h-591v-176h561v-104h-561v-216h591v-104h-724z" />
    <glyph glyph-name="f" unicode="f" horiz-adv-x="796" 
d="M65 0zM198 290v-290h-133v704h724v-104h-591v-206h551v-104h-551z" />
    <glyph glyph-name="g" unicode="g" horiz-adv-x="931" 
d="M60 0zM311 0q-251 0 -251 152v400q0 152 251 152h551v-104h-551q-118 0 -118 -48v-400q0 -48 118 -48h311q118 0 118 46v234h133v-234q0 -150 -251 -150h-311z" />
    <glyph glyph-name="h" unicode="h" horiz-adv-x="972" 
d="M65 0zM774 0v320h-576v-320h-133v704h133v-280h576v280h133v-704h-133z" />
    <glyph glyph-name="i" unicode="i" horiz-adv-x="273" 
d="M70 0zM70 0v704h133v-704h-133z" />
    <glyph glyph-name="j" unicode="j" horiz-adv-x="484" 
d="M9 0zM9 0v104h193q46 0 66.5 11.5t20.5 34.5v554h133v-554q0 -33 -12.5 -60.5t-39 -47.5t-68.5 -31t-100 -11h-193z" />
    <glyph glyph-name="k" unicode="k" horiz-adv-x="859" 
d="M65 0zM693 0l-266 314h-229v-314h-133v704h133v-286h226l265 286h158l-313 -328l312 -376h-153z" />
    <glyph glyph-name="l" unicode="l" horiz-adv-x="798" 
d="M65 0zM65 0v704h134v-600h571v-104h-705z" />
    <glyph glyph-name="m" unicode="m" horiz-adv-x="1202" 
d="M65 0zM1014 0v493l-358 -493h-109l-359 492v-492h-123v704h124l418 -575l416 575h114v-704h-123z" />
    <glyph glyph-name="n" unicode="n" horiz-adv-x="1062" 
d="M65 0zM932 0l-751 548v-548h-116v704h115l701 -523v523h116v-704h-65z" />
    <glyph glyph-name="o" unicode="o" horiz-adv-x="1027" 
d="M60 0zM281 0q-60 0 -102 12.5t-68.5 35t-38.5 53.5t-12 69v364q0 38 12 69t38.5 53.5t68.5 35t102 12.5h465q60 0 102 -12.5t68.5 -35t38.5 -53.5t12 -69v-364q0 -38 -12 -69t-38.5 -53.5t-68.5 -35t-102 -12.5h-465zM834 535q0 65 -88 65h-465q-88 0 -88 -65v-366
q0 -65 88 -65h465q88 0 88 65v366z" />
    <glyph glyph-name="p" unicode="p" horiz-adv-x="891" 
d="M65 0zM198 260v-260h-133v704h577q60 0 102 -12.5t68.5 -35t38.5 -53.5t12 -69v-104q0 -38 -12 -69t-38.5 -53.5t-68.5 -35t-102 -12.5h-444zM730 535q0 65 -88 65h-444v-236h444q88 0 88 65v106z" />
    <glyph glyph-name="q" unicode="q" horiz-adv-x="1027" 
d="M60 0zM730 -156l-85 156h-364q-60 0 -102 12.5t-68.5 35t-38.5 53.5t-12 69v364q0 38 12 69t38.5 53.5t68.5 35t102 12.5h465q60 0 102 -12.5t68.5 -35t38.5 -53.5t12 -69v-364q0 -70 -42.5 -115.5t-142.5 -53.5l90 -157h-142zM834 535q0 65 -88 65h-465q-88 0 -88 -65
v-366q0 -65 88 -65h465q88 0 88 65v366z" />
    <glyph glyph-name="r" unicode="r" horiz-adv-x="926" 
d="M65 0zM734 0l-165 314h-371v-314h-133v704h598q60 0 102 -12.5t68.5 -35t38.5 -53.5t12 -69v-50q0 -68 -40 -113.5t-134 -54.5l166 -316h-142zM751 535q0 65 -88 65h-465v-182h465q88 0 88 65v52z" />
    <glyph glyph-name="s" unicode="s" horiz-adv-x="951" 
d="M51 0zM74 0v104h612q88 0 88 65v89q0 65 -88 65h-414q-60 0 -102 12.5t-68.5 35t-38.5 53.5t-12 69v41q0 38 12 69t38.5 53.5t68.5 35t102 12.5h596v-104h-596q-88 0 -88 -65v-43q0 -65 88 -65h414q60 0 102 -12.5t68.5 -35t38.5 -53.5t12 -69v-87q0 -38 -12 -69
t-38.5 -53.5t-68.5 -35t-102 -12.5h-612z" />
    <glyph glyph-name="t" unicode="t" horiz-adv-x="908" 
d="M23 0zM392 0v600h-369v104h861v-104h-359v-600h-133z" />
    <glyph glyph-name="u" unicode="u" horiz-adv-x="1003" 
d="M62 0zM283 0q-60 0 -102 12.5t-68.5 35t-38.5 53.5t-12 69v534h133v-535q0 -65 88 -65h437q88 0 88 65v535h133v-534q0 -38 -7.5 -69t-29 -53.5t-59 -35t-97.5 -12.5h-465z" />
    <glyph glyph-name="v" unicode="v" 
d="M0 0zM468 0l-468 704h151l368 -567l364 567h147l-465 -704h-97z" />
    <glyph glyph-name="w" unicode="w" horiz-adv-x="1339" 
d="M0 0zM914 0l-244 540l-249 -540h-97l-324 704h128l245 -540l247 540h99l244 -540l247 540h129l-325 -704h-100z" />
    <glyph glyph-name="x" unicode="x" horiz-adv-x="996" 
d="M12 0zM812 0l-314 281l-312 -281h-174l402 352l-402 352h173l313 -282l313 282h171l-399 -347l401 -357h-172z" />
    <glyph glyph-name="y" unicode="y" horiz-adv-x="1034" 
d="M0 0zM452 0v286l-452 418h170l348 -322l348 322h168l-449 -418v-286h-133z" />
    <glyph glyph-name="z" unicode="z" horiz-adv-x="1031" 
d="M48 0zM48 0v90l712 500h-712v114h946v-90l-715 -500h715v-114h-946z" />
    <glyph glyph-name="braceleft" unicode="{" horiz-adv-x="294" 
d="M221 -110q-121 0 -121 112v256q0 59 -74 59v69q74 0 74 58v258q0 112 121 112h46v-64q-74 0 -74 -28v-278q0 -60 -67 -94q67 -34 67 -92v-276q0 -28 74 -28v-64h-46z" />
    <glyph glyph-name="bar" unicode="|" horiz-adv-x="323" 
d="M115 -110v924h93v-924h-93z" />
    <glyph glyph-name="braceright" unicode="}" horiz-adv-x="295" 
d="M32 -110v64q74 0 74 28v276q0 58 67 92q-67 34 -67 94v278q0 28 -74 28v64h46q121 0 121 -112v-258q0 -58 74 -58v-69q-74 0 -74 -59v-256q0 -112 -121 -112h-46z" />
    <glyph glyph-name="asciitilde" unicode="~" horiz-adv-x="543" 
d="M502 347q-23 -13 -53 -18t-65 -5q-30 0 -57.5 5t-54.5 10.5t-55 10.5t-59 5q-36 0 -67.5 -8t-50.5 -19v62q23 12 53 17.5t65 5.5q31 0 58.5 -5t54.5 -11t55 -11t58 -5q36 0 67 8t51 19v-61z" />
    <glyph glyph-name="uni00A0" unicode="&#xa0;" horiz-adv-x="500" 
 />
    <glyph glyph-name="exclamdown" unicode="&#xa1;" horiz-adv-x="274" 
d="M60 0zM195.005 704v-129.992h-116.993v129.992h116.993zM183.006 504.012l29.998 -503.969h-152.991l29.998 503.969h92.9951z" />
    <glyph glyph-name="cent" unicode="&#xa2;" horiz-adv-x="550" 
d="M367 87v-87h-105v87h-34q-46 0 -78 9.5t-52 27t-29 41.5t-9 54v257q0 29 9 53.5t29 42t52 27t78 9.5h34v96h105v-96h132v-97h-271q-50 0 -50 -34v-259q0 -35 50 -35h271v-96h-132z" />
    <glyph glyph-name="sterling" unicode="&#xa3;" horiz-adv-x="731" 
d="M37 0v104h79v216h-74v104h74v111q0 88 59.5 128.5t164.5 40.5h332v-104h-332q-39 0 -65 -14t-26 -51v-111h215v-104h-215v-216h443v-104h-655z" />
    <glyph glyph-name="yen" unicode="&#xa5;" horiz-adv-x="792" 
d="M465 111v-111h-136v111h-237v93h237v71h-237v93h186l-246 336h135l230 -313l229 313h133l-245 -336h189v-93h-238v-71h238v-93h-238z" />
    <glyph glyph-name="brokenbar" unicode="&#xa6;" horiz-adv-x="323" 
d="M115 -110v419h93v-419h-93zM208 402h-93v412h93v-412z" />
    <glyph glyph-name="section" unicode="&#xa7;" horiz-adv-x="578" 
d="M90 0v97h109q52 0 52 34v65h-47q-46 0 -78 9.5t-52 27t-29 42t-9 53.5v48q0 29 9 53.5t29.5 42t52.5 27t78 9.5h17v64q0 29 9 53.5t29.5 42t52.5 27t78 9.5h109v-97h-109q-52 0 -52 -34v-65h47q46 0 78 -9.5t52 -27t29 -42t9 -53.5v-48q0 -59 -38.5 -95.5t-130.5 -36.5
h-17v-64q0 -59 -38.5 -95.5t-130.5 -36.5h-109zM437 377q0 34 -50 34h-181q-52 0 -52 -34v-50q0 -34 50 -34h181q52 0 52 34v50z" />
    <glyph glyph-name="dieresis" unicode="&#xa8;" horiz-adv-x="509" 
d="M50 788v130h137v-130h-137zM322 788v130h137v-130h-137z" />
    <glyph glyph-name="ordfeminine" unicode="&#xaa;" horiz-adv-x="626" 
d="M514 300l-200 312l-203 -312h-81l257 387h54l255 -387h-82z" />
    <glyph glyph-name="guillemotleft" unicode="&#xab;" horiz-adv-x="602" 
d="M312 331v66l238 137v-86l-151 -85l151 -86v-85zM52 331v66l238 137v-86l-151 -85l151 -86v-85z" />
    <glyph glyph-name="macron" unicode="&#xaf;" horiz-adv-x="428" 
d="M50 790v83h328v-83h-328z" />
    <glyph glyph-name="degree" unicode="&#xb0;" horiz-adv-x="325" 
d="M230 597q0 56 -55 56q-54 0 -54 -54q0 -55 54 -55q55 0 55 53zM175 483q-115 0 -115 116q0 115 115 115q116 0 116 -115q0 -116 -116 -116z" />
    <glyph glyph-name="plusminus" unicode="&#xb1;" horiz-adv-x="543" 
d="M40 1zM234 132v194h-194v74h194v194h74v-194h194v-74h-194v-194h-74zM40 1v74h462v-74h-462z" />
    <glyph glyph-name="twosuperior" unicode="&#xb2;" horiz-adv-x="449" 
d="M41 362zM41 362v128q0 38 25.5 61.5t85.5 23.5h143q44 0 44 33v21q0 33 -44 33h-235v52h235q60 0 85 -23.5t25 -61.5v-21q0 -38 -25 -61.5t-85 -23.5h-143q-44 0 -44 -32v-77h297v-52h-364z" />
    <glyph glyph-name="threesuperior" unicode="&#xb3;" horiz-adv-x="434" 
d="M42 362zM42 362v52h236q20 0 32.5 7.5t12.5 28.5v44q0 17 -12.5 23.5t-32.5 6.5h-221v52h220q23 0 32 6.5t9 21.5v30q0 15 -9 21.5t-32 6.5h-235v52h235q59 0 83.5 -20.5t24.5 -55.5v-27q0 -23 -11.5 -38.5t-30.5 -19.5q20 -5 33 -18.5t13 -39.5v-57q0 -15 -5 -29
t-18 -24.5t-34 -16.5t-54 -6h-236z" />
    <glyph glyph-name="acute" unicode="&#xb4;" horiz-adv-x="427" 
d="M50 755v83l327 69v-113z" />
    <glyph glyph-name="paragraph" unicode="&#xb6;" horiz-adv-x="709" 
d="M510 -110v630h-110v-630h-134v710q-117 -2 -117 -80h-133q0 184 251 184h376v-814h-133z" />
    <glyph glyph-name="periodcentered" unicode="&#xb7;" horiz-adv-x="285" 
d="M60 300v130h157v-130h-157z" />
    <glyph glyph-name="cedilla" unicode="&#xb8;" horiz-adv-x="237" 
d="M50 -240v203h137v-60l-84 -143h-53z" />
    <glyph glyph-name="onesuperior" unicode="&#xb9;" horiz-adv-x="226" 
d="M17 362zM112 362v302l-25 -28h-70l69 78h92v-352h-66z" />
    <glyph glyph-name="ordmasculine" unicode="&#xba;" horiz-adv-x="625" 
d="M185 300q-66 0 -94 26t-28 68v200q0 42 28 67.5t94 25.5h255q66 0 94 -25.5t28 -67.5v-200q0 -42 -28 -68t-94 -26h-255zM489 594q0 36 -49 36h-255q-49 0 -49 -36v-201q0 -36 49 -36h255q49 0 49 36v201z" />
    <glyph glyph-name="guillemotright" unicode="&#xbb;" horiz-adv-x="602" 
d="M312 192v85l151 86l-151 85v86l238 -137v-66zM52 192v85l151 86l-151 85v86l238 -137v-66z" />
    <glyph glyph-name="onequarter" unicode="&#xbc;" horiz-adv-x="1017" 
d="M60 0zM259 362v302l-25 -28h-70l69 78h92v-352h-66zM60 -30l723 774h83l-724 -774h-82zM853 -10v60h-317v42l186 250h72l-179 -240h238v240h67v-240h37v-52h-37v-60h-67z" />
    <glyph glyph-name="onehalf" unicode="&#xbd;" horiz-adv-x="1018" 
d="M60 0zM259 362v302l-25 -28h-70l69 78h92v-352h-66zM60 -30l723 774h83l-724 -774h-82zM594 -10v128q0 38 25.5 61.5t85.5 23.5h143q44 0 44 33v21q0 33 -44 33h-235v52h235q60 0 85 -23.5t25 -61.5v-21q0 -38 -25 -61.5t-85 -23.5h-143q-44 0 -44 -32v-77h297v-52h-364z
" />
    <glyph glyph-name="threequarters" unicode="&#xbe;" horiz-adv-x="1006" 
d="M60 0zM60 362v52h236q20 0 32.5 7.5t12.5 28.5v44q0 17 -12.5 23.5t-32.5 6.5h-221v52h220q23 0 32 6.5t9 21.5v30q0 15 -9 21.5t-32 6.5h-235v52h235q59 0 83.5 -20.5t24.5 -55.5v-27q0 -23 -11.5 -38.5t-30.5 -19.5q20 -5 33 -18.5t13 -39.5v-57q0 -15 -5 -29
t-18 -24.5t-34 -16.5t-54 -6h-236zM99 -30l723 774h83l-724 -774h-82zM842 -10v60h-317v42l186 250h72l-179 -240h238v240h67v-240h37v-52h-37v-60h-67z" />
    <glyph glyph-name="questiondown" unicode="&#xbf;" horiz-adv-x="673" 
d="M14 0zM14.04 211.03q0 37.9971 11.999 68.9951q12 30.999 38.498 53.4971q26.498 22.499 68.4961 34.998q41.9971 12.499 101.993 12.499h108.994q87.9941 0 87.9941 64.9961v61.9961h112.993v-60.9961q0 -37.998 -11.999 -68.9961t-38.998 -53.4961
q-26.998 -22.499 -68.9951 -34.998q-41.998 -12.499 -101.994 -12.499h-87.9951q-87.9941 0 -87.9941 -64.9961v-42.998q0 -64.9951 87.9941 -64.9951h391.977v-103.994h-391.977q-59.9961 0 -101.993 12.499q-41.998 12.499 -68.4961 34.998t-38.498 53.4971
q-11.999 30.998 -11.999 68.9951v40.998zM545.008 704v-129.992h-112.993v129.992h112.993z" />
    <glyph glyph-name="Agrave" unicode="&#xc0;" 
d="M0 0zM880 0l-363 567l-369 -567h-148l468 704h97l465 -704h-150zM321 794v113l328 -69v-83z" />
    <glyph glyph-name="Aacute" unicode="&#xc1;" 
d="M0 0zM880 0l-363 567l-369 -567h-148l468 704h97l465 -704h-150zM381 755v83l327 69v-113z" />
    <glyph glyph-name="Acircumflex" unicode="&#xc2;" 
d="M0 0zM880 0l-363 567l-369 -567h-148l468 704h97l465 -704h-150zM581 755l-62 101h-10l-60 -101h-110l104 152h144l103 -152h-109z" />
    <glyph glyph-name="Atilde" unicode="&#xc3;" 
d="M0 0zM880 0l-363 567l-369 -567h-148l468 704h97l465 -704h-150zM679 802q-16 -17 -37.5 -23.5t-46.5 -6.5q-21 0 -40.5 6.5t-39 14t-39 14t-41.5 6.5q-26 0 -48 -10.5t-36 -25.5v83q16 16 37.5 23t46.5 7q22 0 41.5 -6.5t39 -14.5t39 -14.5t40.5 -6.5q26 0 48 10.5
t36 25.5v-82z" />
    <glyph glyph-name="Adieresis" unicode="&#xc4;" 
d="M0 0zM880 0l-363 567l-369 -567h-148l468 704h97l465 -704h-150zM310 788v130h137v-130h-137zM582 788v130h137v-130h-137z" />
    <glyph glyph-name="Aring" unicode="&#xc5;" 
d="M0 0zM880 0l-363 567l-369 -567h-148l468 704h97l465 -704h-150zM598 868q0 32 -32 32h-104q-31 0 -31 -32v-25q0 -32 31 -32h104q32 0 32 32v25zM674 842q0 -87 -115 -87h-90q-113 0 -113 87v27q0 88 113 88h90q115 0 115 -88v-27z" />
    <glyph glyph-name="AE" unicode="&#xc6;" horiz-adv-x="1494" 
d="M722 0v515l-547 -515h-175l743 704h703v-104h-591v-176h561v-104h-561v-216h591v-104h-724z" />
    <glyph glyph-name="Ccedilla" unicode="&#xc7;" horiz-adv-x="895" 
d="M60 0zM281 0q-60 0 -102 12.5t-68.5 35t-38.5 53.5t-12 69v364q0 38 12 69t38.5 53.5t68.5 35t102 12.5h567v-104h-567q-88 0 -88 -65v-366q0 -65 88 -65h567v-104h-567zM399 -240v203h137v-60l-84 -143h-53z" />
    <glyph glyph-name="Egrave" unicode="&#xc8;" horiz-adv-x="837" 
d="M65 0zM65 0v704h724v-104h-591v-176h561v-104h-561v-216h591v-104h-724zM224 794v113l328 -69v-83z" />
    <glyph glyph-name="Eacute" unicode="&#xc9;" horiz-adv-x="837" 
d="M65 0zM65 0v704h724v-104h-591v-176h561v-104h-561v-216h591v-104h-724zM285 755v83l327 69v-113z" />
    <glyph glyph-name="Ecircumflex" unicode="&#xca;" horiz-adv-x="837" 
d="M65 0zM65 0v704h724v-104h-591v-176h561v-104h-561v-216h591v-104h-724zM495 755l-62 101h-10l-60 -101h-110l104 152h144l103 -152h-109z" />
    <glyph glyph-name="Edieresis" unicode="&#xcb;" horiz-adv-x="837" 
d="M65 0zM65 0v704h724v-104h-591v-176h561v-104h-561v-216h591v-104h-724zM224 788v130h137v-130h-137zM496 788v130h137v-130h-137z" />
    <glyph glyph-name="Igrave" unicode="&#xcc;" horiz-adv-x="273" 
d="M0 0zM70 0v704h133v-704h-133zM-56 794v113l328 -69v-83z" />
    <glyph glyph-name="Iacute" unicode="&#xcd;" horiz-adv-x="273" 
d="M4 0zM70 0v704h133v-704h-133zM4 755v83l327 69v-113z" />
    <glyph glyph-name="Icircumflex" unicode="&#xce;" horiz-adv-x="273" 
d="M0 0zM70 0v704h133v-704h-133zM204 755l-62 101h-10l-60 -101h-110l104 152h144l103 -152h-109z" />
    <glyph glyph-name="Idieresis" unicode="&#xcf;" horiz-adv-x="273" 
d="M0 0zM70 0v704h133v-704h-133zM-67 788v130h137v-130h-137zM205 788v130h137v-130h-137z" />
    <glyph glyph-name="Eth" unicode="&#xd0;" 
d="M65 0v320h-65v104h65v280h645q75 0 125 -13t80 -39t42.5 -65t12.5 -91v-295q0 -50 -12.5 -87.5t-42.5 -62.5t-80 -38t-125 -13h-645zM837 496q0 30 -6 50t-20.5 32t-39 17t-61.5 5h-512v-176h321v-104h-321v-216h512q37 0 61.5 5t39 16t20.5 30t6 47v294z" />
    <glyph glyph-name="Ntilde" unicode="&#xd1;" horiz-adv-x="1062" 
d="M65 0zM932 0l-751 548v-548h-116v704h115l701 -523v523h116v-704h-65zM705 802q-16 -17 -37.5 -23.5t-46.5 -6.5q-21 0 -40.5 6.5t-39 14t-39 14t-41.5 6.5q-26 0 -48 -10.5t-36 -25.5v83q16 16 37.5 23t46.5 7q22 0 41.5 -6.5t39 -14.5t39 -14.5t40.5 -6.5q26 0 48 10.5
t36 25.5v-82z" />
    <glyph glyph-name="Ograve" unicode="&#xd2;" horiz-adv-x="1027" 
d="M60 0zM281 0q-60 0 -102 12.5t-68.5 35t-38.5 53.5t-12 69v364q0 38 12 69t38.5 53.5t68.5 35t102 12.5h465q60 0 102 -12.5t68.5 -35t38.5 -53.5t12 -69v-364q0 -38 -12 -69t-38.5 -53.5t-68.5 -35t-102 -12.5h-465zM834 535q0 65 -88 65h-465q-88 0 -88 -65v-366
q0 -65 88 -65h465q88 0 88 65v366zM319 794v113l328 -69v-83z" />
    <glyph glyph-name="Oacute" unicode="&#xd3;" horiz-adv-x="1027" 
d="M60 0zM281 0q-60 0 -102 12.5t-68.5 35t-38.5 53.5t-12 69v364q0 38 12 69t38.5 53.5t68.5 35t102 12.5h465q60 0 102 -12.5t68.5 -35t38.5 -53.5t12 -69v-364q0 -38 -12 -69t-38.5 -53.5t-68.5 -35t-102 -12.5h-465zM834 535q0 65 -88 65h-465q-88 0 -88 -65v-366
q0 -65 88 -65h465q88 0 88 65v366zM380 755v83l327 69v-113z" />
    <glyph glyph-name="Ocircumflex" unicode="&#xd4;" horiz-adv-x="1027" 
d="M60 0zM281 0q-60 0 -102 12.5t-68.5 35t-38.5 53.5t-12 69v364q0 38 12 69t38.5 53.5t68.5 35t102 12.5h465q60 0 102 -12.5t68.5 -35t38.5 -53.5t12 -69v-364q0 -38 -12 -69t-38.5 -53.5t-68.5 -35t-102 -12.5h-465zM834 535q0 65 -88 65h-465q-88 0 -88 -65v-366
q0 -65 88 -65h465q88 0 88 65v366zM580 755l-62 101h-10l-60 -101h-110l104 152h144l103 -152h-109z" />
    <glyph glyph-name="Otilde" unicode="&#xd5;" horiz-adv-x="1027" 
d="M60 0zM281 0q-60 0 -102 12.5t-68.5 35t-38.5 53.5t-12 69v364q0 38 12 69t38.5 53.5t68.5 35t102 12.5h465q60 0 102 -12.5t68.5 -35t38.5 -53.5t12 -69v-364q0 -38 -12 -69t-38.5 -53.5t-68.5 -35t-102 -12.5h-465zM834 535q0 65 -88 65h-465q-88 0 -88 -65v-366
q0 -65 88 -65h465q88 0 88 65v366zM677 802q-16 -17 -37.5 -23.5t-46.5 -6.5q-21 0 -40.5 6.5t-39 14t-39 14t-41.5 6.5q-26 0 -48 -10.5t-36 -25.5v83q16 16 37.5 23t46.5 7q22 0 41.5 -6.5t39 -14.5t39 -14.5t40.5 -6.5q26 0 48 10.5t36 25.5v-82z" />
    <glyph glyph-name="Odieresis" unicode="&#xd6;" horiz-adv-x="1027" 
d="M60 0zM281 0q-60 0 -102 12.5t-68.5 35t-38.5 53.5t-12 69v364q0 38 12 69t38.5 53.5t68.5 35t102 12.5h465q60 0 102 -12.5t68.5 -35t38.5 -53.5t12 -69v-364q0 -38 -12 -69t-38.5 -53.5t-68.5 -35t-102 -12.5h-465zM834 535q0 65 -88 65h-465q-88 0 -88 -65v-366
q0 -65 88 -65h465q88 0 88 65v366zM309 788v130h137v-130h-137zM581 788v130h137v-130h-137z" />
    <glyph glyph-name="multiply" unicode="&#xd7;" horiz-adv-x="543" 
d="M408 173l-137 138l-137 -138l-53 53l138 137l-138 137l53 53l137 -138l137 138l53 -53l-138 -137l138 -137z" />
    <glyph glyph-name="Oslash" unicode="&#xd8;" horiz-adv-x="1027" 
d="M281 0q-30 0 -57 3l-67 -72l-47 39l46 50q-51 20 -73.5 59t-22.5 91v364q0 38 12 69t38.5 53.5t68.5 35t102 12.5h465q13 0 24.5 -0.5t22.5 -1.5l78 83l45 -41l-54 -57q56 -20 80.5 -59.5t24.5 -93.5v-364q0 -38 -12 -69t-38.5 -53.5t-68.5 -35t-102 -12.5h-465zM834 535
q0 52 -55 62l-460 -493h427q88 0 88 65v366zM698 600h-417q-88 0 -88 -65v-366q0 -47 46 -60z" />
    <glyph glyph-name="Ugrave" unicode="&#xd9;" horiz-adv-x="1003" 
d="M62 0zM283 0q-60 0 -102 12.5t-68.5 35t-38.5 53.5t-12 69v534h133v-535q0 -65 88 -65h437q88 0 88 65v535h133v-534q0 -38 -7.5 -69t-29 -53.5t-59 -35t-97.5 -12.5h-465zM307 794v113l328 -69v-83z" />
    <glyph glyph-name="Uacute" unicode="&#xda;" horiz-adv-x="1003" 
d="M62 0zM283 0q-60 0 -102 12.5t-68.5 35t-38.5 53.5t-12 69v534h133v-535q0 -65 88 -65h437q88 0 88 65v535h133v-534q0 -38 -7.5 -69t-29 -53.5t-59 -35t-97.5 -12.5h-465zM368 755v83l327 69v-113z" />
    <glyph glyph-name="Ucircumflex" unicode="&#xdb;" horiz-adv-x="1003" 
d="M62 0zM283 0q-60 0 -102 12.5t-68.5 35t-38.5 53.5t-12 69v534h133v-535q0 -65 88 -65h437q88 0 88 65v535h133v-534q0 -38 -7.5 -69t-29 -53.5t-59 -35t-97.5 -12.5h-465zM568 755l-62 101h-10l-60 -101h-110l104 152h144l103 -152h-109z" />
    <glyph glyph-name="Udieresis" unicode="&#xdc;" horiz-adv-x="1003" 
d="M62 0zM283 0q-60 0 -102 12.5t-68.5 35t-38.5 53.5t-12 69v534h133v-535q0 -65 88 -65h437q88 0 88 65v535h133v-534q0 -38 -7.5 -69t-29 -53.5t-59 -35t-97.5 -12.5h-465zM297 788v130h137v-130h-137zM569 788v130h137v-130h-137z" />
    <glyph glyph-name="Yacute" unicode="&#xdd;" horiz-adv-x="1034" 
d="M0 0zM452 0v286l-452 418h170l348 -322l348 322h168l-449 -418v-286h-133zM384 755v83l327 69v-113z" />
    <glyph glyph-name="Thorn" unicode="&#xde;" horiz-adv-x="836" 
d="M198 100v-100h-133v704h133v-101h380q60 0 102 -12.5t68.5 -35t38.5 -53.5t12 -69v-163q0 -38 -12 -69t-38.5 -53.5t-68.5 -35t-102 -12.5h-380zM666 434q0 65 -88 65h-380v-295h380q88 0 88 65v165z" />
    <glyph glyph-name="germandbls" unicode="&#xdf;" horiz-adv-x="1902" 
d="M51 0zM74 0v104h612q88 0 88 65v89q0 65 -88 65h-414q-60 0 -102 12.5t-68.5 35t-38.5 53.5t-12 69v41q0 38 12 69t38.5 53.5t68.5 35t102 12.5h596v-104h-596q-88 0 -88 -65v-43q0 -65 88 -65h414q60 0 102 -12.5t68.5 -35t38.5 -53.5t12 -69v-87q0 -38 -12 -69
t-38.5 -53.5t-68.5 -35t-102 -12.5h-612zM1025 0v104h612q88 0 88 65v89q0 65 -88 65h-414q-60 0 -102 12.5t-68.5 35t-38.5 53.5t-12 69v41q0 38 12 69t38.5 53.5t68.5 35t102 12.5h596v-104h-596q-88 0 -88 -65v-43q0 -65 88 -65h414q60 0 102 -12.5t68.5 -35t38.5 -53.5
t12 -69v-87q0 -38 -12 -69t-38.5 -53.5t-68.5 -35t-102 -12.5h-612z" />
    <glyph glyph-name="agrave" unicode="&#xe0;" 
d="M0 0zM880 0l-363 567l-369 -567h-148l468 704h97l465 -704h-150zM321 794v113l328 -69v-83z" />
    <glyph glyph-name="aacute" unicode="&#xe1;" 
d="M0 0zM880 0l-363 567l-369 -567h-148l468 704h97l465 -704h-150zM381 755v83l327 69v-113z" />
    <glyph glyph-name="acircumflex" unicode="&#xe2;" 
d="M0 0zM880 0l-363 567l-369 -567h-148l468 704h97l465 -704h-150zM581 755l-62 101h-10l-60 -101h-110l104 152h144l103 -152h-109z" />
    <glyph glyph-name="atilde" unicode="&#xe3;" 
d="M0 0zM880 0l-363 567l-369 -567h-148l468 704h97l465 -704h-150zM679 802q-16 -17 -37.5 -23.5t-46.5 -6.5q-21 0 -40.5 6.5t-39 14t-39 14t-41.5 6.5q-26 0 -48 -10.5t-36 -25.5v83q16 16 37.5 23t46.5 7q22 0 41.5 -6.5t39 -14.5t39 -14.5t40.5 -6.5q26 0 48 10.5
t36 25.5v-82z" />
    <glyph glyph-name="adieresis" unicode="&#xe4;" 
d="M0 0zM880 0l-363 567l-369 -567h-148l468 704h97l465 -704h-150zM310 788v130h137v-130h-137zM582 788v130h137v-130h-137z" />
    <glyph glyph-name="aring" unicode="&#xe5;" 
d="M0 0zM880 0l-363 567l-369 -567h-148l468 704h97l465 -704h-150zM598 868q0 32 -32 32h-104q-31 0 -31 -32v-25q0 -32 31 -32h104q32 0 32 32v25zM674 842q0 -87 -115 -87h-90q-113 0 -113 87v27q0 88 113 88h90q115 0 115 -88v-27z" />
    <glyph glyph-name="ae" unicode="&#xe6;" horiz-adv-x="1494" 
d="M0 0zM722 0v515l-547 -515h-175l743 704h703v-104h-591v-176h561v-104h-561v-216h591v-104h-724z" />
    <glyph glyph-name="ccedilla" unicode="&#xe7;" horiz-adv-x="895" 
d="M60 0zM281 0q-60 0 -102 12.5t-68.5 35t-38.5 53.5t-12 69v364q0 38 12 69t38.5 53.5t68.5 35t102 12.5h567v-104h-567q-88 0 -88 -65v-366q0 -65 88 -65h567v-104h-567zM399 -240v203h137v-60l-84 -143h-53z" />
    <glyph glyph-name="egrave" unicode="&#xe8;" horiz-adv-x="837" 
d="M65 0zM65 0v704h724v-104h-591v-176h561v-104h-561v-216h591v-104h-724zM224 794v113l328 -69v-83z" />
    <glyph glyph-name="eacute" unicode="&#xe9;" horiz-adv-x="837" 
d="M65 0zM65 0v704h724v-104h-591v-176h561v-104h-561v-216h591v-104h-724zM285 755v83l327 69v-113z" />
    <glyph glyph-name="ecircumflex" unicode="&#xea;" horiz-adv-x="837" 
d="M65 0zM65 0v704h724v-104h-591v-176h561v-104h-561v-216h591v-104h-724zM495 755l-62 101h-10l-60 -101h-110l104 152h144l103 -152h-109z" />
    <glyph glyph-name="edieresis" unicode="&#xeb;" horiz-adv-x="837" 
d="M65 0zM65 0v704h724v-104h-591v-176h561v-104h-561v-216h591v-104h-724zM224 788v130h137v-130h-137zM496 788v130h137v-130h-137z" />
    <glyph glyph-name="igrave" unicode="&#xec;" horiz-adv-x="273" 
d="M0 0zM70 0v704h133v-704h-133zM-56 794v113l328 -69v-83z" />
    <glyph glyph-name="iacute" unicode="&#xed;" horiz-adv-x="273" 
d="M4 0zM70 0v704h133v-704h-133zM4 755v83l327 69v-113z" />
    <glyph glyph-name="icircumflex" unicode="&#xee;" horiz-adv-x="273" 
d="M0 0zM70 0v704h133v-704h-133zM204 755l-62 101h-10l-60 -101h-110l104 152h144l103 -152h-109z" />
    <glyph glyph-name="idieresis" unicode="&#xef;" horiz-adv-x="273" 
d="M0 0zM70 0v704h133v-704h-133zM-67 788v130h137v-130h-137zM205 788v130h137v-130h-137z" />
    <glyph glyph-name="eth" unicode="&#xf0;" 
d="M0 0zM65 0v320h-65v104h65v280h645q75 0 125 -13t80 -39t42.5 -65t12.5 -91v-295q0 -50 -12.5 -87.5t-42.5 -62.5t-80 -38t-125 -13h-645zM837 496q0 30 -6 50t-20.5 32t-39 17t-61.5 5h-512v-176h321v-104h-321v-216h512q37 0 61.5 5t39 16t20.5 30t6 47v294z" />
    <glyph glyph-name="ntilde" unicode="&#xf1;" horiz-adv-x="1062" 
d="M65 0zM932 0l-751 548v-548h-116v704h115l701 -523v523h116v-704h-65zM705 802q-16 -17 -37.5 -23.5t-46.5 -6.5q-21 0 -40.5 6.5t-39 14t-39 14t-41.5 6.5q-26 0 -48 -10.5t-36 -25.5v83q16 16 37.5 23t46.5 7q22 0 41.5 -6.5t39 -14.5t39 -14.5t40.5 -6.5q26 0 48 10.5
t36 25.5v-82z" />
    <glyph glyph-name="ograve" unicode="&#xf2;" horiz-adv-x="1027" 
d="M60 0zM281 0q-60 0 -102 12.5t-68.5 35t-38.5 53.5t-12 69v364q0 38 12 69t38.5 53.5t68.5 35t102 12.5h465q60 0 102 -12.5t68.5 -35t38.5 -53.5t12 -69v-364q0 -38 -12 -69t-38.5 -53.5t-68.5 -35t-102 -12.5h-465zM834 535q0 65 -88 65h-465q-88 0 -88 -65v-366
q0 -65 88 -65h465q88 0 88 65v366zM319 794v113l328 -69v-83z" />
    <glyph glyph-name="oacute" unicode="&#xf3;" horiz-adv-x="1027" 
d="M60 0zM281 0q-60 0 -102 12.5t-68.5 35t-38.5 53.5t-12 69v364q0 38 12 69t38.5 53.5t68.5 35t102 12.5h465q60 0 102 -12.5t68.5 -35t38.5 -53.5t12 -69v-364q0 -38 -12 -69t-38.5 -53.5t-68.5 -35t-102 -12.5h-465zM834 535q0 65 -88 65h-465q-88 0 -88 -65v-366
q0 -65 88 -65h465q88 0 88 65v366zM380 755v83l327 69v-113z" />
    <glyph glyph-name="ocircumflex" unicode="&#xf4;" horiz-adv-x="1027" 
d="M60 0zM281 0q-60 0 -102 12.5t-68.5 35t-38.5 53.5t-12 69v364q0 38 12 69t38.5 53.5t68.5 35t102 12.5h465q60 0 102 -12.5t68.5 -35t38.5 -53.5t12 -69v-364q0 -38 -12 -69t-38.5 -53.5t-68.5 -35t-102 -12.5h-465zM834 535q0 65 -88 65h-465q-88 0 -88 -65v-366
q0 -65 88 -65h465q88 0 88 65v366zM580 755l-62 101h-10l-60 -101h-110l104 152h144l103 -152h-109z" />
    <glyph glyph-name="otilde" unicode="&#xf5;" horiz-adv-x="1027" 
d="M60 0zM281 0q-60 0 -102 12.5t-68.5 35t-38.5 53.5t-12 69v364q0 38 12 69t38.5 53.5t68.5 35t102 12.5h465q60 0 102 -12.5t68.5 -35t38.5 -53.5t12 -69v-364q0 -38 -12 -69t-38.5 -53.5t-68.5 -35t-102 -12.5h-465zM834 535q0 65 -88 65h-465q-88 0 -88 -65v-366
q0 -65 88 -65h465q88 0 88 65v366zM677 802q-16 -17 -37.5 -23.5t-46.5 -6.5q-21 0 -40.5 6.5t-39 14t-39 14t-41.5 6.5q-26 0 -48 -10.5t-36 -25.5v83q16 16 37.5 23t46.5 7q22 0 41.5 -6.5t39 -14.5t39 -14.5t40.5 -6.5q26 0 48 10.5t36 25.5v-82z" />
    <glyph glyph-name="odieresis" unicode="&#xf6;" horiz-adv-x="1027" 
d="M60 0zM281 0q-60 0 -102 12.5t-68.5 35t-38.5 53.5t-12 69v364q0 38 12 69t38.5 53.5t68.5 35t102 12.5h465q60 0 102 -12.5t68.5 -35t38.5 -53.5t12 -69v-364q0 -38 -12 -69t-38.5 -53.5t-68.5 -35t-102 -12.5h-465zM834 535q0 65 -88 65h-465q-88 0 -88 -65v-366
q0 -65 88 -65h465q88 0 88 65v366zM309 788v130h137v-130h-137zM581 788v130h137v-130h-137z" />
    <glyph glyph-name="divide" unicode="&#xf7;" horiz-adv-x="543" 
d="M40 60zM40 326v74h462v-74h-462zM193 510v130h157v-130h-157zM193 60v130h157v-130h-157z" />
    <glyph glyph-name="oslash" unicode="&#xf8;" horiz-adv-x="1027" 
d="M60 0zM281 0q-30 0 -57 3l-67 -72l-47 39l46 50q-51 20 -73.5 59t-22.5 91v364q0 38 12 69t38.5 53.5t68.5 35t102 12.5h465q13 0 24.5 -0.5t22.5 -1.5l78 83l45 -41l-54 -57q56 -20 80.5 -59.5t24.5 -93.5v-364q0 -38 -12 -69t-38.5 -53.5t-68.5 -35t-102 -12.5h-465z
M834 535q0 52 -55 62l-460 -493h427q88 0 88 65v366zM698 600h-417q-88 0 -88 -65v-366q0 -47 46 -60z" />
    <glyph glyph-name="ugrave" unicode="&#xf9;" horiz-adv-x="1003" 
d="M62 0zM283 0q-60 0 -102 12.5t-68.5 35t-38.5 53.5t-12 69v534h133v-535q0 -65 88 -65h437q88 0 88 65v535h133v-534q0 -38 -7.5 -69t-29 -53.5t-59 -35t-97.5 -12.5h-465zM307 794v113l328 -69v-83z" />
    <glyph glyph-name="uacute" unicode="&#xfa;" horiz-adv-x="1003" 
d="M62 0zM283 0q-60 0 -102 12.5t-68.5 35t-38.5 53.5t-12 69v534h133v-535q0 -65 88 -65h437q88 0 88 65v535h133v-534q0 -38 -7.5 -69t-29 -53.5t-59 -35t-97.5 -12.5h-465zM368 755v83l327 69v-113z" />
    <glyph glyph-name="ucircumflex" unicode="&#xfb;" horiz-adv-x="1003" 
d="M62 0zM283 0q-60 0 -102 12.5t-68.5 35t-38.5 53.5t-12 69v534h133v-535q0 -65 88 -65h437q88 0 88 65v535h133v-534q0 -38 -7.5 -69t-29 -53.5t-59 -35t-97.5 -12.5h-465zM568 755l-62 101h-10l-60 -101h-110l104 152h144l103 -152h-109z" />
    <glyph glyph-name="udieresis" unicode="&#xfc;" horiz-adv-x="1003" 
d="M62 0zM283 0q-60 0 -102 12.5t-68.5 35t-38.5 53.5t-12 69v534h133v-535q0 -65 88 -65h437q88 0 88 65v535h133v-534q0 -38 -7.5 -69t-29 -53.5t-59 -35t-97.5 -12.5h-465zM297 788v130h137v-130h-137zM569 788v130h137v-130h-137z" />
    <glyph glyph-name="yacute" unicode="&#xfd;" horiz-adv-x="1034" 
d="M0 0zM452 0v286l-452 418h170l348 -322l348 322h168l-449 -418v-286h-133zM384 755v83l327 69v-113z" />
    <glyph glyph-name="thorn" unicode="&#xfe;" horiz-adv-x="836" 
d="M65 0zM198 100v-100h-133v704h133v-101h380q60 0 102 -12.5t68.5 -35t38.5 -53.5t12 -69v-163q0 -38 -12 -69t-38.5 -53.5t-68.5 -35t-102 -12.5h-380zM666 434q0 65 -88 65h-380v-295h380q88 0 88 65v165z" />
    <glyph glyph-name="ydieresis" unicode="&#xff;" horiz-adv-x="1034" 
d="M0 0zM452 0v286l-452 418h170l348 -322l348 322h168l-449 -418v-286h-133zM312 788v130h137v-130h-137zM584 788v130h137v-130h-137z" />
    <glyph glyph-name="Amacron" unicode="&#x100;" 
d="M0 0zM880 0l-363 567l-369 -567h-148l468 704h97l465 -704h-150zM351 790v83h328v-83h-328z" />
    <glyph glyph-name="amacron" unicode="&#x101;" 
d="M0 0zM880 0l-363 567l-369 -567h-148l468 704h97l465 -704h-150zM351 790v83h328v-83h-328z" />
    <glyph glyph-name="Abreve" unicode="&#x102;" 
d="M0 0zM880 0l-363 567l-369 -567h-148l468 704h97l465 -704h-150zM481 755q-39 0 -66.5 16.5t-44 40t-24 49.5t-7.5 46h110q0 -11 3 -27t9.5 -30t18.5 -24t30 -10h16q16 0 26.5 10t17 24t9 30t2.5 27h109q0 -20 -7.5 -46t-24 -49.5t-43.5 -40t-66 -16.5h-68z" />
    <glyph glyph-name="abreve" unicode="&#x103;" 
d="M0 0zM880 0l-363 567l-369 -567h-148l468 704h97l465 -704h-150zM481 755q-39 0 -66.5 16.5t-44 40t-24 49.5t-7.5 46h110q0 -11 3 -27t9.5 -30t18.5 -24t30 -10h16q16 0 26.5 10t17 24t9 30t2.5 27h109q0 -20 -7.5 -46t-24 -49.5t-43.5 -40t-66 -16.5h-68z" />
    <glyph glyph-name="Aogonek" unicode="&#x104;" 
d="M907 -225q-46 0 -70 24t-24 56q0 23 12 46t37 41l79 58h-61l-363 567l-369 -567h-148l468 704h97l465 -704l-116 -84q-10 -7 -10 -20q0 -7 4.5 -12t15.5 -5h106v-104h-123z" />
    <glyph glyph-name="aogonek" unicode="&#x105;" 
d="M0 0zM907 -225q-46 0 -70 24t-24 56q0 23 12 46t37 41l79 58h-61l-363 567l-369 -567h-148l468 704h97l465 -704l-116 -84q-10 -7 -10 -20q0 -7 4.5 -12t15.5 -5h106v-104h-123z" />
    <glyph glyph-name="Cacute" unicode="&#x106;" horiz-adv-x="895" 
d="M60 0zM281 0q-60 0 -102 12.5t-68.5 35t-38.5 53.5t-12 69v364q0 38 12 69t38.5 53.5t68.5 35t102 12.5h567v-104h-567q-88 0 -88 -65v-366q0 -65 88 -65h567v-104h-567zM324 755v83l327 69v-113z" />
    <glyph glyph-name="cacute" unicode="&#x107;" horiz-adv-x="895" 
d="M60 0zM281 0q-60 0 -102 12.5t-68.5 35t-38.5 53.5t-12 69v364q0 38 12 69t38.5 53.5t68.5 35t102 12.5h567v-104h-567q-88 0 -88 -65v-366q0 -65 88 -65h567v-104h-567zM324 755v83l327 69v-113z" />
    <glyph glyph-name="Cdotaccent" unicode="&#x10a;" horiz-adv-x="895" 
d="M60 0zM281 0q-60 0 -102 12.5t-68.5 35t-38.5 53.5t-12 69v364q0 38 12 69t38.5 53.5t68.5 35t102 12.5h567v-104h-567q-88 0 -88 -65v-366q0 -65 88 -65h567v-104h-567zM409 788v130h137v-130h-137z" />
    <glyph glyph-name="cdotaccent" unicode="&#x10b;" horiz-adv-x="895" 
d="M60 0zM281 0q-60 0 -102 12.5t-68.5 35t-38.5 53.5t-12 69v364q0 38 12 69t38.5 53.5t68.5 35t102 12.5h567v-104h-567q-88 0 -88 -65v-366q0 -65 88 -65h567v-104h-567zM409 788v130h137v-130h-137z" />
    <glyph glyph-name="Ccaron" unicode="&#x10c;" horiz-adv-x="895" 
d="M60 0zM281 0q-60 0 -102 12.5t-68.5 35t-38.5 53.5t-12 69v364q0 38 12 69t38.5 53.5t68.5 35t102 12.5h567v-104h-567q-88 0 -88 -65v-366q0 -65 88 -65h567v-104h-567zM405 755l-103 152h110l61 -101h10l61 101h109l-104 -152h-144z" />
    <glyph glyph-name="ccaron" unicode="&#x10d;" horiz-adv-x="895" 
d="M60 0zM281 0q-60 0 -102 12.5t-68.5 35t-38.5 53.5t-12 69v364q0 38 12 69t38.5 53.5t68.5 35t102 12.5h567v-104h-567q-88 0 -88 -65v-366q0 -65 88 -65h567v-104h-567zM405 755l-103 152h110l61 -101h10l61 101h109l-104 -152h-144z" />
    <glyph glyph-name="Dcaron" unicode="&#x10e;" 
d="M65 0zM65 0v704h645q75 0 125 -13t80 -39t42.5 -65t12.5 -91v-295q0 -50 -12.5 -87.5t-42.5 -62.5t-80 -38t-125 -13h-645zM837 496q0 30 -6 50t-20.5 32t-39 17t-61.5 5h-512v-496h512q37 0 61.5 5t39 16t20.5 30t6 47v294zM422 755l-103 152h110l61 -101h10l61 101h109
l-104 -152h-144z" />
    <glyph glyph-name="dcaron" unicode="&#x10f;" 
d="M65 0zM65 0v704h645q75 0 125 -13t80 -39t42.5 -65t12.5 -91v-295q0 -50 -12.5 -87.5t-42.5 -62.5t-80 -38t-125 -13h-645zM837 496q0 30 -6 50t-20.5 32t-39 17t-61.5 5h-512v-496h512q37 0 61.5 5t39 16t20.5 30t6 47v294zM422 755l-103 152h110l61 -101h10l61 101h109
l-104 -152h-144z" />
    <glyph glyph-name="Dcroat" unicode="&#x110;" 
d="M0 0zM65 0v320h-65v104h65v280h645q75 0 125 -13t80 -39t42.5 -65t12.5 -91v-295q0 -50 -12.5 -87.5t-42.5 -62.5t-80 -38t-125 -13h-645zM837 496q0 30 -6 50t-20.5 32t-39 17t-61.5 5h-512v-176h321v-104h-321v-216h512q37 0 61.5 5t39 16t20.5 30t6 47v294z" />
    <glyph glyph-name="dcroat" unicode="&#x111;" 
d="M0 0zM65 0v320h-65v104h65v280h645q75 0 125 -13t80 -39t42.5 -65t12.5 -91v-295q0 -50 -12.5 -87.5t-42.5 -62.5t-80 -38t-125 -13h-645zM837 496q0 30 -6 50t-20.5 32t-39 17t-61.5 5h-512v-176h321v-104h-321v-216h512q37 0 61.5 5t39 16t20.5 30t6 47v294z" />
    <glyph glyph-name="Emacron" unicode="&#x112;" horiz-adv-x="837" 
d="M65 0zM65 0v704h724v-104h-591v-176h561v-104h-561v-216h591v-104h-724zM264 790v83h328v-83h-328z" />
    <glyph glyph-name="emacron" unicode="&#x113;" horiz-adv-x="837" 
d="M65 0zM65 0v704h724v-104h-591v-176h561v-104h-561v-216h591v-104h-724zM264 790v83h328v-83h-328z" />
    <glyph glyph-name="Ebreve" unicode="&#x114;" horiz-adv-x="837" 
d="M65 0zM65 0v704h724v-104h-591v-176h561v-104h-561v-216h591v-104h-724zM395 755q-39 0 -66.5 16.5t-44 40t-24 49.5t-7.5 46h110q0 -11 3 -27t9.5 -30t18.5 -24t30 -10h16q16 0 26.5 10t17 24t9 30t2.5 27h109q0 -20 -7.5 -46t-24 -49.5t-43.5 -40t-66 -16.5h-68z" />
    <glyph glyph-name="ebreve" unicode="&#x115;" horiz-adv-x="837" 
d="M65 0zM65 0v704h724v-104h-591v-176h561v-104h-561v-216h591v-104h-724zM395 755q-39 0 -66.5 16.5t-44 40t-24 49.5t-7.5 46h110q0 -11 3 -27t9.5 -30t18.5 -24t30 -10h16q16 0 26.5 10t17 24t9 30t2.5 27h109q0 -20 -7.5 -46t-24 -49.5t-43.5 -40t-66 -16.5h-68z" />
    <glyph glyph-name="Edotaccent" unicode="&#x116;" horiz-adv-x="837" 
d="M65 0zM65 0v704h724v-104h-591v-176h561v-104h-561v-216h591v-104h-724zM360 788v130h137v-130h-137z" />
    <glyph glyph-name="edotaccent" unicode="&#x117;" horiz-adv-x="837" 
d="M65 0zM65 0v704h724v-104h-591v-176h561v-104h-561v-216h591v-104h-724zM360 788v130h137v-130h-137z" />
    <glyph glyph-name="Eogonek" unicode="&#x118;" horiz-adv-x="837" 
d="M666 -225q-46 0 -70 24t-24 56q0 23 12 46t37 41l79 58h-635v704h724v-104h-591v-176h561v-104h-561v-216h591v-104l-116 -84q-10 -7 -10 -20q0 -7 4.5 -12t15.5 -5h106v-104h-123z" />
    <glyph glyph-name="eogonek" unicode="&#x119;" horiz-adv-x="837" 
d="M65 0zM666 -225q-46 0 -70 24t-24 56q0 23 12 46t37 41l79 58h-635v704h724v-104h-591v-176h561v-104h-561v-216h591v-104l-116 -84q-10 -7 -10 -20q0 -7 4.5 -12t15.5 -5h106v-104h-123z" />
    <glyph glyph-name="Ecaron" unicode="&#x11a;" horiz-adv-x="837" 
d="M65 0zM65 0v704h724v-104h-591v-176h561v-104h-561v-216h591v-104h-724zM356 755l-103 152h110l61 -101h10l61 101h109l-104 -152h-144z" />
    <glyph glyph-name="ecaron" unicode="&#x11b;" horiz-adv-x="837" 
d="M65 0zM65 0v704h724v-104h-591v-176h561v-104h-561v-216h591v-104h-724zM356 755l-103 152h110l61 -101h10l61 101h109l-104 -152h-144z" />
    <glyph glyph-name="Gbreve" unicode="&#x11e;" horiz-adv-x="931" 
d="M60 0zM311 0q-251 0 -251 152v400q0 152 251 152h551v-104h-551q-118 0 -118 -48v-400q0 -48 118 -48h311q118 0 118 46v234h133v-234q0 -150 -251 -150h-311zM444 749q-39 0 -66.5 16.5t-44 40t-24 49.5t-7.5 46h110q0 -11 3 -27t9.5 -30t18.5 -24t30 -10h16
q16 0 26.5 10t17 24t9 30t2.5 27h109q0 -20 -7.5 -46t-24 -49.5t-43.5 -40t-66 -16.5h-68z" />
    <glyph glyph-name="gbreve" unicode="&#x11f;" horiz-adv-x="931" 
d="M60 0zM311 0q-251 0 -251 152v400q0 152 251 152h551v-104h-551q-118 0 -118 -48v-400q0 -48 118 -48h311q118 0 118 46v234h133v-234q0 -150 -251 -150h-311zM444 749q-39 0 -66.5 16.5t-44 40t-24 49.5t-7.5 46h110q0 -11 3 -27t9.5 -30t18.5 -24t30 -10h16
q16 0 26.5 10t17 24t9 30t2.5 27h109q0 -20 -7.5 -46t-24 -49.5t-43.5 -40t-66 -16.5h-68z" />
    <glyph glyph-name="Gdotaccent" unicode="&#x120;" horiz-adv-x="931" 
d="M60 0zM311 0q-251 0 -251 152v400q0 152 251 152h551v-104h-551q-118 0 -118 -48v-400q0 -48 118 -48h311q118 0 118 46v234h133v-234q0 -150 -251 -150h-311zM397 788v130h137v-130h-137z" />
    <glyph glyph-name="gdotaccent" unicode="&#x121;" horiz-adv-x="931" 
d="M60 0zM311 0q-251 0 -251 152v400q0 152 251 152h551v-104h-551q-118 0 -118 -48v-400q0 -48 118 -48h311q118 0 118 46v234h133v-234q0 -150 -251 -150h-311zM397 788v130h137v-130h-137z" />
    <glyph glyph-name="Gcommaaccent" unicode="&#x122;" horiz-adv-x="931" 
d="M60 0zM311 0q-251 0 -251 152v400q0 152 251 152h551v-104h-551q-118 0 -118 -48v-400q0 -48 118 -48h311q118 0 118 46v234h133v-234q0 -150 -251 -150h-311zM397 -240v203h137v-60l-84 -143h-53z" />
    <glyph glyph-name="gcommaaccent" unicode="&#x123;" horiz-adv-x="931" 
d="M60 0zM311 0q-251 0 -251 152v400q0 152 251 152h551v-104h-551q-118 0 -118 -48v-400q0 -48 118 -48h311q118 0 118 46v234h133v-234q0 -150 -251 -150h-311zM397 -240v203h137v-60l-84 -143h-53z" />
    <glyph glyph-name="Hbar" unicode="&#x126;" horiz-adv-x="972" 
d="M774 0v320h-576v-320h-133v704h133v-91h576v91h133v-704h-133zM774 424v106h-576v-106h576z" />
    <glyph glyph-name="hbar" unicode="&#x127;" horiz-adv-x="972" 
d="M65 0zM774 0v320h-576v-320h-133v704h133v-91h576v91h133v-704h-133zM774 424v106h-576v-106h576z" />
    <glyph glyph-name="uni012A" unicode="&#x12a;" horiz-adv-x="273" 
d="M0 0zM70 0v704h133v-704h-133zM-26 790v83h328v-83h-328z" />
    <glyph glyph-name="imacron" unicode="&#x12b;" horiz-adv-x="273" 
d="M0 0zM70 0v704h133v-704h-133zM-26 790v83h328v-83h-328z" />
    <glyph glyph-name="Ibreve" unicode="&#x12c;" horiz-adv-x="273" 
d="M0 0zM70 0v704h133v-704h-133zM104 755q-39 0 -66.5 16.5t-44 40t-24 49.5t-7.5 46h110q0 -11 3 -27t9.5 -30t18.5 -24t30 -10h16q16 0 26.5 10t17 24t9 30t2.5 27h109q0 -20 -7.5 -46t-24 -49.5t-43.5 -40t-66 -16.5h-68z" />
    <glyph glyph-name="ibreve" unicode="&#x12d;" horiz-adv-x="273" 
d="M0 0zM70 0v704h133v-704h-133zM104 755q-39 0 -66.5 16.5t-44 40t-24 49.5t-7.5 46h110q0 -11 3 -27t9.5 -30t18.5 -24t30 -10h16q16 0 26.5 10t17 24t9 30t2.5 27h109q0 -20 -7.5 -46t-24 -49.5t-43.5 -40t-66 -16.5h-68z" />
    <glyph glyph-name="Iogonek" unicode="&#x12e;" horiz-adv-x="273" 
d="M80 -225q-46 0 -70 24t-24 56q0 23 12 46t37 41l79 58h-44v704h133v-704l-116 -84q-10 -7 -10 -20q0 -7 4.5 -12t15.5 -5h106v-104h-123z" />
    <glyph glyph-name="iogonek" unicode="&#x12f;" horiz-adv-x="273" 
d="M0 0zM80 -225q-46 0 -70 24t-24 56q0 23 12 46t37 41l79 58h-44v704h133v-704l-116 -84q-10 -7 -10 -20q0 -7 4.5 -12t15.5 -5h106v-104h-123z" />
    <glyph glyph-name="Idotaccent" unicode="&#x130;" horiz-adv-x="273" 
d="M68 0zM70 0v704h133v-704h-133zM68 788v130h137v-130h-137z" />
    <glyph glyph-name="dotlessi" unicode="&#x131;" horiz-adv-x="273" 
d="M70 0zM70 0v704h133v-704h-133z" />
    <glyph glyph-name="IJ" unicode="&#x132;" horiz-adv-x="757" 
d="M70 0zM70 0v704h133v-704h-133zM282 0v104h193q46 0 66.5 11.5t20.5 34.5v554h133v-554q0 -33 -12.5 -60.5t-39 -47.5t-68.5 -31t-100 -11h-193z" />
    <glyph glyph-name="ij" unicode="&#x133;" horiz-adv-x="757" 
d="M70 0zM70 0v704h133v-704h-133zM282 0v104h193q46 0 66.5 11.5t20.5 34.5v554h133v-554q0 -33 -12.5 -60.5t-39 -47.5t-68.5 -31t-100 -11h-193z" />
    <glyph glyph-name="Kcommaaccent" unicode="&#x136;" horiz-adv-x="859" 
d="M65 0zM693 0l-266 314h-229v-314h-133v704h133v-286h226l265 286h158l-313 -328l312 -376h-153zM361 -240v203h137v-60l-84 -143h-53z" />
    <glyph glyph-name="kcommaaccent" unicode="&#x137;" horiz-adv-x="859" 
d="M65 0zM693 0l-266 314h-229v-314h-133v704h133v-286h226l265 286h158l-313 -328l312 -376h-153zM361 -240v203h137v-60l-84 -143h-53z" />
    <glyph glyph-name="Lacute" unicode="&#x139;" horiz-adv-x="798" 
d="M0 0zM65 0v704h134v-600h571v-104h-705zM-4 755v83l327 69v-113z" />
    <glyph glyph-name="lacute" unicode="&#x13a;" horiz-adv-x="798" 
d="M0 0zM65 0v704h134v-600h571v-104h-705zM-4 755v83l327 69v-113z" />
    <glyph glyph-name="Lcommaaccent" unicode="&#x13b;" horiz-adv-x="798" 
d="M65 0zM65 0v704h134v-600h571v-104h-705zM345 -240v203h137v-60l-84 -143h-53z" />
    <glyph glyph-name="lcommaaccent" unicode="&#x13c;" horiz-adv-x="798" 
d="M65 0zM65 0v704h134v-600h571v-104h-705zM345 -240v203h137v-60l-84 -143h-53z" />
    <glyph glyph-name="Lcaron" unicode="&#x13d;" horiz-adv-x="798" 
d="M65 0zM65 0v704h134v-600h571v-104h-705zM303 501v203h137v-60l-84 -143h-53z" />
    <glyph glyph-name="lcaron" unicode="&#x13e;" horiz-adv-x="798" 
d="M65 0zM65 0v704h134v-600h571v-104h-705zM303 501v203h137v-60l-84 -143h-53z" />
    <glyph glyph-name="Ldot" unicode="&#x13f;" horiz-adv-x="798" 
d="M65 0zM65 0v704h134v-600h571v-104h-705zM248 317v130h137v-130h-137z" />
    <glyph glyph-name="ldot" unicode="&#x140;" horiz-adv-x="798" 
d="M65 0zM65 0v704h134v-600h571v-104h-705zM248 317v130h137v-130h-137z" />
    <glyph glyph-name="Lslash" unicode="&#x141;" horiz-adv-x="810" 
d="M65 0v704h134v-300l254 98v-112l-254 -98v-188h571v-104h-705z" />
    <glyph glyph-name="lslash" unicode="&#x142;" horiz-adv-x="810" 
d="M65 0zM65 0v704h134v-300l254 98v-112l-254 -98v-188h571v-104h-705z" />
    <glyph glyph-name="Nacute" unicode="&#x143;" horiz-adv-x="1062" 
d="M65 0zM932 0l-751 548v-548h-116v704h115l701 -523v523h116v-704h-65zM397 755v83l327 69v-113z" />
    <glyph glyph-name="nacute" unicode="&#x144;" horiz-adv-x="1062" 
d="M65 0zM932 0l-751 548v-548h-116v704h115l701 -523v523h116v-704h-65zM397 755v83l327 69v-113z" />
    <glyph glyph-name="Ncommaaccent" unicode="&#x145;" horiz-adv-x="1062" 
d="M65 0zM932 0l-751 548v-548h-116v704h115l701 -523v523h116v-704h-65zM462 -240v203h137v-60l-84 -143h-53z" />
    <glyph glyph-name="ncommaaccent" unicode="&#x146;" horiz-adv-x="1062" 
d="M65 0zM932 0l-751 548v-548h-116v704h115l701 -523v523h116v-704h-65zM462 -240v203h137v-60l-84 -143h-53z" />
    <glyph glyph-name="Ncaron" unicode="&#x147;" horiz-adv-x="1062" 
d="M65 0zM932 0l-751 548v-548h-116v704h115l701 -523v523h116v-704h-65zM458 755l-103 152h110l61 -101h10l61 101h109l-104 -152h-144z" />
    <glyph glyph-name="ncaron" unicode="&#x148;" horiz-adv-x="1062" 
d="M65 0zM932 0l-751 548v-548h-116v704h115l701 -523v523h116v-704h-65zM458 755l-103 152h110l61 -101h10l61 101h109l-104 -152h-144z" />
    <glyph glyph-name="Eng" unicode="&#x14a;" horiz-adv-x="1062" 
d="M584 -240v104h193q46 0 75 11.5t29 34.5v127l-700 511v-548h-116v704h115l701 -523v523h116v-794q0 -33 -12.5 -60.5t-39 -47.5t-68.5 -31t-100 -11h-193z" />
    <glyph glyph-name="eng" unicode="&#x14b;" horiz-adv-x="1062" 
d="M65 0zM584 -240v104h193q46 0 75 11.5t29 34.5v127l-700 511v-548h-116v704h115l701 -523v523h116v-794q0 -33 -12.5 -60.5t-39 -47.5t-68.5 -31t-100 -11h-193z" />
    <glyph glyph-name="Omacron" unicode="&#x14c;" horiz-adv-x="1027" 
d="M60 0zM281 0q-60 0 -102 12.5t-68.5 35t-38.5 53.5t-12 69v364q0 38 12 69t38.5 53.5t68.5 35t102 12.5h465q60 0 102 -12.5t68.5 -35t38.5 -53.5t12 -69v-364q0 -38 -12 -69t-38.5 -53.5t-68.5 -35t-102 -12.5h-465zM834 535q0 65 -88 65h-465q-88 0 -88 -65v-366
q0 -65 88 -65h465q88 0 88 65v366zM349 790v83h328v-83h-328z" />
    <glyph glyph-name="omacron" unicode="&#x14d;" horiz-adv-x="1027" 
d="M60 0zM281 0q-60 0 -102 12.5t-68.5 35t-38.5 53.5t-12 69v364q0 38 12 69t38.5 53.5t68.5 35t102 12.5h465q60 0 102 -12.5t68.5 -35t38.5 -53.5t12 -69v-364q0 -38 -12 -69t-38.5 -53.5t-68.5 -35t-102 -12.5h-465zM834 535q0 65 -88 65h-465q-88 0 -88 -65v-366
q0 -65 88 -65h465q88 0 88 65v366zM349 790v83h328v-83h-328z" />
    <glyph glyph-name="Obreve" unicode="&#x14e;" horiz-adv-x="1027" 
d="M60 0zM281 0q-60 0 -102 12.5t-68.5 35t-38.5 53.5t-12 69v364q0 38 12 69t38.5 53.5t68.5 35t102 12.5h465q60 0 102 -12.5t68.5 -35t38.5 -53.5t12 -69v-364q0 -38 -12 -69t-38.5 -53.5t-68.5 -35t-102 -12.5h-465zM834 535q0 65 -88 65h-465q-88 0 -88 -65v-366
q0 -65 88 -65h465q88 0 88 65v366zM480 755q-39 0 -66.5 16.5t-44 40t-24 49.5t-7.5 46h110q0 -11 3 -27t9.5 -30t18.5 -24t30 -10h16q16 0 26.5 10t17 24t9 30t2.5 27h109q0 -20 -7.5 -46t-24 -49.5t-43.5 -40t-66 -16.5h-68z" />
    <glyph glyph-name="obreve" unicode="&#x14f;" horiz-adv-x="1027" 
d="M60 0zM281 0q-60 0 -102 12.5t-68.5 35t-38.5 53.5t-12 69v364q0 38 12 69t38.5 53.5t68.5 35t102 12.5h465q60 0 102 -12.5t68.5 -35t38.5 -53.5t12 -69v-364q0 -38 -12 -69t-38.5 -53.5t-68.5 -35t-102 -12.5h-465zM834 535q0 65 -88 65h-465q-88 0 -88 -65v-366
q0 -65 88 -65h465q88 0 88 65v366zM480 755q-39 0 -66.5 16.5t-44 40t-24 49.5t-7.5 46h110q0 -11 3 -27t9.5 -30t18.5 -24t30 -10h16q16 0 26.5 10t17 24t9 30t2.5 27h109q0 -20 -7.5 -46t-24 -49.5t-43.5 -40t-66 -16.5h-68z" />
    <glyph glyph-name="Ohungarumlaut" unicode="&#x150;" horiz-adv-x="1027" 
d="M60 0zM281 0q-60 0 -102 12.5t-68.5 35t-38.5 53.5t-12 69v364q0 38 12 69t38.5 53.5t68.5 35t102 12.5h465q60 0 102 -12.5t68.5 -35t38.5 -53.5t12 -69v-364q0 -38 -12 -69t-38.5 -53.5t-68.5 -35t-102 -12.5h-465zM834 535q0 65 -88 65h-465q-88 0 -88 -65v-366
q0 -65 88 -65h465q88 0 88 65v366zM540 765l55 142h137l-109 -142h-83zM340 765l53 142h139l-110 -142h-82z" />
    <glyph glyph-name="ohungarumlaut" unicode="&#x151;" horiz-adv-x="1027" 
d="M60 0zM281 0q-60 0 -102 12.5t-68.5 35t-38.5 53.5t-12 69v364q0 38 12 69t38.5 53.5t68.5 35t102 12.5h465q60 0 102 -12.5t68.5 -35t38.5 -53.5t12 -69v-364q0 -38 -12 -69t-38.5 -53.5t-68.5 -35t-102 -12.5h-465zM834 535q0 65 -88 65h-465q-88 0 -88 -65v-366
q0 -65 88 -65h465q88 0 88 65v366zM540 765l55 142h137l-109 -142h-83zM340 765l53 142h139l-110 -142h-82z" />
    <glyph glyph-name="OE" unicode="&#x152;" horiz-adv-x="1456" 
d="M281 0q-60 0 -102 12.5t-68.5 35t-38.5 53.5t-12 69v364q0 38 12 69t38.5 53.5t68.5 35t102 12.5h1127v-104h-591v-176h561v-104h-561v-216h591v-104h-1127zM684 600h-403q-88 0 -88 -65v-366q0 -65 88 -65h403v496z" />
    <glyph glyph-name="oe" unicode="&#x153;" horiz-adv-x="1456" 
d="M60 0zM281 0q-60 0 -102 12.5t-68.5 35t-38.5 53.5t-12 69v364q0 38 12 69t38.5 53.5t68.5 35t102 12.5h1127v-104h-591v-176h561v-104h-561v-216h591v-104h-1127zM684 600h-403q-88 0 -88 -65v-366q0 -65 88 -65h403v496z" />
    <glyph glyph-name="Racute" unicode="&#x154;" horiz-adv-x="926" 
d="M65 0zM734 0l-165 314h-371v-314h-133v704h598q60 0 102 -12.5t68.5 -35t38.5 -53.5t12 -69v-50q0 -68 -40 -113.5t-134 -54.5l166 -316h-142zM751 535q0 65 -88 65h-465v-182h465q88 0 88 65v52zM309 755v83l327 69v-113z" />
    <glyph glyph-name="racute" unicode="&#x155;" horiz-adv-x="926" 
d="M65 0zM734 0l-165 314h-371v-314h-133v704h598q60 0 102 -12.5t68.5 -35t38.5 -53.5t12 -69v-50q0 -68 -40 -113.5t-134 -54.5l166 -316h-142zM751 535q0 65 -88 65h-465v-182h465q88 0 88 65v52zM309 755v83l327 69v-113z" />
    <glyph glyph-name="Rcommaaccent" unicode="&#x156;" horiz-adv-x="926" 
d="M65 0zM734 0l-165 314h-371v-314h-133v704h598q60 0 102 -12.5t68.5 -35t38.5 -53.5t12 -69v-50q0 -68 -40 -113.5t-134 -54.5l166 -316h-142zM751 535q0 65 -88 65h-465v-182h465q88 0 88 65v52zM394 -240v203h137v-60l-84 -143h-53z" />
    <glyph glyph-name="rcommaaccent" unicode="&#x157;" horiz-adv-x="926" 
d="M65 0zM734 0l-165 314h-371v-314h-133v704h598q60 0 102 -12.5t68.5 -35t38.5 -53.5t12 -69v-50q0 -68 -40 -113.5t-134 -54.5l166 -316h-142zM751 535q0 65 -88 65h-465v-182h465q88 0 88 65v52zM394 -240v203h137v-60l-84 -143h-53z" />
    <glyph glyph-name="Rcaron" unicode="&#x158;" horiz-adv-x="926" 
d="M65 0zM734 0l-165 314h-371v-314h-133v704h598q60 0 102 -12.5t68.5 -35t38.5 -53.5t12 -69v-50q0 -68 -40 -113.5t-134 -54.5l166 -316h-142zM751 535q0 65 -88 65h-465v-182h465q88 0 88 65v52zM380 755l-103 152h110l61 -101h10l61 101h109l-104 -152h-144z" />
    <glyph glyph-name="rcaron" unicode="&#x159;" horiz-adv-x="926" 
d="M65 0zM734 0l-165 314h-371v-314h-133v704h598q60 0 102 -12.5t68.5 -35t38.5 -53.5t12 -69v-50q0 -68 -40 -113.5t-134 -54.5l166 -316h-142zM751 535q0 65 -88 65h-465v-182h465q88 0 88 65v52zM380 755l-103 152h110l61 -101h10l61 101h109l-104 -152h-144z" />
    <glyph glyph-name="Sacute" unicode="&#x15a;" horiz-adv-x="951" 
d="M51 0zM74 0v104h612q88 0 88 65v89q0 65 -88 65h-414q-60 0 -102 12.5t-68.5 35t-38.5 53.5t-12 69v41q0 38 12 69t38.5 53.5t68.5 35t102 12.5h596v-104h-596q-88 0 -88 -65v-43q0 -65 88 -65h414q60 0 102 -12.5t68.5 -35t38.5 -53.5t12 -69v-87q0 -38 -12 -69
t-38.5 -53.5t-68.5 -35t-102 -12.5h-612zM342 755v83l327 69v-113z" />
    <glyph glyph-name="sacute" unicode="&#x15b;" horiz-adv-x="951" 
d="M51 0zM74 0v104h612q88 0 88 65v89q0 65 -88 65h-414q-60 0 -102 12.5t-68.5 35t-38.5 53.5t-12 69v41q0 38 12 69t38.5 53.5t68.5 35t102 12.5h596v-104h-596q-88 0 -88 -65v-43q0 -65 88 -65h414q60 0 102 -12.5t68.5 -35t38.5 -53.5t12 -69v-87q0 -38 -12 -69
t-38.5 -53.5t-68.5 -35t-102 -12.5h-612zM342 755v83l327 69v-113z" />
    <glyph glyph-name="Scedilla" unicode="&#x15e;" horiz-adv-x="951" 
d="M51 0zM74 0v104h612q88 0 88 65v89q0 65 -88 65h-414q-60 0 -102 12.5t-68.5 35t-38.5 53.5t-12 69v41q0 38 12 69t38.5 53.5t68.5 35t102 12.5h596v-104h-596q-88 0 -88 -65v-43q0 -65 88 -65h414q60 0 102 -12.5t68.5 -35t38.5 -53.5t12 -69v-87q0 -38 -12 -69
t-38.5 -53.5t-68.5 -35t-102 -12.5h-612zM407 -240v203h137v-60l-84 -143h-53z" />
    <glyph glyph-name="scedilla" unicode="&#x15f;" horiz-adv-x="951" 
d="M51 0zM74 0v104h612q88 0 88 65v89q0 65 -88 65h-414q-60 0 -102 12.5t-68.5 35t-38.5 53.5t-12 69v41q0 38 12 69t38.5 53.5t68.5 35t102 12.5h596v-104h-596q-88 0 -88 -65v-43q0 -65 88 -65h414q60 0 102 -12.5t68.5 -35t38.5 -53.5t12 -69v-87q0 -38 -12 -69
t-38.5 -53.5t-68.5 -35t-102 -12.5h-612zM407 -240v203h137v-60l-84 -143h-53z" />
    <glyph glyph-name="Scaron" unicode="&#x160;" horiz-adv-x="951" 
d="M51 0zM74 0v104h612q88 0 88 65v89q0 65 -88 65h-414q-60 0 -102 12.5t-68.5 35t-38.5 53.5t-12 69v41q0 38 12 69t38.5 53.5t68.5 35t102 12.5h596v-104h-596q-88 0 -88 -65v-43q0 -65 88 -65h414q60 0 102 -12.5t68.5 -35t38.5 -53.5t12 -69v-87q0 -38 -12 -69
t-38.5 -53.5t-68.5 -35t-102 -12.5h-612zM413 755l-103 152h110l61 -101h10l61 101h109l-104 -152h-144z" />
    <glyph glyph-name="scaron" unicode="&#x161;" horiz-adv-x="951" 
d="M51 0zM74 0v104h612q88 0 88 65v89q0 65 -88 65h-414q-60 0 -102 12.5t-68.5 35t-38.5 53.5t-12 69v41q0 38 12 69t38.5 53.5t68.5 35t102 12.5h596v-104h-596q-88 0 -88 -65v-43q0 -65 88 -65h414q60 0 102 -12.5t68.5 -35t38.5 -53.5t12 -69v-87q0 -38 -12 -69
t-38.5 -53.5t-68.5 -35t-102 -12.5h-612zM413 755l-103 152h110l61 -101h10l61 101h109l-104 -152h-144z" />
    <glyph glyph-name="Tcommaaccent" unicode="&#x162;" horiz-adv-x="908" 
d="M23 0zM392 0v600h-369v104h861v-104h-359v-600h-133zM385 -240v203h137v-60l-84 -143h-53z" />
    <glyph glyph-name="tcommaaccent" unicode="&#x163;" horiz-adv-x="908" 
d="M23 0zM392 0v600h-369v104h861v-104h-359v-600h-133zM385 -240v203h137v-60l-84 -143h-53z" />
    <glyph glyph-name="Tcaron" unicode="&#x164;" horiz-adv-x="908" 
d="M23 0zM392 0v600h-369v104h861v-104h-359v-600h-133zM381 755l-103 152h110l61 -101h10l61 101h109l-104 -152h-144z" />
    <glyph glyph-name="tcaron" unicode="&#x165;" horiz-adv-x="908" 
d="M23 0zM392 0v600h-369v104h861v-104h-359v-600h-133zM381 755l-103 152h110l61 -101h10l61 101h109l-104 -152h-144z" />
    <glyph glyph-name="Tbar" unicode="&#x166;" horiz-adv-x="908" 
d="M392 0v261h-165v111h165v228h-369v104h861v-104h-359v-228h156v-111h-156v-261h-133z" />
    <glyph glyph-name="tbar" unicode="&#x167;" horiz-adv-x="908" 
d="M23 0zM392 0v261h-165v111h165v228h-369v104h861v-104h-359v-228h156v-111h-156v-261h-133z" />
    <glyph glyph-name="Utilde" unicode="&#x168;" horiz-adv-x="1003" 
d="M62 0zM283 0q-60 0 -102 12.5t-68.5 35t-38.5 53.5t-12 69v534h133v-535q0 -65 88 -65h437q88 0 88 65v535h133v-534q0 -38 -7.5 -69t-29 -53.5t-59 -35t-97.5 -12.5h-465zM665 802q-16 -17 -37.5 -23.5t-46.5 -6.5q-21 0 -40.5 6.5t-39 14t-39 14t-41.5 6.5
q-26 0 -48 -10.5t-36 -25.5v83q16 16 37.5 23t46.5 7q22 0 41.5 -6.5t39 -14.5t39 -14.5t40.5 -6.5q26 0 48 10.5t36 25.5v-82z" />
    <glyph glyph-name="utilde" unicode="&#x169;" horiz-adv-x="1003" 
d="M62 0zM283 0q-60 0 -102 12.5t-68.5 35t-38.5 53.5t-12 69v534h133v-535q0 -65 88 -65h437q88 0 88 65v535h133v-534q0 -38 -7.5 -69t-29 -53.5t-59 -35t-97.5 -12.5h-465zM665 802q-16 -17 -37.5 -23.5t-46.5 -6.5q-21 0 -40.5 6.5t-39 14t-39 14t-41.5 6.5
q-26 0 -48 -10.5t-36 -25.5v83q16 16 37.5 23t46.5 7q22 0 41.5 -6.5t39 -14.5t39 -14.5t40.5 -6.5q26 0 48 10.5t36 25.5v-82z" />
    <glyph glyph-name="Umacron" unicode="&#x16a;" horiz-adv-x="1003" 
d="M62 0zM283 0q-60 0 -102 12.5t-68.5 35t-38.5 53.5t-12 69v534h133v-535q0 -65 88 -65h437q88 0 88 65v535h133v-534q0 -38 -7.5 -69t-29 -53.5t-59 -35t-97.5 -12.5h-465zM337 790v83h328v-83h-328z" />
    <glyph glyph-name="umacron" unicode="&#x16b;" horiz-adv-x="1003" 
d="M62 0zM283 0q-60 0 -102 12.5t-68.5 35t-38.5 53.5t-12 69v534h133v-535q0 -65 88 -65h437q88 0 88 65v535h133v-534q0 -38 -7.5 -69t-29 -53.5t-59 -35t-97.5 -12.5h-465zM337 790v83h328v-83h-328z" />
    <glyph glyph-name="Ubreve" unicode="&#x16c;" horiz-adv-x="1003" 
d="M62 0zM283 0q-60 0 -102 12.5t-68.5 35t-38.5 53.5t-12 69v534h133v-535q0 -65 88 -65h437q88 0 88 65v535h133v-534q0 -38 -7.5 -69t-29 -53.5t-59 -35t-97.5 -12.5h-465zM468 755q-39 0 -66.5 16.5t-44 40t-24 49.5t-7.5 46h110q0 -11 3 -27t9.5 -30t18.5 -24t30 -10
h16q16 0 26.5 10t17 24t9 30t2.5 27h109q0 -20 -7.5 -46t-24 -49.5t-43.5 -40t-66 -16.5h-68z" />
    <glyph glyph-name="ubreve" unicode="&#x16d;" horiz-adv-x="1003" 
d="M62 0zM283 0q-60 0 -102 12.5t-68.5 35t-38.5 53.5t-12 69v534h133v-535q0 -65 88 -65h437q88 0 88 65v535h133v-534q0 -38 -7.5 -69t-29 -53.5t-59 -35t-97.5 -12.5h-465zM468 755q-39 0 -66.5 16.5t-44 40t-24 49.5t-7.5 46h110q0 -11 3 -27t9.5 -30t18.5 -24t30 -10
h16q16 0 26.5 10t17 24t9 30t2.5 27h109q0 -20 -7.5 -46t-24 -49.5t-43.5 -40t-66 -16.5h-68z" />
    <glyph glyph-name="Uring" unicode="&#x16e;" horiz-adv-x="1003" 
d="M62 0zM283 0q-60 0 -102 12.5t-68.5 35t-38.5 53.5t-12 69v534h133v-535q0 -65 88 -65h437q88 0 88 65v535h133v-534q0 -38 -7.5 -69t-29 -53.5t-59 -35t-97.5 -12.5h-465zM584 868q0 32 -32 32h-104q-31 0 -31 -32v-25q0 -32 31 -32h104q32 0 32 32v25zM660 842
q0 -87 -115 -87h-90q-113 0 -113 87v27q0 88 113 88h90q115 0 115 -88v-27z" />
    <glyph glyph-name="uring" unicode="&#x16f;" horiz-adv-x="1003" 
d="M62 0zM283 0q-60 0 -102 12.5t-68.5 35t-38.5 53.5t-12 69v534h133v-535q0 -65 88 -65h437q88 0 88 65v535h133v-534q0 -38 -7.5 -69t-29 -53.5t-59 -35t-97.5 -12.5h-465zM584 868q0 32 -32 32h-104q-31 0 -31 -32v-25q0 -32 31 -32h104q32 0 32 32v25zM660 842
q0 -87 -115 -87h-90q-113 0 -113 87v27q0 88 113 88h90q115 0 115 -88v-27z" />
    <glyph glyph-name="Uhungarumlaut" unicode="&#x170;" horiz-adv-x="1003" 
d="M62 0zM283 0q-60 0 -102 12.5t-68.5 35t-38.5 53.5t-12 69v534h133v-535q0 -65 88 -65h437q88 0 88 65v535h133v-534q0 -38 -7.5 -69t-29 -53.5t-59 -35t-97.5 -12.5h-465zM540 765l55 142h137l-109 -142h-83zM340 765l53 142h139l-110 -142h-82z" />
    <glyph glyph-name="uhungarumlaut" unicode="&#x171;" horiz-adv-x="1003" 
d="M62 0zM283 0q-60 0 -102 12.5t-68.5 35t-38.5 53.5t-12 69v534h133v-535q0 -65 88 -65h437q88 0 88 65v535h133v-534q0 -38 -7.5 -69t-29 -53.5t-59 -35t-97.5 -12.5h-465zM540 765l55 142h137l-109 -142h-83zM340 765l53 142h139l-110 -142h-82z" />
    <glyph glyph-name="Uogonek" unicode="&#x172;" horiz-adv-x="1003" 
d="M487 -225q-46 0 -70 24t-24 56q0 23 12 46t37 41l79 58h-238q-60 0 -102 12.5t-68.5 35t-38.5 53.5t-12 69v534h133v-535q0 -65 88 -65h437q88 0 88 65v535h133v-534q0 -38 -7.5 -69t-29 -53.5t-59 -35t-97.5 -12.5h-138l-116 -84q-10 -7 -10 -20q0 -7 4.5 -12t15.5 -5
h106v-104h-123z" />
    <glyph glyph-name="uogonek" unicode="&#x173;" horiz-adv-x="1003" 
d="M62 0zM487 -225q-46 0 -70 24t-24 56q0 23 12 46t37 41l79 58h-238q-60 0 -102 12.5t-68.5 35t-38.5 53.5t-12 69v534h133v-535q0 -65 88 -65h437q88 0 88 65v535h133v-534q0 -38 -7.5 -69t-29 -53.5t-59 -35t-97.5 -12.5h-138l-116 -84q-10 -7 -10 -20q0 -7 4.5 -12
t15.5 -5h106v-104h-123z" />
    <glyph glyph-name="Wcircumflex" unicode="&#x174;" horiz-adv-x="1339" 
d="M0 0zM914 0l-244 540l-249 -540h-97l-324 704h128l245 -540l247 540h99l244 -540l247 540h129l-325 -704h-100zM736 755l-62 101h-10l-60 -101h-110l104 152h144l103 -152h-109z" />
    <glyph glyph-name="wcircumflex" unicode="&#x175;" horiz-adv-x="1339" 
d="M0 0zM914 0l-244 540l-249 -540h-97l-324 704h128l245 -540l247 540h99l244 -540l247 540h129l-325 -704h-100zM736 755l-62 101h-10l-60 -101h-110l104 152h144l103 -152h-109z" />
    <glyph glyph-name="Ycircumflex" unicode="&#x176;" horiz-adv-x="1034" 
d="M0 0zM452 0v286l-452 418h170l348 -322l348 322h168l-449 -418v-286h-133zM584 755l-62 101h-10l-60 -101h-110l104 152h144l103 -152h-109z" />
    <glyph glyph-name="ycircumflex" unicode="&#x177;" horiz-adv-x="1034" 
d="M0 0zM452 0v286l-452 418h170l348 -322l348 322h168l-449 -418v-286h-133zM584 755l-62 101h-10l-60 -101h-110l104 152h144l103 -152h-109z" />
    <glyph glyph-name="Ydieresis" unicode="&#x178;" horiz-adv-x="1034" 
d="M0 0zM452 0v286l-452 418h170l348 -322l348 322h168l-449 -418v-286h-133zM312 788v130h137v-130h-137zM584 788v130h137v-130h-137z" />
    <glyph glyph-name="Zacute" unicode="&#x179;" horiz-adv-x="1031" 
d="M48 0zM48 0v90l712 500h-712v114h946v-90l-715 -500h715v-114h-946zM382 755v83l327 69v-113z" />
    <glyph glyph-name="zacute" unicode="&#x17a;" horiz-adv-x="1031" 
d="M48 0zM48 0v90l712 500h-712v114h946v-90l-715 -500h715v-114h-946zM382 755v83l327 69v-113z" />
    <glyph glyph-name="Zdotaccent" unicode="&#x17b;" horiz-adv-x="1031" 
d="M48 0zM48 0v90l712 500h-712v114h946v-90l-715 -500h715v-114h-946zM447 788v130h137v-130h-137z" />
    <glyph glyph-name="zdotaccent" unicode="&#x17c;" horiz-adv-x="1031" 
d="M48 0zM48 0v90l712 500h-712v114h946v-90l-715 -500h715v-114h-946zM447 788v130h137v-130h-137z" />
    <glyph glyph-name="Zcaron" unicode="&#x17d;" horiz-adv-x="1031" 
d="M48 0zM48 0v90l712 500h-712v114h946v-90l-715 -500h715v-114h-946zM433 755l-103 152h110l61 -101h10l61 101h109l-104 -152h-144z" />
    <glyph glyph-name="zcaron" unicode="&#x17e;" horiz-adv-x="1031" 
d="M48 0zM48 0v90l712 500h-712v114h946v-90l-715 -500h715v-114h-946zM433 755l-103 152h110l61 -101h10l61 101h109l-104 -152h-144z" />
    <glyph glyph-name="florin" unicode="&#x192;" horiz-adv-x="1042" 
d="M894 0l-129 200h-486l-129 -200h-143l468 704h97l465 -704h-143zM524 575l-176 -271h350z" />
    <glyph glyph-name="Scommaaccent" unicode="&#x218;" horiz-adv-x="951" 
d="M51 0zM74 0v104h612q88 0 88 65v89q0 65 -88 65h-414q-60 0 -102 12.5t-68.5 35t-38.5 53.5t-12 69v41q0 38 12 69t38.5 53.5t68.5 35t102 12.5h596v-104h-596q-88 0 -88 -65v-43q0 -65 88 -65h414q60 0 102 -12.5t68.5 -35t38.5 -53.5t12 -69v-87q0 -38 -12 -69
t-38.5 -53.5t-68.5 -35t-102 -12.5h-612zM407 -240v203h137v-60l-84 -143h-53z" />
    <glyph glyph-name="scommaaccent" unicode="&#x219;" horiz-adv-x="951" 
d="M51 0zM74 0v104h612q88 0 88 65v89q0 65 -88 65h-414q-60 0 -102 12.5t-68.5 35t-38.5 53.5t-12 69v41q0 38 12 69t38.5 53.5t68.5 35t102 12.5h596v-104h-596q-88 0 -88 -65v-43q0 -65 88 -65h414q60 0 102 -12.5t68.5 -35t38.5 -53.5t12 -69v-87q0 -38 -12 -69
t-38.5 -53.5t-68.5 -35t-102 -12.5h-612zM407 -240v203h137v-60l-84 -143h-53z" />
    <glyph glyph-name="uni021A" unicode="&#x21a;" horiz-adv-x="908" 
d="M23 0zM392 0v600h-369v104h861v-104h-359v-600h-133zM385 -240v203h137v-60l-84 -143h-53z" />
    <glyph glyph-name="uni021B" unicode="&#x21b;" horiz-adv-x="908" 
d="M23 0zM392 0v600h-369v104h861v-104h-359v-600h-133zM385 -240v203h137v-60l-84 -143h-53z" />
    <glyph glyph-name="circumflex" unicode="&#x2c6;" horiz-adv-x="451" 
d="M292 755l-62 101h-10l-60 -101h-110l104 152h144l103 -152h-109z" />
    <glyph glyph-name="caron" unicode="&#x2c7;" horiz-adv-x="451" 
d="M153 755l-103 152h110l61 -101h10l61 101h109l-104 -152h-144z" />
    <glyph glyph-name="breve" unicode="&#x2d8;" horiz-adv-x="451" 
d="M192 755q-39 0 -66.5 16.5t-44 40t-24 49.5t-7.5 46h110q0 -11 3 -27t9.5 -30t18.5 -24t30 -10h16q16 0 26.5 10t17 24t9 30t2.5 27h109q0 -20 -7.5 -46t-24 -49.5t-43.5 -40t-66 -16.5h-68z" />
    <glyph glyph-name="dotaccent" unicode="&#x2d9;" horiz-adv-x="237" 
d="M50 788v130h137v-130h-137z" />
    <glyph glyph-name="ring" unicode="&#x2da;" horiz-adv-x="418" 
d="M292 868q0 32 -32 32h-104q-31 0 -31 -32v-25q0 -32 31 -32h104q32 0 32 32v25zM368 842q0 -87 -115 -87h-90q-113 0 -113 87v27q0 88 113 88h90q115 0 115 -88v-27z" />
    <glyph glyph-name="ogonek" unicode="&#x2db;" horiz-adv-x="251" 
d="M128 -225q-46 0 -70 24t-24 56q0 23 12 46t37 41l79 58h89l-116 -84q-10 -7 -10 -20q0 -7 4.5 -12t15.5 -5h106v-104h-123z" />
    <glyph glyph-name="tilde" unicode="&#x2dc;" horiz-adv-x="428" 
d="M378 802q-16 -17 -37.5 -23.5t-46.5 -6.5q-21 0 -40.5 6.5t-39 14t-39 14t-41.5 6.5q-26 0 -48 -10.5t-36 -25.5v83q16 16 37.5 23t46.5 7q22 0 41.5 -6.5t39 -14.5t39 -14.5t40.5 -6.5q26 0 48 10.5t36 25.5v-82z" />
    <glyph glyph-name="hungarumlaut" unicode="&#x2dd;" horiz-adv-x="492" 
d="M250 765l55 142h137l-109 -142h-83zM50 765l53 142h139l-110 -142h-82z" />
    <glyph glyph-name="commaaccent" unicode="&#x326;" horiz-adv-x="237" 
d="M50 -240v203h137v-60l-84 -143h-53z" />
    <glyph glyph-name="Wgrave" unicode="&#x1e80;" horiz-adv-x="1339" 
d="M0 0zM914 0l-244 540l-249 -540h-97l-324 704h128l245 -540l247 540h99l244 -540l247 540h129l-325 -704h-100zM475 794v113l328 -69v-83z" />
    <glyph glyph-name="wgrave" unicode="&#x1e81;" horiz-adv-x="1339" 
d="M0 0zM914 0l-244 540l-249 -540h-97l-324 704h128l245 -540l247 540h99l244 -540l247 540h129l-325 -704h-100zM475 794v113l328 -69v-83z" />
    <glyph glyph-name="Wacute" unicode="&#x1e82;" horiz-adv-x="1339" 
d="M0 0zM914 0l-244 540l-249 -540h-97l-324 704h128l245 -540l247 540h99l244 -540l247 540h129l-325 -704h-100zM536 755v83l327 69v-113z" />
    <glyph glyph-name="wacute" unicode="&#x1e83;" horiz-adv-x="1339" 
d="M0 0zM914 0l-244 540l-249 -540h-97l-324 704h128l245 -540l247 540h99l244 -540l247 540h129l-325 -704h-100zM536 755v83l327 69v-113z" />
    <glyph glyph-name="Wdieresis" unicode="&#x1e84;" horiz-adv-x="1339" 
d="M0 0zM914 0l-244 540l-249 -540h-97l-324 704h128l245 -540l247 540h99l244 -540l247 540h129l-325 -704h-100zM465 788v130h137v-130h-137zM737 788v130h137v-130h-137z" />
    <glyph glyph-name="wdieresis" unicode="&#x1e85;" horiz-adv-x="1339" 
d="M0 0zM914 0l-244 540l-249 -540h-97l-324 704h128l245 -540l247 540h99l244 -540l247 540h129l-325 -704h-100zM465 788v130h137v-130h-137zM737 788v130h137v-130h-137z" />
    <glyph glyph-name="Ygrave" unicode="&#x1ef2;" horiz-adv-x="1034" 
d="M0 0zM452 0v286l-452 418h170l348 -322l348 322h168l-449 -418v-286h-133zM323 794v113l328 -69v-83z" />
    <glyph glyph-name="ygrave" unicode="&#x1ef3;" horiz-adv-x="1034" 
d="M0 0zM452 0v286l-452 418h170l348 -322l348 322h168l-449 -418v-286h-133zM323 794v113l328 -69v-83z" />
    <glyph glyph-name="endash" unicode="&#x2013;" horiz-adv-x="685" 
d="M21 321v111h642v-111h-642z" />
    <glyph glyph-name="emdash" unicode="&#x2014;" horiz-adv-x="1186" 
d="M21 321v111h1143v-111h-1143z" />
    <glyph glyph-name="quoteleft" unicode="&#x2018;" horiz-adv-x="265" 
d="M144 501l-84 143v60h137v-203h-53z" />
    <glyph glyph-name="quoteright" unicode="&#x2019;" horiz-adv-x="265" 
d="M60 501v203h137v-60l-84 -143h-53z" />
    <glyph glyph-name="quotesinglbase" unicode="&#x201a;" horiz-adv-x="265" 
d="M60 -73v203h137v-60l-84 -143h-53z" />
    <glyph glyph-name="quotedblleft" unicode="&#x201c;" horiz-adv-x="455" 
d="M334 501l-84 143v60h137v-203h-53zM144 501l-84 143v60h137v-203h-53z" />
    <glyph glyph-name="quotedblright" unicode="&#x201d;" horiz-adv-x="455" 
d="M60 501v203h137v-60l-84 -143h-53zM250 501v203h137v-60l-84 -143h-53z" />
    <glyph glyph-name="quotedblbase" unicode="&#x201e;" horiz-adv-x="455" 
d="M60 -73v203h137v-60l-84 -143h-53zM250 -73v203h137v-60l-84 -143h-53z" />
    <glyph glyph-name="dagger" unicode="&#x2020;" horiz-adv-x="432" 
d="M177 0v467h-117v70h117v167h70v-167h117v-70h-117v-467h-70z" />
    <glyph glyph-name="daggerdbl" unicode="&#x2021;" horiz-adv-x="432" 
d="M177 0v167h-117v70h117v230h-117v70h117v167h70v-167h117v-70h-117v-230h117v-70h-117v-167h-70z" />
    <glyph glyph-name="bullet" unicode="&#x2022;" horiz-adv-x="372" 
d="M317 357q0 -27 -10 -50.5t-27.5 -40.5t-41 -27t-50.5 -10t-50.5 10t-40.5 27t-27 40.5t-10 50.5t10 50.5t27 41t40.5 27.5t50.5 10t50.5 -10t41 -27.5t27.5 -41t10 -50.5z" />
    <glyph glyph-name="ellipsis" unicode="&#x2026;" horiz-adv-x="1425" 
d="M60 0zM60 0v130h157v-130h-157zM630 0v130h157v-130h-157zM1200 0v130h157v-130h-157z" />
    <glyph glyph-name="perthousand" unicode="&#x2030;" horiz-adv-x="1448" 
d="M60 0zM170 362q-60 0 -85 23.5t-25 61.5v182q0 38 25 61.5t85 23.5h166q60 0 85 -23.5t25 -61.5v-182q0 -38 -25 -61.5t-85 -23.5h-166zM380 629q0 33 -44 33h-166q-44 0 -44 -33v-183q0 -32 44 -32h166q44 0 44 32v183zM98 -30l723 774h83l-724 -774h-82zM666 -10
q-60 0 -85 23.5t-25 61.5v182q0 38 25 61.5t85 23.5h166q60 0 85 -23.5t25 -61.5v-182q0 -38 -25 -61.5t-85 -23.5h-166zM876 257q0 33 -44 33h-166q-44 0 -44 -33v-183q0 -32 44 -32h166q44 0 44 32v183zM1112 -10q-60 0 -85 23.5t-25 61.5v182q0 38 25 61.5t85 23.5h166
q60 0 85 -23.5t25 -61.5v-182q0 -38 -25 -61.5t-85 -23.5h-166zM1322 257q0 33 -44 33h-166q-44 0 -44 -33v-183q0 -32 44 -32h166q44 0 44 32v183z" />
    <glyph glyph-name="guilsinglleft" unicode="&#x2039;" horiz-adv-x="342" 
d="M52 331v66l238 137v-86l-151 -85l151 -86v-85z" />
    <glyph glyph-name="guilsinglright" unicode="&#x203a;" horiz-adv-x="342" 
d="M52 192v85l151 86l-151 85v86l238 -137v-66z" />
    <glyph glyph-name="fraction" unicode="&#x2044;" horiz-adv-x="220" 
d="M-293 -30l723 774h83l-724 -774h-82z" />
    <glyph glyph-name="zerosuperior" unicode="&#x2070;" horiz-adv-x="476" 
d="M45 362zM155 362q-60 0 -85 23.5t-25 61.5v182q0 38 25 61.5t85 23.5h166q60 0 85 -23.5t25 -61.5v-182q0 -38 -25 -61.5t-85 -23.5h-166zM365 629q0 33 -44 33h-166q-44 0 -44 -33v-183q0 -32 44 -32h166q44 0 44 32v183z" />
    <glyph glyph-name="foursuperior" unicode="&#x2074;" horiz-adv-x="470" 
d="M23 362zM340 362v60h-317v42l186 250h72l-179 -240h238v240h67v-240h37v-52h-37v-60h-67z" />
    <glyph glyph-name="fivesuperior" unicode="&#x2075;" horiz-adv-x="447" 
d="M45 362zM45 362v52h252q44 0 44 32v63q0 33 -44 33h-252v172h351v-52h-284v-68h185q60 0 85 -23.5t25 -61.5v-62q0 -38 -25 -61.5t-85 -23.5h-252z" />
    <glyph glyph-name="sixsuperior" unicode="&#x2076;" horiz-adv-x="487" 
d="M45 362zM155 362q-60 0 -85 23.5t-25 61.5v182q0 38 25 61.5t85 23.5h272v-52h-272q-44 0 -44 -33v-40h222q60 0 85.5 -23.5t25.5 -61.5v-57q0 -38 -25.5 -61.5t-85.5 -23.5h-178zM377 504q0 33 -44 33h-222v-91q0 -32 44 -32h178q44 0 44 32v58z" />
    <glyph glyph-name="sevensuperior" unicode="&#x2077;" horiz-adv-x="450" 
d="M31 362zM115 362l235 300h-319v52h394v-42l-234 -310h-76z" />
    <glyph glyph-name="eightsuperior" unicode="&#x2078;" horiz-adv-x="490" 
d="M45 362zM156 362q-33 0 -54 6t-34 16.5t-18 24.5t-5 29v57q0 26 13 39.5t33 18.5q-19 4 -30.5 19.5t-11.5 38.5v27q0 35 24.5 55.5t83.5 20.5h176q59 0 83.5 -20.5t24.5 -55.5v-27q0 -23 -11.5 -38.5t-30.5 -19.5q20 -5 33 -18.5t13 -39.5v-57q0 -15 -5 -29t-18 -24.5
t-34 -16.5t-54 -6h-178zM379 494q0 17 -12.5 23.5t-32.5 6.5h-178q-20 0 -32.5 -6.5t-12.5 -23.5v-44q0 -21 12.5 -28.5t32.5 -7.5h178q20 0 32.5 7.5t12.5 28.5v44zM374 634q0 15 -9 21.5t-32 6.5h-176q-23 0 -32 -6.5t-9 -21.5v-30q0 -15 9 -21.5t32 -6.5h176q23 0 32 6.5
t9 21.5v30z" />
    <glyph glyph-name="ninesuperior" unicode="&#x2079;" horiz-adv-x="489" 
d="M45 362zM64 362v52h269q44 0 44 32v50h-222q-60 0 -85 23.5t-25 61.5v48q0 38 25 61.5t85 23.5h178q60 0 85.5 -23.5t25.5 -61.5v-182q0 -38 -25.5 -61.5t-85.5 -23.5h-269zM377 629q0 33 -44 33h-178q-44 0 -44 -33v-49q0 -32 44 -32h222v81z" />
    <glyph glyph-name="zeroinferior" unicode="&#x2080;" horiz-adv-x="476" 
d="M155 -10q-60 0 -85 23.5t-25 61.5v182q0 38 25 61.5t85 23.5h166q60 0 85 -23.5t25 -61.5v-182q0 -38 -25 -61.5t-85 -23.5h-166zM365 257q0 33 -44 33h-166q-44 0 -44 -33v-183q0 -32 44 -32h166q44 0 44 32v183z" />
    <glyph glyph-name="oneinferior" unicode="&#x2081;" horiz-adv-x="226" 
d="M112 -10v302l-25 -28h-70l69 78h92v-352h-66z" />
    <glyph glyph-name="twoinferior" unicode="&#x2082;" horiz-adv-x="449" 
d="M41 -10v128q0 38 25.5 61.5t85.5 23.5h143q44 0 44 33v21q0 33 -44 33h-235v52h235q60 0 85 -23.5t25 -61.5v-21q0 -38 -25 -61.5t-85 -23.5h-143q-44 0 -44 -32v-77h297v-52h-364z" />
    <glyph glyph-name="threeinferior" unicode="&#x2083;" horiz-adv-x="434" 
d="M42 -10v52h236q20 0 32.5 7.5t12.5 28.5v44q0 17 -12.5 23.5t-32.5 6.5h-221v52h220q23 0 32 6.5t9 21.5v30q0 15 -9 21.5t-32 6.5h-235v52h235q59 0 83.5 -20.5t24.5 -55.5v-27q0 -23 -11.5 -38.5t-30.5 -19.5q20 -5 33 -18.5t13 -39.5v-57q0 -15 -5 -29t-18 -24.5
t-34 -16.5t-54 -6h-236z" />
    <glyph glyph-name="fourinferior" unicode="&#x2084;" horiz-adv-x="470" 
d="M340 -10v60h-317v42l186 250h72l-179 -240h238v240h67v-240h37v-52h-37v-60h-67z" />
    <glyph glyph-name="fiveinferior" unicode="&#x2085;" horiz-adv-x="447" 
d="M45 -10v52h252q44 0 44 32v63q0 33 -44 33h-252v172h351v-52h-284v-68h185q60 0 85 -23.5t25 -61.5v-62q0 -38 -25 -61.5t-85 -23.5h-252z" />
    <glyph glyph-name="sixinferior" unicode="&#x2086;" horiz-adv-x="487" 
d="M155 -10q-60 0 -85 23.5t-25 61.5v182q0 38 25 61.5t85 23.5h272v-52h-272q-44 0 -44 -33v-40h222q60 0 85.5 -23.5t25.5 -61.5v-57q0 -38 -25.5 -61.5t-85.5 -23.5h-178zM377 132q0 33 -44 33h-222v-91q0 -32 44 -32h178q44 0 44 32v58z" />
    <glyph glyph-name="seveninferior" unicode="&#x2087;" horiz-adv-x="450" 
d="M115 -10l235 300h-319v52h394v-42l-234 -310h-76z" />
    <glyph glyph-name="eightinferior" unicode="&#x2088;" horiz-adv-x="490" 
d="M156 -10q-33 0 -54 6t-34 16.5t-18 24.5t-5 29v57q0 26 13 39.5t33 18.5q-19 4 -30.5 19.5t-11.5 38.5v27q0 35 24.5 55.5t83.5 20.5h176q59 0 83.5 -20.5t24.5 -55.5v-27q0 -23 -11.5 -38.5t-30.5 -19.5q20 -5 33 -18.5t13 -39.5v-57q0 -15 -5 -29t-18 -24.5t-34 -16.5
t-54 -6h-178zM379 122q0 17 -12.5 23.5t-32.5 6.5h-178q-20 0 -32.5 -6.5t-12.5 -23.5v-44q0 -21 12.5 -28.5t32.5 -7.5h178q20 0 32.5 7.5t12.5 28.5v44zM374 262q0 15 -9 21.5t-32 6.5h-176q-23 0 -32 -6.5t-9 -21.5v-30q0 -15 9 -21.5t32 -6.5h176q23 0 32 6.5t9 21.5v30
z" />
    <glyph glyph-name="nineinferior" unicode="&#x2089;" horiz-adv-x="489" 
d="M64 -10v52h269q44 0 44 32v50h-222q-60 0 -85 23.5t-25 61.5v48q0 38 25 61.5t85 23.5h178q60 0 85.5 -23.5t25.5 -61.5v-182q0 -38 -25.5 -61.5t-85.5 -23.5h-269zM377 257q0 33 -44 33h-178q-44 0 -44 -33v-49q0 -32 44 -32h222v81z" />
    <glyph glyph-name="Euro" unicode="&#x20ac;" horiz-adv-x="752" 
d="M352 0q-251 0 -251 152v68h-94l20 94h74v76h-94l20 94h74v68q0 152 251 152h351l-48 -104h-303q-118 0 -118 -48v-68h368l-43 -94h-325v-76h290l-43 -94h-247v-68q0 -48 118 -48h349v-104h-349z" />
    <glyph glyph-name="trademark" unicode="&#x2122;" horiz-adv-x="639" 
d="M128 368v264h-79v72h222v-72h-78v-264h-65zM508 368v126l-69 -126l-71 125v-125h-64v336h59l76 -188l76 188h59v-336h-66z" />
    <glyph glyph-name="onethird" unicode="&#x2153;" horiz-adv-x="1022" 
d="M60 0zM259 362v302l-25 -28h-70l69 78h92v-352h-66zM60 -30l723 774h83l-724 -774h-82zM615 -10v52h236q20 0 32.5 7.5t12.5 28.5v44q0 17 -12.5 23.5t-32.5 6.5h-221v52h220q23 0 32 6.5t9 21.5v30q0 15 -9 21.5t-32 6.5h-235v52h235q59 0 83.5 -20.5t24.5 -55.5v-27
q0 -23 -11.5 -38.5t-30.5 -19.5q20 -5 33 -18.5t13 -39.5v-57q0 -15 -5 -29t-18 -24.5t-34 -16.5t-54 -6h-236z" />
    <glyph glyph-name="twothirds" unicode="&#x2154;" horiz-adv-x="997" 
d="M60 0zM60 362v128q0 38 25.5 61.5t85.5 23.5h143q44 0 44 33v21q0 33 -44 33h-235v52h235q60 0 85 -23.5t25 -61.5v-21q0 -38 -25 -61.5t-85 -23.5h-143q-44 0 -44 -32v-77h297v-52h-364zM95 -30l723 774h83l-724 -774h-82zM590 -10v52h236q20 0 32.5 7.5t12.5 28.5v44
q0 17 -12.5 23.5t-32.5 6.5h-221v52h220q23 0 32 6.5t9 21.5v30q0 15 -9 21.5t-32 6.5h-235v52h235q59 0 83.5 -20.5t24.5 -55.5v-27q0 -23 -11.5 -38.5t-30.5 -19.5q20 -5 33 -18.5t13 -39.5v-57q0 -15 -5 -29t-18 -24.5t-34 -16.5t-54 -6h-236z" />
    <glyph glyph-name="oneeighth" unicode="&#x215b;" horiz-adv-x="1058" 
d="M60 0zM259 362v302l-25 -28h-70l69 78h92v-352h-66zM60 -30l723 774h83l-724 -774h-82zM709 -10q-33 0 -54 6t-34 16.5t-18 24.5t-5 29v57q0 26 13 39.5t33 18.5q-19 4 -30.5 19.5t-11.5 38.5v27q0 35 24.5 55.5t83.5 20.5h176q59 0 83.5 -20.5t24.5 -55.5v-27
q0 -23 -11.5 -38.5t-30.5 -19.5q20 -5 33 -18.5t13 -39.5v-57q0 -15 -5 -29t-18 -24.5t-34 -16.5t-54 -6h-178zM932 122q0 17 -12.5 23.5t-32.5 6.5h-178q-20 0 -32.5 -6.5t-12.5 -23.5v-44q0 -21 12.5 -28.5t32.5 -7.5h178q20 0 32.5 7.5t12.5 28.5v44zM927 262
q0 15 -9 21.5t-32 6.5h-176q-23 0 -32 -6.5t-9 -21.5v-30q0 -15 9 -21.5t32 -6.5h176q23 0 32 6.5t9 21.5v30z" />
    <glyph glyph-name="threeeighths" unicode="&#x215c;" horiz-adv-x="1017" 
d="M60 0zM60 362v52h236q20 0 32.5 7.5t12.5 28.5v44q0 17 -12.5 23.5t-32.5 6.5h-221v52h220q23 0 32 6.5t9 21.5v30q0 15 -9 21.5t-32 6.5h-235v52h235q59 0 83.5 -20.5t24.5 -55.5v-27q0 -23 -11.5 -38.5t-30.5 -19.5q20 -5 33 -18.5t13 -39.5v-57q0 -15 -5 -29
t-18 -24.5t-34 -16.5t-54 -6h-236zM79 -30l723 774h83l-724 -774h-82zM668 -10q-33 0 -54 6t-34 16.5t-18 24.5t-5 29v57q0 26 13 39.5t33 18.5q-19 4 -30.5 19.5t-11.5 38.5v27q0 35 24.5 55.5t83.5 20.5h176q59 0 83.5 -20.5t24.5 -55.5v-27q0 -23 -11.5 -38.5
t-30.5 -19.5q20 -5 33 -18.5t13 -39.5v-57q0 -15 -5 -29t-18 -24.5t-34 -16.5t-54 -6h-178zM891 122q0 17 -12.5 23.5t-32.5 6.5h-178q-20 0 -32.5 -6.5t-12.5 -23.5v-44q0 -21 12.5 -28.5t32.5 -7.5h178q20 0 32.5 7.5t12.5 28.5v44zM886 262q0 15 -9 21.5t-32 6.5h-176
q-23 0 -32 -6.5t-9 -21.5v-30q0 -15 9 -21.5t32 -6.5h176q23 0 32 6.5t9 21.5v30z" />
    <glyph glyph-name="fiveeighths" unicode="&#x215d;" horiz-adv-x="1017" 
d="M60 0zM60 362v52h252q44 0 44 32v63q0 33 -44 33h-252v172h351v-52h-284v-68h185q60 0 85 -23.5t25 -61.5v-62q0 -38 -25 -61.5t-85 -23.5h-252zM89 -30l723 774h83l-724 -774h-82zM668 -10q-33 0 -54 6t-34 16.5t-18 24.5t-5 29v57q0 26 13 39.5t33 18.5
q-19 4 -30.5 19.5t-11.5 38.5v27q0 35 24.5 55.5t83.5 20.5h176q59 0 83.5 -20.5t24.5 -55.5v-27q0 -23 -11.5 -38.5t-30.5 -19.5q20 -5 33 -18.5t13 -39.5v-57q0 -15 -5 -29t-18 -24.5t-34 -16.5t-54 -6h-178zM891 122q0 17 -12.5 23.5t-32.5 6.5h-178q-20 0 -32.5 -6.5
t-12.5 -23.5v-44q0 -21 12.5 -28.5t32.5 -7.5h178q20 0 32.5 7.5t12.5 28.5v44zM886 262q0 15 -9 21.5t-32 6.5h-176q-23 0 -32 -6.5t-9 -21.5v-30q0 -15 9 -21.5t32 -6.5h176q23 0 32 6.5t9 21.5v30z" />
    <glyph glyph-name="seveneighths" unicode="&#x215e;" horiz-adv-x="1038" 
d="M60 0zM148 362l235 300h-319v52h394v-42l-234 -310h-76zM60 -30l723 774h83l-724 -774h-82zM689 -10q-33 0 -54 6t-34 16.5t-18 24.5t-5 29v57q0 26 13 39.5t33 18.5q-19 4 -30.5 19.5t-11.5 38.5v27q0 35 24.5 55.5t83.5 20.5h176q59 0 83.5 -20.5t24.5 -55.5v-27
q0 -23 -11.5 -38.5t-30.5 -19.5q20 -5 33 -18.5t13 -39.5v-57q0 -15 -5 -29t-18 -24.5t-34 -16.5t-54 -6h-178zM912 122q0 17 -12.5 23.5t-32.5 6.5h-178q-20 0 -32.5 -6.5t-12.5 -23.5v-44q0 -21 12.5 -28.5t32.5 -7.5h178q20 0 32.5 7.5t12.5 28.5v44zM907 262
q0 15 -9 21.5t-32 6.5h-176q-23 0 -32 -6.5t-9 -21.5v-30q0 -15 9 -21.5t32 -6.5h176q23 0 32 6.5t9 21.5v30z" />
    <glyph glyph-name="minus" unicode="&#x2212;" horiz-adv-x="543" 
d="M40 326v74h462v-74h-462z" />
    <glyph glyph-name="approxequal" unicode="&#x2248;" horiz-adv-x="543" 
d="M40 205zM502 228q-23 -13 -53 -18t-65 -5q-30 0 -57.5 5t-54.5 10.5t-55 10.5t-59 5q-36 0 -67.5 -8t-50.5 -19v62q23 12 53 17.5t65 5.5q31 0 58.5 -5t54.5 -11t55 -11t58 -5q36 0 67 8t51 19v-61zM502 467q-23 -13 -53 -18t-65 -5q-30 0 -57.5 5t-54.5 10.5t-55 10.5
t-59 5q-36 0 -67.5 -8t-50.5 -19v62q23 12 53 17.5t65 5.5q31 0 58.5 -5t54.5 -11t55 -11t58 -5q36 0 67 8t51 19v-61z" />
    <glyph glyph-name="notequal" unicode="&#x2260;" horiz-adv-x="537" 
d="M-135 -30l239 256h-64v74h133l118 126h-251v74h320l228 244h83l-229 -244h60v-74h-129l-118 -126h247v-74h-316l-239 -256h-82z" />
    <glyph glyph-name="lessequal" unicode="&#x2264;" horiz-adv-x="537" 
d="M63 331v66l410 236v-87l-323 -183l323 -184v-87zM40 0v74h462v-74h-462z" />
    <glyph glyph-name="greaterequal" unicode="&#x2265;" horiz-adv-x="537" 
d="M63 92v87l323 184l-323 183v87l410 -236v-66zM40 0v74h462v-74h-462z" />
    <glyph glyph-name="triangle" unicode="&#x25b3;" horiz-adv-x="779" 
d="M22 190l368 344l367 -344h-735z" />
    <glyph glyph-name=".ttfautohint" horiz-adv-x="500" 
d="M0 0z" />
    </font>
</defs>
</svg>
