<?xml version="1.0" standalone="no"?>
<!DOCTYPE svg PUBLIC "-//W3C//DTD SVG 1.1//EN" "http://www.w3.org/Graphics/SVG/1.1/DTD/svg11.dtd" >
<svg xmlns="http://www.w3.org/2000/svg" xmlns:xlink="http://www.w3.org/1999/xlink" version="1.1">
<metadata>
Created by FontForge 20170731 at Wed Sep 10 12:25:08 2014
 By Aleksey,,,
(c) 2014 Sergiy S. Tkachenko / 4th february
(c) 2014 IPHostMonitor.com
http://creativecommons.org/licenses/by-nd/4.0/
</metadata>
<defs>
<font id="Monitorica" horiz-adv-x="428" >
  <font-face 
    font-family="Monitorica"
    font-weight="300"
    font-stretch="normal"
    units-per-em="1000"
    panose-1="2 11 4 3 2 2 2 2 2 4"
    ascent="750"
    descent="-250"
    x-height="500"
    cap-height="700"
    bbox="-60 -250 820 929"
    underline-thickness="50"
    underline-position="-150"
    unicode-range="U+0021-F0434"
  />
<missing-glyph horiz-adv-x="200" 
 />
    <glyph glyph-name="fi" unicode="fi" horiz-adv-x="453" 
d="M110 495h164v-40h-144zM105 0h-45v575q0 34 10 63t29.5 50.5t49 34t68.5 12.5h67v-41h-67q-33 0 -54.5 -10t-34.5 -26.5t-18 -38t-5 -44.5v-575zM339 0h45v500h-45v-500zM339 680h45v-70h-45v70z" />
    <glyph glyph-name="fl" unicode="fl" horiz-adv-x="453" 
d="M110 495h164v-40h-144zM105 0h-45v575q0 34 10 63t29.5 50.5t49 34t68.5 12.5h67v-41h-67q-33 0 -54.5 -10t-34.5 -26.5t-18 -38t-5 -44.5v-575zM384 750v-750h-45v742z" />
    <glyph glyph-name=".notdef" horiz-adv-x="200" 
 />
    <glyph glyph-name=".null" horiz-adv-x="0" 
 />
    <glyph glyph-name="nonmarkingreturn" horiz-adv-x="200" 
 />
    <glyph glyph-name="space" unicode="&#xa0;" horiz-adv-x="200" 
 />
    <glyph glyph-name="space" unicode=" " horiz-adv-x="200" 
 />
    <glyph glyph-name="exclam" unicode="!" horiz-adv-x="196" 
d="M128 700l-15 -500h-30l-15 500h60zM123 95v-95h-50v95h50z" />
    <glyph glyph-name="quotedbl" unicode="&#x22;" horiz-adv-x="274" 
d="M117 700l-15 -200h-20l-15 200h50zM207 700l-15 -200h-20l-15 200h50z" />
    <glyph glyph-name="numbersign" unicode="#" horiz-adv-x="584" 
d="M323 0l29 207h-155l-29 -207h-45l29 207h-108l7 45h107l22 155h-108l7 45h108l29 208h45l-29 -208h155l29 208h45l-29 -208h107l-7 -45h-107l-22 -155h108l-7 -45h-107l-29 -207h-45zM380 407h-155l-22 -155h155z" />
    <glyph glyph-name="dollar" unicode="$" horiz-adv-x="443" 
d="M393 189q0 -78 -39.5 -121t-114.5 -48v-70h-40v70h-140v46h140v264q-28 9 -54.5 20.5t-47.5 31t-33.5 50t-12.5 77.5q0 78 37.5 121t110.5 49v71h40v-70h132v-46h-132v-264q30 -10 58 -22.5t49.5 -33t34 -50.5t12.5 -75zM343 187q0 33 -8.5 55t-23 36.5t-33 23.5
t-39.5 16v-252q104 9 104 121zM101 511q0 -32 7.5 -53.5t21 -36t31 -23.5t38.5 -16v251q-98 -11 -98 -122z" />
    <glyph glyph-name="percent" unicode="%" horiz-adv-x="572" 
d="M395 276q28 0 49.5 -11t35.5 -30t21.5 -44t7.5 -53v-10q0 -28 -7.5 -53t-22 -44t-35.5 -30t-49 -11t-49 11t-35.5 30t-22 44t-7.5 53v10q0 28 7.5 53t21.5 44t35.5 30t49.5 11zM177 424q-28 0 -49.5 11t-35.5 30t-21.5 44t-7.5 53v10q0 28 7.5 53t22 44t35.5 30t49 11
t49 -11t35.5 -30t22 -44t7.5 -53v-10q0 -28 -7.5 -53t-21.5 -44t-35.5 -30t-49.5 -11zM177 469q35 0 51 28t16 65v10q0 37 -16 65t-51 28t-51 -26.5t-16 -66.5v-10q0 -40 16 -66.5t51 -26.5zM395 231q-35 0 -51 -28t-16 -65v-10q0 -37 16 -65t51 -28t51 26.5t16 66.5v10
q0 40 -16 66.5t-51 26.5zM77 0l365 700h53l-365 -700h-53z" />
    <glyph glyph-name="ampersand" unicode="&#x26;" horiz-adv-x="561" 
d="M245 654q-40 0 -60 -22.5t-20 -56.5v-20q0 -30 7 -55.5t17 -46t21 -36.5t18 -28l131 -215l2 6q5 20 13 48.5t21.5 54.5t33 44.5t48.5 18.5h12v-46h-5q-17 0 -27.5 -7t-17.5 -21.5t-13.5 -37t-15.5 -54.5q-5 -16 -9.5 -30t-9.5 -28l1 -1q12 -24 26 -38.5t26.5 -22.5
t23 -11t16.5 -3h30v-46h-37q-32 0 -60 21.5t-49 48.5q-21 -38 -52.5 -59t-83.5 -21q-44 0 -75.5 12t-52 32t-30.5 46t-10 55v40q0 38 9.5 67t25.5 52.5t36.5 41.5t43.5 35q-23 33 -43.5 79.5t-20.5 105.5v20q0 52 32.5 88t97.5 36h126v-46h-126zM114 135q0 -15 5.5 -32
t18 -31.5t34.5 -24t55 -9.5q45 0 71.5 23.5t40.5 52.5l-6 11l-121 199q-2 2 -2.5 4t-2.5 4q-19 -15 -36 -31t-29.5 -35t-20 -41.5t-7.5 -49.5v-40z" />
    <glyph glyph-name="quotesingle" unicode="'" horiz-adv-x="184" 
d="M117 700l-15 -200h-20l-15 200h50z" />
    <glyph glyph-name="parenleft" unicode="(" horiz-adv-x="268" 
d="M64 570q0 36 11 69t32.5 57.5t53 39t73.5 14.5v-48q-35 0 -58 -11t-36.5 -29t-19.5 -42t-6 -50v-540q0 -26 6 -50t19.5 -42t36.5 -29t58 -11v-48q-42 0 -73.5 14.5t-53 39t-32.5 57.5t-11 69v540z" />
    <glyph glyph-name="parenright" unicode=")" horiz-adv-x="268" 
d="M204 30q0 -36 -11 -69t-32.5 -57.5t-53 -39t-73.5 -14.5v48q34 0 57.5 11t37 29t19.5 42t6 50v540q0 26 -6 50t-19.5 42t-37 29t-57.5 11v48q42 0 73.5 -14.5t53 -39t32.5 -57.5t11 -69v-540z" />
    <glyph glyph-name="asterisk" unicode="*" horiz-adv-x="423" 
d="M298 381l-87 116l-87 -116l-32 26l84 113l-133 44l14 39l132 -43v140h44v-140l133 43l14 -39l-135 -44l85 -113z" />
    <glyph glyph-name="plus" unicode="+" horiz-adv-x="588" 
d="M68 373h200v202h50v-202h200v-46h-200v-202h-50v202h-200v46z" />
    <glyph glyph-name="comma" unicode="," horiz-adv-x="207" 
d="M70 0v63h65v-63q0 -35 -15.5 -58.5t-45.5 -23.5h-4v29h4q17 0 22.5 16.5t5.5 36.5h-32z" />
    <glyph glyph-name="hyphen" unicode="-" horiz-adv-x="331" 
d="M73 229v43h185v-43h-185z" />
    <glyph glyph-name="period" unicode="." horiz-adv-x="207" 
d="M70 0v63h65v-63h-65z" />
    <glyph glyph-name="slash" unicode="/" horiz-adv-x="530" 
d="M456 750l-331 -900h-52l331 900h52z" />
    <glyph glyph-name="zero" unicode="0" horiz-adv-x="448" 
d="M63 550q0 31 10.5 59.5t30.5 49.5t50 33.5t69 12.5t69 -12.5t50 -33.5t30.5 -49.5t10.5 -59.5v-400q0 -32 -10.5 -60t-30.5 -49t-50 -33.5t-69 -12.5t-69 12.5t-50 33.5t-30.5 49t-10.5 60v400zM113 150q0 -22 7 -42t21 -35t34.5 -23.5t47.5 -8.5t47.5 8.5t34.5 23.5
t21 35t7 42v400q0 22 -7 42t-21 35t-34.5 23.5t-47.5 8.5t-47.5 -8.5t-34.5 -23.5t-21 -35t-7 -42v-400z" />
    <glyph glyph-name="one" unicode="1" horiz-adv-x="334" 
d="M162 0v662h-110v38h160v-700h-50z" />
    <glyph glyph-name="two" unicode="2" horiz-adv-x="434" 
d="M213 700q35 0 64 -8.5t49.5 -29t31.5 -54t11 -82.5q0 -42 -8 -74t-23 -60t-37.5 -53.5t-51.5 -54.5q-33 -33 -58.5 -61.5t-43 -56.5t-28 -57t-14.5 -63h274v-46h-325q0 54 9.5 94.5t30 76t51 70.5t72.5 77q27 27 46 50.5t31.5 47t18.5 50t6 59.5q0 39 -7.5 64t-21.5 39.5
t-33.5 20t-43.5 5.5h-150v46h150z" />
    <glyph glyph-name="three" unicode="3" horiz-adv-x="438" 
d="M226 46q51 0 78 30.5t27 73.5v65q0 19 -7 38.5t-22 36t-40 27t-61 10.5h-35l-20 46h55q33 0 56 10.5t37 27t20.5 36t6.5 38.5v65q0 43 -27 73.5t-78 30.5h-150v46h150q38 0 67 -12t48.5 -32.5t29.5 -47.5t10 -58v-65q0 -45 -24 -82.5t-81 -52.5q63 -14 89 -51.5t26 -83.5
v-65q0 -31 -10 -58t-29.5 -47.5t-48.5 -32.5t-67 -12h-150v46h150z" />
    <glyph glyph-name="four" unicode="4" horiz-adv-x="449" 
d="M292 202h-267v46l147 452h49l-147 -452h198zM295 0v488l50 9v-249h79v-46h-79v-202h-50z" />
    <glyph glyph-name="five" unicode="5" 
d="M326 280q0 39 -24.5 66.5t-84.5 27.5h-77l-20 46h101q42 0 71 -11t48 -30t27.5 -44.5t8.5 -54.5v-130q0 -30 -10.5 -57t-30.5 -48t-50.5 -33t-69.5 -12h-150v46h150q27 0 47.5 8.5t35 23t21.5 33t7 39.5v130zM65 374v326h291v-46h-241v-280h-50z" />
    <glyph glyph-name="six" unicode="6" horiz-adv-x="433" 
d="M221 420q42 0 71 -11t48 -30t27.5 -44.5t8.5 -54.5v-135q0 -31 -10.5 -58t-30.5 -47.5t-50 -32.5t-69 -12t-69 12t-50 32.5t-30.5 47.5t-10.5 58v405q0 30 10.5 57.5t30.5 48t50 32.5t69 12h140v-46h-140q-54 0 -82 -31t-28 -73v-405q0 -43 28 -73.5t82 -30.5t82 30.5
t28 73.5v135q0 39 -24.5 66.5t-84.5 27.5h-86l-20 46h110z" />
    <glyph glyph-name="seven" unicode="7" horiz-adv-x="405" 
d="M47 700h310v-46q-91 -152 -131.5 -313.5t-40.5 -340.5h-50q0 179 39.5 340.5t127.5 313.5h-255v46z" />
    <glyph glyph-name="eight" unicode="8" horiz-adv-x="432" 
d="M49 225q0 38 19.5 74t69.5 53q-43 17 -61 50t-18 73v85q0 28 10 54.5t30 46.5t49.5 32t67.5 12t67.5 -12t49.5 -32t30 -46.5t10 -54.5v-85q0 -40 -19 -73.5t-63 -50.5q50 -17 71 -52.5t21 -73.5v-85q0 -30 -11 -56t-32 -46t-52.5 -31.5t-71.5 -11.5q-41 0 -72 11.5
t-52 31.5t-32 46t-11 56v85zM99 140q0 -20 5.5 -37.5t19 -31.5t36 -22t56.5 -8t56.5 8t36 22t19 31.5t5.5 37.5v85q0 19 -6.5 37.5t-20.5 33t-36 23.5t-54 9q-34 0 -56.5 -9t-36 -23.5t-19 -33t-5.5 -37.5v-85zM323 560q0 39 -27.5 69t-79.5 30t-79.5 -30t-27.5 -69v-85
q0 -20 5.5 -38t18.5 -32t33.5 -22.5t49.5 -8.5t49.5 8.5t33 22.5t18.5 32t6 38v85z" />
    <glyph glyph-name="nine" unicode="9" horiz-adv-x="433" 
d="M211 275q-42 0 -71 11t-48 30t-27.5 44.5t-8.5 54.5v135q0 31 10.5 58t30.5 47.5t50 32.5t69 12t69 -12t50 -32.5t30.5 -47.5t10.5 -58v-405q0 -30 -10.5 -57.5t-30.5 -48t-50 -32.5t-69 -12h-140v46h140q54 0 82 31t28 73v405q0 43 -28 73.5t-82 30.5t-82 -30.5
t-28 -73.5v-135q0 -39 24.5 -66.5t84.5 -27.5h86l20 -46h-110z" />
    <glyph glyph-name="colon" unicode=":" horiz-adv-x="207" 
d="M70 0v63h65v-63h-65zM70 300v63h65v-63h-65z" />
    <glyph glyph-name="semicolon" unicode=";" horiz-adv-x="207" 
d="M70 0v63h65v-63q0 -35 -15.5 -58.5t-45.5 -23.5h-4v29h4q17 0 22.5 16.5t5.5 36.5h-32zM70 300v63h65v-63h-65z" />
    <glyph glyph-name="less" unicode="&#x3c;" horiz-adv-x="499" 
d="M67 367l366 174v-50l-100 -47q-57 -27 -116 -48.5t-118 -44.5v-2q59 -23 118 -44t116 -48l100 -47v-50l-366 172v35z" />
    <glyph glyph-name="equal" unicode="=" horiz-adv-x="495" 
d="M102 291h290v-42h-290v42zM102 451h290v-42h-290v42z" />
    <glyph glyph-name="greater" unicode="&#x3e;" horiz-adv-x="501" 
d="M433 332l-366 -172v50l100 47q57 27 116 48t118 44v2q-59 23 -118 44.5t-116 48.5l-100 47v50l366 -174v-35z" />
    <glyph glyph-name="question" unicode="?" horiz-adv-x="434" 
d="M320 530q0 36 -7 59.5t-20.5 37.5t-33 19.5t-44.5 5.5h-160v48h161q36 0 65 -9t48.5 -29.5t30 -54t10.5 -82.5q0 -32 -7 -54t-20.5 -41.5t-32.5 -40t-43 -48.5q-16 -23 -25.5 -40.5t-14 -33t-5.5 -31t-1 -36.5h-50q0 26 1.5 45t6.5 36.5t16 37t30 47.5q20 23 37.5 41
t30 36t20 38.5t7.5 48.5zM171 95v-95h50v95h-50z" />
    <glyph glyph-name="at" unicode="@" horiz-adv-x="788" 
d="M394 -175q-157 0 -238.5 84.5t-81.5 250.5v180q0 166 81.5 250.5t238.5 84.5t238.5 -84.5t81.5 -250.5v-150q0 -34 -6 -63t-19.5 -50.5t-35 -34t-53.5 -12.5q-35 0 -59 16t-36 42q-15 -26 -42.5 -42t-68.5 -16q-67 0 -102 38t-35 92v180q0 27 9 50.5t26 41t43 28t59 10.5
q38 0 65 -14.5t42 -39.5l13 44h23v-310q0 -32 13.5 -54.5t51.5 -22.5q22 0 35.5 9.5t20.5 25.5t9 37.5t2 44.5v150q0 149 -70 220.5t-205 71.5t-205 -71.5t-70 -220.5v-180q0 -149 70 -220.5t205 -71.5v-43zM492 340q0 8 -1 15t-3 14q-7 25 -28.5 41.5t-63.5 16.5
q-27 0 -45 -7t-29 -19t-15.5 -27.5t-4.5 -33.5v-180q0 -18 4.5 -33.5t15.5 -27.5t29 -19t45 -7t45.5 7t29.5 19t16 27.5t5 33.5v180z" />
    <glyph glyph-name="A" unicode="A" horiz-adv-x="491" 
d="M360 186h-193l-20 46h200l-69 255q-11 42 -17.5 84t-14.5 84h-2q-8 -42 -14.5 -84t-17.5 -84l-133 -487h-51l192 700h50l192 -700h-51z" />
    <glyph glyph-name="B" unicode="B" horiz-adv-x="464" 
d="M213 373q63 0 96.5 33t33.5 79v55q0 23 -8 44t-23 36.5t-37.5 24.5t-51.5 9h-150v46h150q41 0 73 -13t53.5 -34.5t32.5 -50.5t11 -62v-55q0 -46 -27 -81.5t-80 -52.5q57 -14 87 -51t30 -85v-55q0 -33 -11 -62t-32.5 -50.5t-53.5 -34.5t-73 -13h-85l-20 46h105
q29 0 51.5 9t37.5 24.5t23 36.5t8 44v55q0 46 -33.5 79t-96.5 33h-50l-20 46h60zM73 629l50 20v-649h-50v629z" />
    <glyph glyph-name="C" unicode="C" horiz-adv-x="414" 
d="M64 496l50 20v-337q0 -68 30.5 -100.5t89.5 -32.5h150v-46h-151q-83 0 -126 46.5t-43 132.5v317zM64 521q0 86 43 132.5t126 46.5h151v-46h-150q-59 0 -89.5 -32.5t-30.5 -100.5h-50z" />
    <glyph glyph-name="D" unicode="D" horiz-adv-x="473" 
d="M128 46h110q29 0 51.5 10t37.5 27t23 39.5t8 47.5v360q0 25 -8 47.5t-23 39.5t-37.5 27t-51.5 10h-115v-654h-50v700h165q41 0 73 -13.5t53.5 -37t32.5 -54.5t11 -65v-360q0 -35 -11 -65.5t-32.5 -54t-53.5 -37t-73 -13.5h-90z" />
    <glyph glyph-name="E" unicode="E" horiz-adv-x="432" 
d="M128 373h205v-46h-185zM242 0q-83 0 -126 46.5t-43 132.5v521h310v-46h-260v-475q0 -133 120 -133h140v-46h-141z" />
    <glyph glyph-name="F" unicode="F" horiz-adv-x="424" 
d="M123 0h-50v700h310v-46h-260v-654zM128 373h205v-46h-185z" />
    <glyph glyph-name="G" unicode="G" horiz-adv-x="455" 
d="M114 179q0 -68 30.5 -100.5t89.5 -32.5h105l20 -46h-126q-83 0 -126 46.5t-43 132.5v342q0 86 43 132.5t126 46.5h151v-46h-150q-59 0 -89.5 -32.5t-30.5 -100.5v-342zM414 0h-50v327h-105l-20 46h175v-373z" />
    <glyph glyph-name="H" unicode="H" horiz-adv-x="496" 
d="M128 374h245v326h50v-700h-50v326h-225zM123 0h-50v700h50v-700z" />
    <glyph glyph-name="I" unicode="I" horiz-adv-x="196" 
d="M123 700v-700h-50v700h50z" />
    <glyph glyph-name="J" unicode="J" horiz-adv-x="308" 
d="M194 700h50v-521q0 -86 -43 -132.5t-126 -46.5h-51v46h50q59 0 89.5 32.5t30.5 100.5v521z" />
    <glyph glyph-name="K" unicode="K" horiz-adv-x="457" 
d="M128 373h45l193 327h54l-201 -341l211 -359h-54l-193 327h-35zM123 700v-700h-50v700h50z" />
    <glyph glyph-name="L" unicode="L" horiz-adv-x="404" 
d="M123 700v-654h260v-46h-310v700h50z" />
    <glyph glyph-name="M" unicode="M" horiz-adv-x="587" 
d="M433 700h80v-700h-50v379q0 69 1.5 138t3.5 138h-2q-11 -47 -22 -93t-24 -93l-102 -371h-50l-102 371q-13 47 -24 93t-22 93h-2q2 -69 3.5 -138t1.5 -138v-379h-50v700h80l93 -336q14 -50 24.5 -100t21.5 -101h2q11 51 21.5 101t24.5 100z" />
    <glyph glyph-name="N" unicode="N" horiz-adv-x="507" 
d="M181 469l-66 186h-2q2 -69 6 -138t4 -138v-379h-50v700h70l182 -469l66 -186h2q-2 69 -6 138t-4 138v379h50v-700h-70z" />
    <glyph glyph-name="O" unicode="O" horiz-adv-x="498" 
d="M434 516v-337q0 -88 -43 -136t-126 -48h-32q-83 0 -126 48t-43 136v342q0 88 43 136t126 48h32q82 0 125.5 -48t43.5 -136h-50q0 70 -30.5 104t-89.5 34h-30q-59 0 -89.5 -34t-30.5 -104v-342q0 -70 30.5 -104t89.5 -34h30q58 0 89 34t31 104v317z" />
    <glyph glyph-name="P" unicode="P" horiz-adv-x="438" 
d="M128 311h95q29 0 51.5 10t37.5 27t23 39.5t8 47.5v95q0 25 -8 47.5t-23 39.5t-37.5 27t-51.5 10h-100v-654h-50v700h150q41 0 73 -13.5t53.5 -37t32.5 -54.5t11 -65v-95q0 -35 -11 -65.5t-32.5 -54t-53.5 -37t-73 -13.5h-75z" />
    <glyph glyph-name="Q" unicode="Q" horiz-adv-x="498" 
d="M224 -150v145q-78 3 -119 50.5t-41 133.5v342q0 88 43 136t126 48h32q82 0 125.5 -48t43.5 -136v-342q0 -86 -41 -133.5t-119 -50.5v-145h-50zM234 659q-59 0 -89.5 -34t-30.5 -104v-342q0 -132 110 -138v118l50 20v-138q54 3 82 37t28 101v342q0 70 -30.5 104t-89.5 34
h-30z" />
    <glyph glyph-name="R" unicode="R" horiz-adv-x="446" 
d="M133 311h90q29 0 51.5 10t37.5 27t23 39.5t8 47.5v95q0 25 -8 47.5t-23 39.5t-37.5 27t-51.5 10h-150v46h150q41 0 73 -13.5t53.5 -37t32.5 -54.5t11 -65v-95q0 -54 -25.5 -96.5t-75.5 -61.5l103 -277h-53l-103 265h-86zM73 628l50 20v-648h-50v628z" />
    <glyph glyph-name="S" unicode="S" horiz-adv-x="443" 
d="M393 179q0 -86 -43.5 -132.5t-127.5 -46.5h-163v46h163q121 0 121 131q0 43 -12 68.5t-31.5 41.5t-44 24.5t-49.5 16.5q-27 9 -53.5 20t-47.5 29.5t-35.5 46.5t-17.5 72l49 20q1 -40 12 -64.5t29.5 -39.5t42.5 -23.5t51 -17.5q31 -10 59 -23.5t50 -35t35 -53.5t13 -80z
M220 700h151v-46h-150q-59 0 -89.5 -32.5t-30.5 -100.5h-50q0 86 43 132.5t126 46.5z" />
    <glyph glyph-name="T" unicode="T" horiz-adv-x="398" 
d="M224 651v-651h-50v631zM29 654v46h340v-46h-340z" />
    <glyph glyph-name="U" unicode="U" horiz-adv-x="479" 
d="M414 150q0 -32 -11.5 -60t-33.5 -49t-54.5 -33.5t-75.5 -12.5t-75.5 12.5t-54.5 33.5t-33.5 49t-11.5 60v550h50v-550q0 -22 8 -42t24 -35t39.5 -23.5t53.5 -8.5t53.5 8.5t39.5 23.5t24 35t8 42v550h50v-550z" />
    <glyph glyph-name="V" unicode="V" horiz-adv-x="493" 
d="M412 700h51l-192 -700h-50l-192 700h51l133 -487q11 -42 17.5 -84t14.5 -84h2q8 42 14.5 84t17.5 84z" />
    <glyph glyph-name="W" unicode="W" horiz-adv-x="710" 
d="M229 0h-50l-150 700h49l94 -438q11 -48 17 -96.5t14 -96.5h2q8 48 14 96.5t17 96.5l94 438h50l94 -438q11 -48 17 -96.5t14 -96.5h2q8 48 14 96.5t17 96.5l94 438h49l-150 -700h-50l-94 439q-11 48 -17 96.5t-14 96.5h-2q-8 -48 -14 -96.5t-17 -96.5z" />
    <glyph glyph-name="X" unicode="X" horiz-adv-x="460" 
d="M79 0h-50l175 360l-165 340h50l77 -157q17 -35 31.5 -71.5t30.5 -72.5h2q16 36 31 72.5t32 71.5l77 157h50l-166 -340l176 -360h-50l-78 159q-20 41 -37 82t-35 83h-2q-18 -42 -35 -83t-37 -82z" />
    <glyph glyph-name="Y" unicode="Y" horiz-adv-x="449" 
d="M368 700h52l-171 -425v-275h-50v275l-170 425h53l102 -257q12 -29 20.5 -59.5t18.5 -60.5h2q10 30 18.5 60.5t20.5 59.5z" />
    <glyph glyph-name="Z" unicode="Z" horiz-adv-x="385" 
d="M86 46h266v-46h-320v39l266 615h-266v46h320v-39z" />
    <glyph glyph-name="bracketleft" unicode="[" horiz-adv-x="337" 
d="M263 -204v-46h-190v1000h190v-46h-140v-908h140z" />
    <glyph glyph-name="backslash" unicode="\" horiz-adv-x="533" 
d="M127 750l331 -900h-52l-331 900h52z" />
    <glyph glyph-name="bracketright" unicode="]" horiz-adv-x="337" 
d="M213 -204v908h-140v46h190v-1000h-190v46h140z" />
    <glyph glyph-name="asciicircum" unicode="^" horiz-adv-x="467" 
d="M252 750l172 -366h-50l-47 100q-9 18 -22 48.5t-26 63.5t-25 63.5t-19 48.5h-2q-7 -18 -19 -48.5t-25.5 -63.5t-26.5 -63.5t-22 -48.5l-47 -100h-50l174 366h35z" />
    <glyph glyph-name="underscore" unicode="_" horiz-adv-x="519" 
d="M4 -165v40h510v-40h-510z" />
    <glyph glyph-name="grave" unicode="`" horiz-adv-x="246" 
d="M43 700h70l90 -135h-40z" />
    <glyph glyph-name="a" unicode="a" horiz-adv-x="420" 
d="M85 500h128q35 0 62.5 -11t46 -30t28.5 -44.5t10 -54.5v-360h-23l-18 61q-17 -30 -47.5 -48t-77.5 -18q-42 0 -69.5 10t-44 27.5t-23.5 42.5t-7 55q0 36 12 61.5t32.5 43t47.5 28t58 15.5l94 16l18 -41l-105 -19q-22 -4 -42.5 -11t-36 -19.5t-24.5 -30.5t-9 -44
q0 -20 3.5 -36t14.5 -28t31.5 -18.5t53.5 -6.5q60 0 88.5 32t28.5 78v210q0 40 -26.5 68.5t-75.5 28.5h-128v43z" />
    <glyph glyph-name="b" unicode="b" horiz-adv-x="451" 
d="M114 750v-707h118q56 0 84 34.5t28 82.5v180q0 48 -28 82.5t-84 34.5h-93l-20 43h113q39 0 68.5 -13t49 -34.5t29.5 -50.5t10 -62v-180q0 -33 -10 -62t-29.5 -50.5t-49 -34.5t-68.5 -13h-163v742z" />
    <glyph glyph-name="c" unicode="c" horiz-adv-x="355" 
d="M325 43v-43h-108q-39 0 -68.5 12t-49 32.5t-29.5 47.5t-10 58v185l45 20v-205q0 -45 28 -76t84 -31h108zM217 457q-51 0 -79 -26.5t-33 -65.5h-45q2 28 13 52.5t31 43t48 29t65 10.5h108v-43h-108z" />
    <glyph glyph-name="d" unicode="d" horiz-adv-x="449" 
d="M380 750v-750h-163q-39 0 -68.5 13t-49 34.5t-29.5 50.5t-10 62v180q0 33 10 62t29.5 50.5t49 34.5t68.5 13h93l20 -43h-113q-56 0 -84 -34.5t-28 -82.5v-180q0 -48 28 -82.5t84 -34.5h118v699z" />
    <glyph glyph-name="e" unicode="e" 
d="M217 0q-39 0 -68.5 11t-49 30t-29.5 44.5t-10 54.5v230q0 28 10 52.5t29.5 43t49 29t68.5 10.5q37 0 65.5 -10t48 -27t29.5 -40t10 -48v-144h-240l-20 43h215v101q0 34 -27.5 58t-80.5 24q-56 0 -84 -27t-28 -65v-230q0 -41 28 -69t84 -28h138v-43h-138z" />
    <glyph glyph-name="f" unicode="f" horiz-adv-x="314" 
d="M110 495h164v-40h-144zM105 0h-45v575q0 34 10 63t29.5 50.5t49 34t68.5 12.5h67v-41h-67q-33 0 -54.5 -10t-34.5 -26.5t-18 -38t-5 -44.5v-575z" />
    <glyph glyph-name="g" unicode="g" horiz-adv-x="450" 
d="M335 500h45v-610q0 -29 -10 -54.5t-29.5 -44.5t-49 -30t-68.5 -11h-138v43h138q56 0 84 28t28 69v110h-118q-39 0 -68.5 13t-49 34.5t-29.5 50.5t-10 62v180q0 33 10 62t29.5 50.5t49 34.5t68.5 13h93l20 -43h-113q-56 0 -84 -34.5t-28 -82.5v-180q0 -48 28 -82.5
t84 -34.5h118v457z" />
    <glyph glyph-name="h" unicode="h" horiz-adv-x="451" 
d="M114 750v-750h-45v742zM235 500q34 0 61 -10.5t45.5 -28t28 -41t9.5 -50.5v-370h-45v370q0 18 -5.5 33.5t-18 27.5t-33 19t-50.5 7h-88l-20 43h116z" />
    <glyph glyph-name="i" unicode="i" horiz-adv-x="183" 
d="M69 0h45v500h-45v-500zM69 680h45v-70h-45v70z" />
    <glyph glyph-name="j" unicode="j" horiz-adv-x="173" 
d="M64 -250v750h45v-730zM64 680h45v-70h-45v70z" />
    <glyph glyph-name="k" unicode="k" horiz-adv-x="409" 
d="M114 750v-750h-45v742zM200 256l168 -256h-52l-154 236h-22l-20 43h43l153 221h52z" />
    <glyph glyph-name="l" unicode="l" horiz-adv-x="183" 
d="M114 750v-750h-45v742z" />
    <glyph glyph-name="m" unicode="m" horiz-adv-x="661" 
d="M69 500h381q34 0 61 -11t45.5 -30.5t28 -45t9.5 -53.5v-360h-45v360q0 19 -5.5 37t-18 31t-33 21t-50.5 8h-373v43zM354 454v-454h-45v434zM69 434l45 20v-454h-45v434z" />
    <glyph glyph-name="n" unicode="n" horiz-adv-x="446" 
d="M69 500h166q34 0 61 -10.5t45.5 -28t28 -41t9.5 -50.5v-370h-45v370q0 18 -5.5 33.5t-18 27.5t-33 19t-50.5 7h-158v43zM69 434l45 20v-454h-45v434z" />
    <glyph glyph-name="o" unicode="o" horiz-adv-x="441" 
d="M335 335l45 20v-220q0 -29 -10.5 -54t-30.5 -44.5t-50 -30.5t-69 -11t-69 11t-50 30.5t-30.5 44.5t-10.5 54v230q0 28 10.5 53.5t30.5 45t50 30.5t69 11t69 -11t50 -30.5t30.5 -45t10.5 -53.5h-45q0 40 -29 68.5t-86 28.5t-86 -28.5t-29 -68.5v-230q0 -40 29 -68.5
t86 -28.5t86 28.5t29 68.5v200z" />
    <glyph glyph-name="p" unicode="p" horiz-adv-x="450" 
d="M232 43q56 0 84 28.5t28 68.5v220q0 40 -28 68.5t-84 28.5h-118v-707h-45v750h163q39 0 68.5 -11t49 -30t29.5 -44.5t10 -54.5v-220q0 -29 -10 -54.5t-29.5 -44.5t-49 -30t-68.5 -11h-93l-20 43h113z" />
    <glyph glyph-name="q" unicode="q" horiz-adv-x="450" 
d="M335 500h45v-750h-45v250h-118q-39 0 -68.5 11t-49 30t-29.5 44.5t-10 54.5v220q0 29 10 54.5t29.5 44.5t49 30t68.5 11h93l20 -43h-113q-56 0 -84 -28.5t-28 -68.5v-220q0 -40 28 -68.5t84 -28.5h118v457z" />
    <glyph glyph-name="r" unicode="r" horiz-adv-x="266" 
d="M69 350q0 31 10 58t29.5 47.5t49 32.5t68.5 12h25v-43h-25q-56 0 -84 -31t-28 -76v-350h-45v350z" />
    <glyph glyph-name="s" unicode="s" horiz-adv-x="400" 
d="M94 356q4 -20 14 -32.5t24.5 -21.5t32 -15t35.5 -11q39 -11 68 -22t48.5 -26.5t29 -38.5t9.5 -57q0 -63 -40.5 -97.5t-111.5 -34.5h-156v43h156q50 0 78.5 23t28.5 63q0 24 -8 40.5t-23 27.5t-37.5 19t-52.5 16q-19 5 -40.5 11.5t-41 17.5t-35 29t-21.5 47zM92 365h-45v8
q0 57 39.5 92t111.5 35h127v-43h-127q-51 0 -78.5 -23.5t-27.5 -58.5v-10z" />
    <glyph glyph-name="t" unicode="t" horiz-adv-x="314" 
d="M105 180q0 -26 5 -51t18 -44t34.5 -30.5t54.5 -11.5h67v-43h-67q-39 0 -68.5 14t-49 38t-29.5 57t-10 71v430h45v-430zM107 495h167v-40h-147z" />
    <glyph glyph-name="u" unicode="u" horiz-adv-x="445" 
d="M374 500v-365q0 -29 -10 -54t-29.5 -44.5t-48 -30.5t-66.5 -11t-66.5 11t-48 30.5t-29.5 44.5t-10 54v365h45v-365q0 -40 27.5 -68.5t81.5 -28.5t81.5 28.5t27.5 68.5v365h45z" />
    <glyph glyph-name="v" unicode="v" horiz-adv-x="407" 
d="M336 500h45l-156 -500h-44l-156 500h45l90 -289q13 -40 22 -81t20 -82h2q11 41 20 82t22 81z" />
    <glyph glyph-name="w" unicode="w" horiz-adv-x="580" 
d="M551 500l-120 -500h-44l-76 317q-8 30 -11.5 61t-8.5 62h-2q-5 -31 -8.5 -62t-11.5 -61l-76 -317h-44l-120 500h45l75 -317q8 -30 12 -61t9 -62h2q5 31 9 62t12 61l75 317h44l75 -317q8 -30 12 -61t9 -62h2q5 31 9 62t12 61l75 317h45z" />
    <glyph glyph-name="x" unicode="x" horiz-adv-x="396" 
d="M69 0h-53l155 263l-138 237h51l82 -138q9 -16 16 -32t15 -33q8 17 15 33t17 32l82 138h51l-139 -237l156 -263h-53l-83 141q-13 22 -24 44.5t-22 45.5q-11 -23 -22 -45.5t-24 -44.5z" />
    <glyph glyph-name="y" unicode="y" horiz-adv-x="415" 
d="M160 178q14 -47 23.5 -93.5t20.5 -94.5h2q11 48 20.5 94.5t22.5 93.5l88 322h44l-205 -750h-44l51 185l-162 565h46z" />
    <glyph glyph-name="z" unicode="z" horiz-adv-x="365" 
d="M89 43h238v-43h-290v36l238 421h-238v43h290v-36z" />
    <glyph glyph-name="braceleft" unicode="{" horiz-adv-x="353" 
d="M54 378q25 0 42.5 8t28 22t15 32t4.5 38v112q0 34 8 63t26 50.5t47 34t71 12.5h8v-50h-8q-28 0 -47.5 -8.5t-31.5 -23.5t-17.5 -35t-5.5 -43v-112q0 -44 -21 -78.5t-72 -46.5q51 -12 72 -47t21 -78v-112q0 -23 5.5 -43t17.5 -35t31.5 -23.5t47.5 -8.5h8v-50h-8
q-42 0 -71 12.5t-47 34t-26 50.5t-8 63v112q0 20 -4.5 38t-15 32t-28 22t-42.5 8h-5v50h5z" />
    <glyph glyph-name="bar" unicode="|" horiz-adv-x="188" 
d="M75 -250v1000h38v-1000h-38z" />
    <glyph glyph-name="braceright" unicode="}" horiz-adv-x="353" 
d="M304 378v-50h-5q-25 0 -42.5 -8t-28 -22t-15 -32t-4.5 -38v-112q0 -34 -8 -63t-26 -50.5t-47 -34t-71 -12.5h-8v50h8q55 0 78.5 31.5t23.5 78.5v112q0 43 20.5 78t71.5 47q-50 12 -71 46.5t-21 78.5v112q0 23 -5.5 43t-17.5 35t-31.5 23.5t-47.5 8.5h-8v50h8
q42 0 71 -12.5t47 -34t26 -50.5t8 -63v-112q0 -20 4.5 -38t15 -32t28 -22t42.5 -8h5z" />
    <glyph glyph-name="exclamdown" unicode="&#xa1;" horiz-adv-x="196" 
d="M68 -200l15 500h30l15 -500h-60zM73 405v95h50v-95h-50z" />
    <glyph glyph-name="dieresis" unicode="&#xa8;" horiz-adv-x="265" 
d="M35 655h45v-90h-45v90zM185 655h45v-90h-45v90z" />
    <glyph glyph-name="copyright" unicode="&#xa9;" horiz-adv-x="578" 
d="M64 480q0 46 14.5 88t43 73.5t70.5 50t97 18.5t97 -18.5t70.5 -50t43 -73.5t14.5 -88v-260q0 -47 -14.5 -88.5t-43 -73t-70.5 -50t-97 -18.5t-97 18.5t-70.5 50t-43 73t-14.5 88.5v260zM174 413q0 29 7.5 54.5t22 45t36.5 31t51 11.5q27 0 48.5 -10t35.5 -27t21.5 -40
t7.5 -49h-37q0 39 -17.5 65t-58.5 26q-23 0 -38.5 -9t-24.5 -23.5t-13 -34t-4 -40.5v-132q0 -21 4 -40.5t13 -34t24.5 -23.5t38.5 -9q41 0 58.5 26t17.5 65h37q0 -26 -7.5 -49t-21.5 -40t-35.5 -27t-48.5 -10q-29 0 -51 11.5t-36.5 31t-22 45t-7.5 54.5v132zM104 220
q0 -39 12 -73.5t35.5 -61t58 -42t79.5 -15.5t79.5 15.5t58 42t35.5 61t12 73.5v260q0 39 -12 73.5t-35.5 61t-58 42t-79.5 15.5t-79.5 -15.5t-58 -42t-35.5 -61t-12 -73.5v-260z" />
    <glyph glyph-name="guillemotleft" unicode="&#xab;" horiz-adv-x="440" 
d="M50 272l158 228h52l-168 -244l168 -256h-52l-158 243v29zM180 272l158 228h52l-168 -244l168 -256h-52l-158 243v29z" />
    <glyph glyph-name="registered" unicode="&#xae;" horiz-adv-x="578" 
d="M64 480q0 46 14.5 88t43 73.5t70.5 50t97 18.5t97 -18.5t70.5 -50t43 -73.5t14.5 -88v-260q0 -47 -14.5 -88.5t-43 -73t-70.5 -50t-97 -18.5t-97 18.5t-70.5 50t-43 73t-14.5 88.5v260zM104 220q0 -39 12 -73.5t35.5 -61t58 -42t79.5 -15.5t79.5 15.5t58 42t35.5 61
t12 73.5v260q0 39 -12 73.5t-35.5 61t-58 42t-79.5 15.5t-79.5 -15.5t-58 -42t-35.5 -61t-12 -73.5v-260zM219 150h-37v400h116q54 0 86 -34t32 -92q0 -55 -21 -84.5t-56 -40.5l86 -149h-39l-84 144h-83v-144zM219 334h79q37 0 59 24t22 66t-22 66t-59 24h-79v-180z" />
    <glyph glyph-name="macron" unicode="&#xaf;" horiz-adv-x="415" 
d="M55 631h305v-42h-305v42z" />
    <glyph glyph-name="degree" unicode="&#xb0;" horiz-adv-x="356" 
d="M178 464q-56 0 -85 35t-29 83v10q0 48 29 83t85 35t85 -35t29 -83v-10q0 -48 -29 -83t-85 -35zM178 509q35 0 51 22t16 51v10q0 29 -16 51t-51 22t-51 -21t-16 -52v-10q0 -31 16 -52t51 -21z" />
    <glyph glyph-name="plusminus" unicode="&#xb1;" horiz-adv-x="588" 
d="M68 419h200v202h50v-202h200v-46h-200v-202h-50v202h-200v46zM68 46h450v-46h-450v46z" />
    <glyph glyph-name="acute" unicode="&#xb4;" horiz-adv-x="246" 
d="M83 565h-40l90 135h70z" />
    <glyph glyph-name="periodcentered" unicode="&#xb7;" horiz-adv-x="191" 
d="M73 229v43h45v-43h-45z" />
    <glyph glyph-name="cedilla" unicode="&#xb8;" horiz-adv-x="281" 
d="M126 16q8 -1 15.5 -1.5t15.5 -0.5l-19 -61q23 -1 38.5 -8.5t24.5 -17.5t12.5 -21.5t3.5 -21.5q0 -11 -4.5 -23t-14 -21.5t-24.5 -16t-36 -6.5q-10 0 -31.5 1.5t-42.5 12.5l10 27q17 -7 32.5 -9t26.5 -2q16 0 29.5 8.5t13.5 28.5q0 18 -15 28.5t-38 10.5h-6l-16 13z" />
    <glyph glyph-name="guillemotright" unicode="&#xbb;" horiz-adv-x="440" 
d="M390 243l-158 -243h-52l168 256l-168 244h52l158 -228v-29zM260 243l-158 -243h-52l168 256l-168 244h52l158 -228v-29z" />
    <glyph glyph-name="questiondown" unicode="&#xbf;" horiz-adv-x="434" 
d="M110 -29q0 -71 27.5 -96.5t77.5 -25.5h160v-48h-161q-36 0 -65 9t-48.5 29.5t-30 54t-10.5 82.5q0 32 7 54t20.5 41.5t32.5 39.5t43 49q16 23 25.5 40.5t14 33t5.5 31t1 36.5h50q0 -26 -1.5 -45t-6.5 -36.5t-16 -37t-30 -47.5q-20 -23 -37.5 -41t-30.5 -36t-20 -38.5
t-7 -48.5zM209 406v95h50v-95h-50z" />
    <glyph glyph-name="Agrave" unicode="&#xc0;" horiz-adv-x="491" 
d="M360 186h-193l-20 46h200l-69 255q-11 42 -17.5 84t-14.5 84h-2q-8 -42 -14.5 -84t-17.5 -84l-133 -487h-51l192 700h50l192 -700h-51zM125 900h70l90 -135h-40z" />
    <glyph glyph-name="Aacute" unicode="&#xc1;" horiz-adv-x="491" 
d="M360 186h-193l-20 46h200l-69 255q-11 42 -17.5 84t-14.5 84h-2q-8 -42 -14.5 -84t-17.5 -84l-133 -487h-51l192 700h50l192 -700h-51zM245 765h-40l90 135h70z" />
    <glyph glyph-name="Acircumflex" unicode="&#xc2;" horiz-adv-x="491" 
d="M360 186h-193l-20 46h200l-69 255q-11 42 -17.5 84t-14.5 84h-2q-8 -42 -14.5 -84t-17.5 -84l-133 -487h-51l192 700h50l192 -700h-51zM374 765h-50l-78 89l-79 -89h-50l109 135h40z" />
    <glyph glyph-name="Atilde" unicode="&#xc3;" horiz-adv-x="491" 
d="M360 186h-193l-20 46h200l-69 255q-11 42 -17.5 84t-14.5 84h-2q-8 -42 -14.5 -84t-17.5 -84l-133 -487h-51l192 700h50l192 -700h-51zM312 799q24 0 59 33l24 -22q-49 -44 -81 -44q-24 0 -73 25q-47 25 -61 25q-28 0 -63 -31l-22 22q44 43 84 43q26 0 70 -26
q23 -14 38.5 -19.5t24.5 -5.5z" />
    <glyph glyph-name="Adieresis" unicode="&#xc4;" horiz-adv-x="491" 
d="M360 186h-193l-20 46h200l-69 255q-11 42 -17.5 84t-14.5 84h-2q-8 -42 -14.5 -84t-17.5 -84l-133 -487h-51l192 700h50l192 -700h-51zM148 855h45v-90h-45v90zM298 855h45v-90h-45v90z" />
    <glyph glyph-name="Aring" unicode="&#xc5;" horiz-adv-x="491" 
d="M360 186h-193l-20 46h200l-69 255q-11 42 -17.5 84t-14.5 84h-2q-8 -42 -14.5 -84t-17.5 -84l-133 -487h-51l192 700h50l192 -700h-51zM155 810q0 38 26 64t64 26t64 -26t26 -64t-26 -64t-64 -26t-64 26t-26 64zM195 810q0 -21 14.5 -35.5t35.5 -14.5t35.5 14.5
t14.5 35.5t-14.5 35.5t-35.5 14.5t-35.5 -14.5t-14.5 -35.5z" />
    <glyph glyph-name="AE" unicode="&#xc6;" horiz-adv-x="614" 
d="M564 46v-46h-260v186h-174l-51 -186h-51l192 700h344v-46h-210v-281h160v-46h-160v-281h210zM142 232h162v423h-60q-8 -42 -14.5 -84t-17.5 -84z" />
    <glyph glyph-name="Ccedilla" unicode="&#xc7;" horiz-adv-x="414" 
d="M64 496l50 20v-337q0 -68 30.5 -100.5t89.5 -32.5h150v-46h-107l-14 -47q23 -1 38.5 -8.5t24.5 -17.5t12.5 -21.5t3.5 -21.5q0 -11 -4.5 -23t-14 -21.5t-24.5 -16t-36 -6.5q-10 0 -31.5 1.5t-42.5 12.5l10 27q17 -7 32.5 -9t26.5 -2q16 0 29.5 8.5t13.5 28.5
q0 18 -15 28.5t-38 10.5h-6l-16 13l20 64h-13q-83 0 -126 46.5t-43 132.5v317zM64 521q0 86 43 132.5t126 46.5h151v-46h-150q-59 0 -89.5 -32.5t-30.5 -100.5h-50z" />
    <glyph glyph-name="Egrave" unicode="&#xc8;" horiz-adv-x="432" 
d="M128 373h205v-46h-185zM242 0q-83 0 -126 46.5t-43 132.5v521h310v-46h-260v-475q0 -133 120 -133h140v-46h-141zM96 900h70l90 -135h-40z" />
    <glyph glyph-name="Eacute" unicode="&#xc9;" horiz-adv-x="432" 
d="M128 373h205v-46h-185zM242 0q-83 0 -126 46.5t-43 132.5v521h310v-46h-260v-475q0 -133 120 -133h140v-46h-141zM216 765h-40l90 135h70z" />
    <glyph glyph-name="Ecircumflex" unicode="&#xca;" horiz-adv-x="432" 
d="M128 373h205v-46h-185zM242 0q-83 0 -126 46.5t-43 132.5v521h310v-46h-260v-475q0 -133 120 -133h140v-46h-141zM344 765h-50l-78 89l-79 -89h-50l109 135h40z" />
    <glyph glyph-name="Edieresis" unicode="&#xcb;" horiz-adv-x="432" 
d="M128 373h205v-46h-185zM242 0q-83 0 -126 46.5t-43 132.5v521h310v-46h-260v-475q0 -133 120 -133h140v-46h-141zM129 855h45v-90h-45v90zM279 855h45v-90h-45v90z" />
    <glyph glyph-name="Igrave" unicode="&#xcc;" horiz-adv-x="196" 
d="M123 700v-700h-50v700h50zM-21 900h70l90 -135h-40z" />
    <glyph glyph-name="Iacute" unicode="&#xcd;" horiz-adv-x="196" 
d="M123 700v-700h-50v700h50zM108 765h-40l90 135h70z" />
    <glyph glyph-name="Icircumflex" unicode="&#xce;" horiz-adv-x="196" 
d="M123 700v-700h-50v700h50zM228 765h-50l-78 89l-79 -89h-50l109 135h40z" />
    <glyph glyph-name="Idieresis" unicode="&#xcf;" horiz-adv-x="196" 
d="M123 700v-700h-50v700h50zM2 855h45v-90h-45v90zM152 855h45v-90h-45v90z" />
    <glyph glyph-name="Eth" unicode="&#xd0;" horiz-adv-x="473" 
d="M128 46h110q29 0 51.5 10t37.5 27t23 39.5t8 47.5v360q0 25 -8 47.5t-23 39.5t-37.5 27t-51.5 10h-115v-282h100v-43h-100v-329h-50v329h-65v43h65v328h165q41 0 73 -13.5t53.5 -37t32.5 -54.5t11 -65v-360q0 -35 -11 -65.5t-32.5 -54t-53.5 -37t-73 -13.5h-90z" />
    <glyph glyph-name="Ntilde" unicode="&#xd1;" horiz-adv-x="507" 
d="M181 469l-66 186h-2q2 -69 6 -138t4 -138v-379h-50v700h70l182 -469l66 -186h2q-2 69 -6 138t-4 138v379h50v-700h-70zM320 799q24 0 59 33l24 -22q-49 -44 -81 -44q-24 0 -73 25q-47 25 -61 25q-28 0 -63 -31l-22 22q44 43 84 43q26 0 70 -26q23 -14 38.5 -19.5
t24.5 -5.5z" />
    <glyph glyph-name="Ograve" unicode="&#xd2;" horiz-adv-x="498" 
d="M434 516v-337q0 -88 -43 -136t-126 -48h-32q-83 0 -126 48t-43 136v342q0 88 43 136t126 48h32q82 0 125.5 -48t43.5 -136h-50q0 70 -30.5 104t-89.5 34h-30q-59 0 -89.5 -34t-30.5 -104v-342q0 -70 30.5 -104t89.5 -34h30q58 0 89 34t31 104v317zM119 900h70l90 -135
h-40z" />
    <glyph glyph-name="Oacute" unicode="&#xd3;" horiz-adv-x="498" 
d="M434 516v-337q0 -88 -43 -136t-126 -48h-32q-83 0 -126 48t-43 136v342q0 88 43 136t126 48h32q82 0 125.5 -48t43.5 -136h-50q0 70 -30.5 104t-89.5 34h-30q-59 0 -89.5 -34t-30.5 -104v-342q0 -70 30.5 -104t89.5 -34h30q58 0 89 34t31 104v317zM239 765h-40l90 135h70
z" />
    <glyph glyph-name="Ocircumflex" unicode="&#xd4;" horiz-adv-x="498" 
d="M434 516v-337q0 -88 -43 -136t-126 -48h-32q-83 0 -126 48t-43 136v342q0 88 43 136t126 48h32q82 0 125.5 -48t43.5 -136h-50q0 70 -30.5 104t-89.5 34h-30q-59 0 -89.5 -34t-30.5 -104v-342q0 -70 30.5 -104t89.5 -34h30q58 0 89 34t31 104v317zM368 765h-50l-78 89
l-79 -89h-50l109 135h40z" />
    <glyph glyph-name="Otilde" unicode="&#xd5;" horiz-adv-x="498" 
d="M434 516v-337q0 -88 -43 -136t-126 -48h-32q-83 0 -126 48t-43 136v342q0 88 43 136t126 48h32q82 0 125.5 -48t43.5 -136h-50q0 70 -30.5 104t-89.5 34h-30q-59 0 -89.5 -34t-30.5 -104v-342q0 -70 30.5 -104t89.5 -34h30q58 0 89 34t31 104v317zM306 799q24 0 59 33
l24 -22q-49 -44 -81 -44q-24 0 -73 25q-47 25 -61 25q-28 0 -63 -31l-22 22q44 43 84 43q26 0 70 -26q23 -14 38.5 -19.5t24.5 -5.5z" />
    <glyph glyph-name="Odieresis" unicode="&#xd6;" horiz-adv-x="498" 
d="M434 516v-337q0 -88 -43 -136t-126 -48h-32q-83 0 -126 48t-43 136v342q0 88 43 136t126 48h32q82 0 125.5 -48t43.5 -136h-50q0 70 -30.5 104t-89.5 34h-30q-59 0 -89.5 -34t-30.5 -104v-342q0 -70 30.5 -104t89.5 -34h30q58 0 89 34t31 104v317zM142 855h45v-90h-45v90
zM292 855h45v-90h-45v90z" />
    <glyph glyph-name="multiply" unicode="&#xd7;" horiz-adv-x="588" 
d="M118 207l141 141l-143 143l36 36l143 -143l141 141l32 -32l-141 -141l143 -143l-36 -36l-143 143l-141 -141z" />
    <glyph glyph-name="Oslash" unicode="&#xd8;" horiz-adv-x="498" 
d="M50 -32l43 93q-29 46 -29 118v342q0 88 43 136t126 48h32q70 0 112 -36l37 79l34 -16l-44 -93q30 -45 30 -118h-50q0 31 -8 58l-234 -501q30 -37 92 -37h30q58 0 89 34t31 104v317l50 20v-337q0 -88 -43 -136t-126 -48h-32q-70 0 -113 35l-36 -78zM114 179q0 -17 2 -31.5
t5 -27.5l234 502q-30 37 -91 37h-30q-59 0 -89.5 -34t-30.5 -104v-342z" />
    <glyph glyph-name="Ugrave" unicode="&#xd9;" horiz-adv-x="479" 
d="M414 150q0 -32 -11.5 -60t-33.5 -49t-54.5 -33.5t-75.5 -12.5t-75.5 12.5t-54.5 33.5t-33.5 49t-11.5 60v550h50v-550q0 -22 8 -42t24 -35t39.5 -23.5t53.5 -8.5t53.5 8.5t39.5 23.5t24 35t8 42v550h50v-550zM119 900h70l90 -135h-40z" />
    <glyph glyph-name="Uacute" unicode="&#xda;" horiz-adv-x="479" 
d="M414 150q0 -32 -11.5 -60t-33.5 -49t-54.5 -33.5t-75.5 -12.5t-75.5 12.5t-54.5 33.5t-33.5 49t-11.5 60v550h50v-550q0 -22 8 -42t24 -35t39.5 -23.5t53.5 -8.5t53.5 8.5t39.5 23.5t24 35t8 42v550h50v-550zM239 765h-40l90 135h70z" />
    <glyph glyph-name="Ucircumflex" unicode="&#xdb;" horiz-adv-x="479" 
d="M414 150q0 -32 -11.5 -60t-33.5 -49t-54.5 -33.5t-75.5 -12.5t-75.5 12.5t-54.5 33.5t-33.5 49t-11.5 60v550h50v-550q0 -22 8 -42t24 -35t39.5 -23.5t53.5 -8.5t53.5 8.5t39.5 23.5t24 35t8 42v550h50v-550zM368 765h-50l-78 89l-79 -89h-50l109 135h40z" />
    <glyph glyph-name="Udieresis" unicode="&#xdc;" horiz-adv-x="479" 
d="M414 150q0 -32 -11.5 -60t-33.5 -49t-54.5 -33.5t-75.5 -12.5t-75.5 12.5t-54.5 33.5t-33.5 49t-11.5 60v550h50v-550q0 -22 8 -42t24 -35t39.5 -23.5t53.5 -8.5t53.5 8.5t39.5 23.5t24 35t8 42v550h50v-550zM142 855h45v-90h-45v90zM292 855h45v-90h-45v90z" />
    <glyph glyph-name="Yacute" unicode="&#xdd;" horiz-adv-x="449" 
d="M368 700h52l-171 -425v-275h-50v275l-170 425h53l102 -257q12 -29 20.5 -59.5t18.5 -60.5h2q10 30 18.5 60.5t20.5 59.5zM224 765h-40l90 135h70z" />
    <glyph glyph-name="Thorn" unicode="&#xde;" horiz-adv-x="438" 
d="M128 174h95q29 0 51.5 10t37.5 27t23 39.5t8 47.5v105q0 25 -8 47.5t-23 39.5t-37.5 27t-51.5 10h-100v-527h-50v700h50v-127h100q41 0 73 -13.5t53.5 -37t32.5 -54.5t11 -65v-105q0 -35 -11 -65.5t-32.5 -54t-53.5 -37t-73 -13.5h-75z" />
    <glyph glyph-name="germandbls" unicode="&#xdf;" horiz-adv-x="451" 
d="M239 46q51 0 78 30.5t27 73.5v95q0 19 -7 38.5t-22 36t-40 27t-61 10.5h-15l-20 46h35q33 0 56 10.5t37 27t20.5 36t6.5 38.5v55q0 37 -27 63t-78 26q-54 0 -82 -26t-28 -63v-570h-50v457h-52v43h52v70q0 28 10.5 52.5t30.5 43t50 29t69 10.5q38 0 67 -10.5t48.5 -29
t29.5 -43t10 -52.5v-55q0 -45 -24 -82.5t-81 -52.5q63 -14 89 -51.5t26 -83.5v-95q0 -31 -10 -58t-29.5 -47.5t-48.5 -32.5t-67 -12h-40v46h40z" />
    <glyph glyph-name="agrave" unicode="&#xe0;" horiz-adv-x="425" 
d="M85 500h128q35 0 62.5 -11t46 -30t28.5 -44.5t10 -54.5v-360h-23l-18 61q-17 -30 -47.5 -48t-77.5 -18q-42 0 -69.5 10t-44 27.5t-23.5 42.5t-7 55q0 36 12 61.5t32.5 43t47.5 28t58 15.5l94 16l18 -41l-105 -19q-22 -4 -42.5 -11t-36 -19.5t-24.5 -30.5t-9 -44
q0 -20 3.5 -36t14.5 -28t31.5 -18.5t53.5 -6.5q60 0 88.5 32t28.5 78v210q0 40 -26.5 68.5t-75.5 28.5h-128v43zM92 700h70l90 -135h-40z" />
    <glyph glyph-name="aacute" unicode="&#xe1;" horiz-adv-x="425" 
d="M85 500h128q35 0 62.5 -11t46 -30t28.5 -44.5t10 -54.5v-360h-23l-18 61q-17 -30 -47.5 -48t-77.5 -18q-42 0 -69.5 10t-44 27.5t-23.5 42.5t-7 55q0 36 12 61.5t32.5 43t47.5 28t58 15.5l94 16l18 -41l-105 -19q-22 -4 -42.5 -11t-36 -19.5t-24.5 -30.5t-9 -44
q0 -20 3.5 -36t14.5 -28t31.5 -18.5t53.5 -6.5q60 0 88.5 32t28.5 78v210q0 40 -26.5 68.5t-75.5 28.5h-128v43zM212 565h-40l90 135h70z" />
    <glyph glyph-name="acircumflex" unicode="&#xe2;" horiz-adv-x="425" 
d="M85 500h128q35 0 62.5 -11t46 -30t28.5 -44.5t10 -54.5v-360h-23l-18 61q-17 -30 -47.5 -48t-77.5 -18q-42 0 -69.5 10t-44 27.5t-23.5 42.5t-7 55q0 36 12 61.5t32.5 43t47.5 28t58 15.5l94 16l18 -41l-105 -19q-22 -4 -42.5 -11t-36 -19.5t-24.5 -30.5t-9 -44
q0 -20 3.5 -36t14.5 -28t31.5 -18.5t53.5 -6.5q60 0 88.5 32t28.5 78v210q0 40 -26.5 68.5t-75.5 28.5h-128v43zM341 565h-50l-78 89l-79 -89h-50l109 135h40z" />
    <glyph glyph-name="atilde" unicode="&#xe3;" horiz-adv-x="425" 
d="M85 500h128q35 0 62.5 -11t46 -30t28.5 -44.5t10 -54.5v-360h-23l-18 61q-17 -30 -47.5 -48t-77.5 -18q-42 0 -69.5 10t-44 27.5t-23.5 42.5t-7 55q0 36 12 61.5t32.5 43t47.5 28t58 15.5l94 16l18 -41l-105 -19q-22 -4 -42.5 -11t-36 -19.5t-24.5 -30.5t-9 -44
q0 -20 3.5 -36t14.5 -28t31.5 -18.5t53.5 -6.5q60 0 88.5 32t28.5 78v210q0 40 -26.5 68.5t-75.5 28.5h-128v43zM279 599q24 0 59 33l24 -22q-49 -44 -81 -44q-24 0 -73 25q-47 25 -61 25q-28 0 -63 -31l-22 22q44 43 84 43q26 0 70 -26q23 -14 38.5 -19.5t24.5 -5.5z" />
    <glyph glyph-name="adieresis" unicode="&#xe4;" horiz-adv-x="425" 
d="M85 500h128q35 0 62.5 -11t46 -30t28.5 -44.5t10 -54.5v-360h-23l-18 61q-17 -30 -47.5 -48t-77.5 -18q-42 0 -69.5 10t-44 27.5t-23.5 42.5t-7 55q0 36 12 61.5t32.5 43t47.5 28t58 15.5l94 16l18 -41l-105 -19q-22 -4 -42.5 -11t-36 -19.5t-24.5 -30.5t-9 -44
q0 -20 3.5 -36t14.5 -28t31.5 -18.5t53.5 -6.5q60 0 88.5 32t28.5 78v210q0 40 -26.5 68.5t-75.5 28.5h-128v43zM115 655h45v-90h-45v90zM265 655h45v-90h-45v90z" />
    <glyph glyph-name="aring" unicode="&#xe5;" horiz-adv-x="425" 
d="M85 500h128q35 0 62.5 -11t46 -30t28.5 -44.5t10 -54.5v-360h-23l-18 61q-17 -30 -47.5 -48t-77.5 -18q-42 0 -69.5 10t-44 27.5t-23.5 42.5t-7 55q0 36 12 61.5t32.5 43t47.5 28t58 15.5l94 16l18 -41l-105 -19q-22 -4 -42.5 -11t-36 -19.5t-24.5 -30.5t-9 -44
q0 -20 3.5 -36t14.5 -28t31.5 -18.5t53.5 -6.5q60 0 88.5 32t28.5 78v210q0 40 -26.5 68.5t-75.5 28.5h-128v43zM122 610q0 38 26 64t64 26t64 -26t26 -64t-26 -64t-64 -26t-64 26t-26 64zM162 610q0 -21 14.5 -35.5t35.5 -14.5t35.5 14.5t14.5 35.5t-14.5 35.5t-35.5 14.5
t-35.5 -14.5t-14.5 -35.5z" />
    <glyph glyph-name="ae" unicode="&#xe6;" horiz-adv-x="682" 
d="M471 0q-59 0 -93 30.5t-42 78.5q-9 -49 -43.5 -81.5t-98.5 -32.5q-42 0 -69.5 10t-44 27.5t-23.5 42.5t-7 55q0 36 12 61.5t32.5 43t47.5 28t58 15.5l94 16l18 -41l-105 -19q-22 -4 -42.5 -11t-36 -19.5t-24.5 -30.5t-9 -44q0 -20 3.5 -36t14.5 -28t31.5 -18.5t53.5 -6.5
q60 0 88.5 32t28.5 78v210q0 40 -26.5 68.5t-75.5 28.5h-128v43h128q51 0 82 -28.5t41 -73.5q8 48 41.5 80t93.5 32q37 0 65.5 -10.5t48 -28t29.5 -41t10 -50.5v-144h-240l-20 43h215v101q0 36 -27.5 61.5t-80.5 25.5q-56 0 -84 -28.5t-28 -68.5v-230q0 -41 28 -69t84 -28
h138v-43h-138z" />
    <glyph glyph-name="ccedilla" unicode="&#xe7;" horiz-adv-x="355" 
d="M325 43v-43h-96l-14 -47q23 -1 38.5 -8.5t24.5 -17.5t12.5 -21.5t3.5 -21.5q0 -11 -4.5 -23t-14 -21.5t-24.5 -16t-36 -6.5q-10 0 -31.5 1.5t-42.5 12.5l10 27q17 -7 32.5 -9t26.5 -2q16 0 29.5 8.5t13.5 28.5q0 18 -15 28.5t-38 10.5h-6l-16 13l20 65q-69 6 -103.5 48.5
t-34.5 100.5v185l45 20v-205q0 -45 28 -76t84 -31h108zM217 457q-51 0 -79 -26.5t-33 -65.5h-45q2 28 13 52.5t31 43t48 29t65 10.5h108v-43h-108z" />
    <glyph glyph-name="egrave" unicode="&#xe8;" 
d="M217 0q-39 0 -68.5 11t-49 30t-29.5 44.5t-10 54.5v230q0 28 10 52.5t29.5 43t49 29t68.5 10.5q37 0 65.5 -10t48 -27t29.5 -40t10 -48v-144h-240l-20 43h215v101q0 34 -27.5 58t-80.5 24q-56 0 -84 -27t-28 -65v-230q0 -41 28 -69t84 -28h138v-43h-138zM94 700h70
l90 -135h-40z" />
    <glyph glyph-name="eacute" unicode="&#xe9;" 
d="M217 0q-39 0 -68.5 11t-49 30t-29.5 44.5t-10 54.5v230q0 28 10 52.5t29.5 43t49 29t68.5 10.5q37 0 65.5 -10t48 -27t29.5 -40t10 -48v-144h-240l-20 43h215v101q0 34 -27.5 58t-80.5 24q-56 0 -84 -27t-28 -65v-230q0 -41 28 -69t84 -28h138v-43h-138zM214 565h-40
l90 135h70z" />
    <glyph glyph-name="ecircumflex" unicode="&#xea;" 
d="M217 0q-39 0 -68.5 11t-49 30t-29.5 44.5t-10 54.5v230q0 28 10 52.5t29.5 43t49 29t68.5 10.5q37 0 65.5 -10t48 -27t29.5 -40t10 -48v-144h-240l-20 43h215v101q0 34 -27.5 58t-80.5 24q-56 0 -84 -27t-28 -65v-230q0 -41 28 -69t84 -28h138v-43h-138zM342 565h-50
l-78 89l-79 -89h-50l109 135h40z" />
    <glyph glyph-name="edieresis" unicode="&#xeb;" 
d="M217 0q-39 0 -68.5 11t-49 30t-29.5 44.5t-10 54.5v230q0 28 10 52.5t29.5 43t49 29t68.5 10.5q37 0 65.5 -10t48 -27t29.5 -40t10 -48v-144h-240l-20 43h215v101q0 34 -27.5 58t-80.5 24q-56 0 -84 -27t-28 -65v-230q0 -41 28 -69t84 -28h138v-43h-138zM116 655h45v-90
h-45v90zM266 655h45v-90h-45v90z" />
    <glyph glyph-name="igrave" unicode="&#xec;" horiz-adv-x="183" 
d="M69 500h45v-500h-45v500zM-27 700h70l90 -135h-40z" />
    <glyph glyph-name="iacute" unicode="&#xed;" horiz-adv-x="183" 
d="M69 500h45v-500h-45v500zM94 565h-40l90 135h70z" />
    <glyph glyph-name="icircumflex" unicode="&#xee;" horiz-adv-x="183" 
d="M69 500h45v-500h-45v500zM221 565h-50l-78 89l-79 -89h-50l109 135h40z" />
    <glyph glyph-name="idieresis" unicode="&#xef;" horiz-adv-x="183" 
d="M69 500h45v-500h-45v500zM-5 655h45v-90h-45v90zM145 655h45v-90h-45v90z" />
    <glyph glyph-name="eth" unicode="&#xf0;" horiz-adv-x="441" 
d="M167 575l33 95l-121 31l11 41l124 -30l26 73l40 -14l-25 -70q19 -6 41 -17.5t40.5 -31t31 -49t12.5 -71.5v-397q0 -29 -10.5 -54t-30.5 -44.5t-50 -30.5t-69 -11t-69 11t-50 30.5t-30.5 44.5t-10.5 54v230q0 27 10.5 51.5t30.5 43t49 29.5t67 11h93l20 -41h-113
q-54 0 -83 -28t-29 -66v-230q0 -40 29 -68.5t86 -28.5t86 28.5t29 68.5v395q0 31 -9 53t-23 37t-30.5 24.5t-31.5 14.5l-34 -98z" />
    <glyph glyph-name="ntilde" unicode="&#xf1;" horiz-adv-x="446" 
d="M69 500h166q34 0 61 -10.5t45.5 -28t28 -41t9.5 -50.5v-370h-45v370q0 18 -5.5 33.5t-18 27.5t-33 19t-50.5 7h-158v43zM69 434l45 20v-454h-45v434zM290 599q24 0 59 33l24 -22q-49 -44 -81 -44q-24 0 -73 25q-47 25 -61 25q-28 0 -63 -31l-22 22q44 43 84 43
q26 0 70 -26q23 -14 38.5 -19.5t24.5 -5.5z" />
    <glyph glyph-name="ograve" unicode="&#xf2;" horiz-adv-x="441" 
d="M335 335l45 20v-220q0 -29 -10.5 -54t-30.5 -44.5t-50 -30.5t-69 -11t-69 11t-50 30.5t-30.5 44.5t-10.5 54v230q0 28 10.5 53.5t30.5 45t50 30.5t69 11t69 -11t50 -30.5t30.5 -45t10.5 -53.5h-45q0 40 -29 68.5t-86 28.5t-86 -28.5t-29 -68.5v-230q0 -40 29 -68.5
t86 -28.5t86 28.5t29 68.5v200zM100 700h70l90 -135h-40z" />
    <glyph glyph-name="oacute" unicode="&#xf3;" horiz-adv-x="441" 
d="M335 335l45 20v-220q0 -29 -10.5 -54t-30.5 -44.5t-50 -30.5t-69 -11t-69 11t-50 30.5t-30.5 44.5t-10.5 54v230q0 28 10.5 53.5t30.5 45t50 30.5t69 11t69 -11t50 -30.5t30.5 -45t10.5 -53.5h-45q0 40 -29 68.5t-86 28.5t-86 -28.5t-29 -68.5v-230q0 -40 29 -68.5
t86 -28.5t86 28.5t29 68.5v200zM220 565h-40l90 135h70z" />
    <glyph glyph-name="ocircumflex" unicode="&#xf4;" horiz-adv-x="441" 
d="M335 335l45 20v-220q0 -29 -10.5 -54t-30.5 -44.5t-50 -30.5t-69 -11t-69 11t-50 30.5t-30.5 44.5t-10.5 54v230q0 28 10.5 53.5t30.5 45t50 30.5t69 11t69 -11t50 -30.5t30.5 -45t10.5 -53.5h-45q0 40 -29 68.5t-86 28.5t-86 -28.5t-29 -68.5v-230q0 -40 29 -68.5
t86 -28.5t86 28.5t29 68.5v200zM349 565h-50l-78 89l-79 -89h-50l109 135h40z" />
    <glyph glyph-name="otilde" unicode="&#xf5;" horiz-adv-x="441" 
d="M335 335l45 20v-220q0 -29 -10.5 -54t-30.5 -44.5t-50 -30.5t-69 -11t-69 11t-50 30.5t-30.5 44.5t-10.5 54v230q0 28 10.5 53.5t30.5 45t50 30.5t69 11t69 -11t50 -30.5t30.5 -45t10.5 -53.5h-45q0 40 -29 68.5t-86 28.5t-86 -28.5t-29 -68.5v-230q0 -40 29 -68.5
t86 -28.5t86 28.5t29 68.5v200zM287 599q24 0 59 33l24 -22q-49 -44 -81 -44q-24 0 -73 25q-47 25 -61 25q-28 0 -63 -31l-22 22q44 43 84 43q26 0 70 -26q23 -14 38.5 -19.5t24.5 -5.5z" />
    <glyph glyph-name="odieresis" unicode="&#xf6;" horiz-adv-x="441" 
d="M335 335l45 20v-220q0 -29 -10.5 -54t-30.5 -44.5t-50 -30.5t-69 -11t-69 11t-50 30.5t-30.5 44.5t-10.5 54v230q0 28 10.5 53.5t30.5 45t50 30.5t69 11t69 -11t50 -30.5t30.5 -45t10.5 -53.5h-45q0 40 -29 68.5t-86 28.5t-86 -28.5t-29 -68.5v-230q0 -40 29 -68.5
t86 -28.5t86 28.5t29 68.5v200zM123 655h45v-90h-45v90zM273 655h45v-90h-45v90z" />
    <glyph glyph-name="oslash" unicode="&#xf8;" horiz-adv-x="441" 
d="M335 335l45 20v-220q0 -29 -10.5 -54t-30.5 -44.5t-50 -30.5t-69 -11q-42 0 -73 12.5t-51 33.5l-45 -65l-31 23l53 75q-13 27 -13 61v230q0 28 10.5 53.5t30.5 45t50 30.5t69 11q41 0 72 -12.5t51 -33.5l46 66l31 -23l-54 -76q14 -30 14 -61h-45q0 4 -0.5 7.5t-0.5 6.5
l-211 -300q14 -19 38 -30t59 -11q57 0 86 28.5t29 68.5v200zM220 462q-57 0 -86 -28.5t-29 -68.5v-230q0 -10 1 -14l210 300q-14 19 -38 30t-58 11z" />
    <glyph glyph-name="ugrave" unicode="&#xf9;" horiz-adv-x="445" 
d="M374 500v-365q0 -29 -10 -54t-29.5 -44.5t-48 -30.5t-66.5 -11t-66.5 11t-48 30.5t-29.5 44.5t-10 54v365h45v-365q0 -40 27.5 -68.5t81.5 -28.5t81.5 28.5t27.5 68.5v365h45zM102 700h70l90 -135h-40z" />
    <glyph glyph-name="uacute" unicode="&#xfa;" horiz-adv-x="445" 
d="M374 500v-365q0 -29 -10 -54t-29.5 -44.5t-48 -30.5t-66.5 -11t-66.5 11t-48 30.5t-29.5 44.5t-10 54v365h45v-365q0 -40 27.5 -68.5t81.5 -28.5t81.5 28.5t27.5 68.5v365h45zM222 565h-40l90 135h70z" />
    <glyph glyph-name="ucircumflex" unicode="&#xfb;" horiz-adv-x="445" 
d="M374 500v-365q0 -29 -10 -54t-29.5 -44.5t-48 -30.5t-66.5 -11t-66.5 11t-48 30.5t-29.5 44.5t-10 54v365h45v-365q0 -40 27.5 -68.5t81.5 -28.5t81.5 28.5t27.5 68.5v365h45zM351 565h-50l-78 89l-79 -89h-50l109 135h40z" />
    <glyph glyph-name="udieresis" unicode="&#xfc;" horiz-adv-x="445" 
d="M374 500v-365q0 -29 -10 -54t-29.5 -44.5t-48 -30.5t-66.5 -11t-66.5 11t-48 30.5t-29.5 44.5t-10 54v365h45v-365q0 -40 27.5 -68.5t81.5 -28.5t81.5 28.5t27.5 68.5v365h45zM125 655h45v-90h-45v90zM275 655h45v-90h-45v90z" />
    <glyph glyph-name="yacute" unicode="&#xfd;" horiz-adv-x="415" 
d="M160 178q14 -47 23.5 -93.5t20.5 -94.5h2q11 48 20.5 94.5t22.5 93.5l88 322h44l-205 -750h-44l51 185l-162 565h46zM207 565h-40l90 135h70z" />
    <glyph glyph-name="thorn" unicode="&#xfe;" horiz-adv-x="450" 
d="M232 43q56 0 84 28.5t28 68.5v220q0 40 -28 68.5t-84 28.5h-118v-707h-45v979l45 20v-249h118q39 0 68.5 -11t49 -30t29.5 -44.5t10 -54.5v-220q0 -29 -10 -54.5t-29.5 -44.5t-49 -30t-68.5 -11h-93l-20 43h113z" />
    <glyph glyph-name="ydieresis" unicode="&#xff;" horiz-adv-x="415" 
d="M160 178q14 -47 23.5 -93.5t20.5 -94.5h2q11 48 20.5 94.5t22.5 93.5l88 322h44l-205 -750h-44l51 185l-162 565h46zM110 655h45v-90h-45v90zM260 655h45v-90h-45v90z" />
    <glyph glyph-name="Amacron" unicode="&#x100;" horiz-adv-x="491" 
d="M360 186h-193l-20 46h200l-69 255q-11 42 -17.5 84t-14.5 84h-2q-8 -42 -14.5 -84t-17.5 -84l-133 -487h-51l192 700h50l192 -700h-51zM93 831h305v-42h-305v42z" />
    <glyph glyph-name="amacron" unicode="&#x101;" horiz-adv-x="425" 
d="M85 500h128q35 0 62.5 -11t46 -30t28.5 -44.5t10 -54.5v-360h-23l-18 61q-17 -30 -47.5 -48t-77.5 -18q-42 0 -69.5 10t-44 27.5t-23.5 42.5t-7 55q0 36 12 61.5t32.5 43t47.5 28t58 15.5l94 16l18 -41l-105 -19q-22 -4 -42.5 -11t-36 -19.5t-24.5 -30.5t-9 -44
q0 -20 3.5 -36t14.5 -28t31.5 -18.5t53.5 -6.5q60 0 88.5 32t28.5 78v210q0 40 -26.5 68.5t-75.5 28.5h-128v43zM60 631h305v-42h-305v42z" />
    <glyph glyph-name="Abreve" unicode="&#x102;" horiz-adv-x="491" 
d="M360 186h-193l-20 46h200l-69 255q-11 42 -17.5 84t-14.5 84h-2q-8 -42 -14.5 -84t-17.5 -84l-133 -487h-51l192 700h50l192 -700h-51zM369 873q0 -61 -31.5 -88t-91.5 -27q-61 0 -92.5 27t-31.5 88h43q0 -44 20.5 -59t60.5 -15q39 0 59.5 15t20.5 59h43z" />
    <glyph glyph-name="abreve" unicode="&#x103;" horiz-adv-x="425" 
d="M85 500h128q35 0 62.5 -11t46 -30t28.5 -44.5t10 -54.5v-360h-23l-18 61q-17 -30 -47.5 -48t-77.5 -18q-42 0 -69.5 10t-44 27.5t-23.5 42.5t-7 55q0 36 12 61.5t32.5 43t47.5 28t58 15.5l94 16l18 -41l-105 -19q-22 -4 -42.5 -11t-36 -19.5t-24.5 -30.5t-9 -44
q0 -20 3.5 -36t14.5 -28t31.5 -18.5t53.5 -6.5q60 0 88.5 32t28.5 78v210q0 40 -26.5 68.5t-75.5 28.5h-128v43zM336 673q0 -61 -31.5 -88t-91.5 -27q-61 0 -92.5 27t-31.5 88h43q0 -44 20.5 -59t60.5 -15q39 0 59.5 15t20.5 59h43z" />
    <glyph glyph-name="Aogonek" unicode="&#x104;" horiz-adv-x="491" 
d="M360 186h-193l-20 46h200l-69 255q-11 42 -17.5 84t-14.5 84h-2q-8 -42 -14.5 -84t-17.5 -84l-133 -487h-51l192 700h50l192 -700h-51zM384 -84q0 23 13 49t43 57l22 -22q-32 -43 -32 -75q0 -21 12 -32t33 -11q20 0 49 14l15 -36q-15 -9 -34.5 -15t-40.5 -6
q-36 0 -58 22.5t-22 54.5z" />
    <glyph glyph-name="aogonek" unicode="&#x105;" horiz-adv-x="425" 
d="M281 -84q0 22 11.5 46.5t38.5 53.5l-13 45q-17 -30 -47.5 -48t-77.5 -18q-42 0 -69.5 10t-44 27.5t-23.5 42.5t-7 55q0 36 12 61.5t32.5 43t47.5 28t58 15.5l94 16l18 -41l-105 -19q-22 -4 -42.5 -11t-36 -19.5t-24.5 -30.5t-9 -44q0 -20 3.5 -36t14.5 -28t31.5 -18.5
t53.5 -6.5q60 0 88.5 32t28.5 78v210q0 40 -26.5 68.5t-75.5 28.5h-128v43h128q35 0 62.5 -11t46 -30t28.5 -44.5t10 -54.5v-360q-32 -43 -32 -75q0 -21 12 -32t33 -11q20 0 49 14l15 -36q-15 -9 -34.5 -15t-40.5 -6q-36 0 -58 22.5t-22 54.5z" />
    <glyph glyph-name="Cacute" unicode="&#x106;" horiz-adv-x="414" 
d="M64 496l50 20v-337q0 -68 30.5 -100.5t89.5 -32.5h150v-46h-151q-83 0 -126 46.5t-43 132.5v317zM64 521q0 86 43 132.5t126 46.5h151v-46h-150q-59 0 -89.5 -32.5t-30.5 -100.5h-50zM247 765h-40l90 135h70z" />
    <glyph glyph-name="cacute" unicode="&#x107;" horiz-adv-x="355" 
d="M325 43v-43h-108q-39 0 -68.5 12t-49 32.5t-29.5 47.5t-10 58v185l45 20v-205q0 -45 28 -76t84 -31h108zM217 457q-51 0 -79 -26.5t-33 -65.5h-45q2 28 13 52.5t31 43t48 29t65 10.5h108v-43h-108zM205 565h-40l90 135h70z" />
    <glyph glyph-name="Ccircumflex" unicode="&#x108;" horiz-adv-x="414" 
d="M64 496l50 20v-337q0 -68 30.5 -100.5t89.5 -32.5h150v-46h-151q-83 0 -126 46.5t-43 132.5v317zM64 521q0 86 43 132.5t126 46.5h151v-46h-150q-59 0 -89.5 -32.5t-30.5 -100.5h-50zM382 765h-50l-78 89l-79 -89h-50l109 135h40z" />
    <glyph glyph-name="ccircumflex" unicode="&#x109;" horiz-adv-x="355" 
d="M325 43v-43h-108q-39 0 -68.5 12t-49 32.5t-29.5 47.5t-10 58v185l45 20v-205q0 -45 28 -76t84 -31h108zM217 457q-51 0 -79 -26.5t-33 -65.5h-45q2 28 13 52.5t31 43t48 29t65 10.5h108v-43h-108zM353 565h-50l-78 89l-79 -89h-50l109 135h40z" />
    <glyph glyph-name="Cdotaccent" unicode="&#x10a;" horiz-adv-x="414" 
d="M64 496l50 20v-337q0 -68 30.5 -100.5t89.5 -32.5h150v-46h-151q-83 0 -126 46.5t-43 132.5v317zM64 521q0 86 43 132.5t126 46.5h151v-46h-150q-59 0 -89.5 -32.5t-30.5 -100.5h-50zM241 855h45v-90h-45v90z" />
    <glyph glyph-name="cdotaccent" unicode="&#x10b;" horiz-adv-x="355" 
d="M325 43v-43h-108q-39 0 -68.5 12t-49 32.5t-29.5 47.5t-10 58v185l45 20v-205q0 -45 28 -76t84 -31h108zM217 457q-51 0 -79 -26.5t-33 -65.5h-45q2 28 13 52.5t31 43t48 29t65 10.5h108v-43h-108zM202 655h45v-90h-45v90z" />
    <glyph glyph-name="Ccaron" unicode="&#x10c;" horiz-adv-x="414" 
d="M64 496l50 20v-337q0 -68 30.5 -100.5t89.5 -32.5h150v-46h-151q-83 0 -126 46.5t-43 132.5v317zM64 521q0 86 43 132.5t126 46.5h151v-46h-150q-59 0 -89.5 -32.5t-30.5 -100.5h-50zM279 765h-40l-109 135h50l79 -89l78 89h50z" />
    <glyph glyph-name="ccaron" unicode="&#x10d;" horiz-adv-x="355" 
d="M325 43v-43h-108q-39 0 -68.5 12t-49 32.5t-29.5 47.5t-10 58v185l45 20v-205q0 -45 28 -76t84 -31h108zM217 457q-51 0 -79 -26.5t-33 -65.5h-45q2 28 13 52.5t31 43t48 29t65 10.5h108v-43h-108zM248 565h-40l-109 135h50l79 -89l78 89h50z" />
    <glyph glyph-name="Dcaron" unicode="&#x10e;" horiz-adv-x="473" 
d="M128 46h110q29 0 51.5 10t37.5 27t23 39.5t8 47.5v360q0 25 -8 47.5t-23 39.5t-37.5 27t-51.5 10h-115v-654h-50v700h165q41 0 73 -13.5t53.5 -37t32.5 -54.5t11 -65v-360q0 -35 -11 -65.5t-32.5 -54t-53.5 -37t-73 -13.5h-90zM257 765h-40l-109 135h50l79 -89l78 89h50z
" />
    <glyph glyph-name="dcaron" unicode="&#x10f;" horiz-adv-x="507" 
d="M380 750v-750h-163q-39 0 -68.5 13t-49 34.5t-29.5 50.5t-10 62v180q0 33 10 62t29.5 50.5t49 34.5t68.5 13h93l20 -43h-113q-56 0 -84 -34.5t-28 -82.5v-180q0 -48 28 -82.5t84 -34.5h118v699zM449 644v56h58v-56q0 -32 -13.5 -53t-40.5 -21h-4v26h4q14 0 19.5 14.5
t5.5 33.5h-29z" />
    <glyph glyph-name="Dcroat" unicode="&#x110;" horiz-adv-x="473" 
d="M128 46h110q29 0 51.5 10t37.5 27t23 39.5t8 47.5v360q0 25 -8 47.5t-23 39.5t-37.5 27t-51.5 10h-115v-282h100v-43h-100v-329h-50v329h-65v43h65v328h165q41 0 73 -13.5t53.5 -37t32.5 -54.5t11 -65v-360q0 -35 -11 -65.5t-32.5 -54t-53.5 -37t-73 -13.5h-90z" />
    <glyph glyph-name="dcroat" unicode="&#x111;" horiz-adv-x="449" 
d="M330 610h-167v40h147zM380 750v-750h-163q-39 0 -68.5 13t-49 34.5t-29.5 50.5t-10 62v180q0 33 10 62t29.5 50.5t49 34.5t68.5 13h93l20 -43h-113q-56 0 -84 -34.5t-28 -82.5v-180q0 -48 28 -82.5t84 -34.5h118v699z" />
    <glyph glyph-name="Emacron" unicode="&#x112;" horiz-adv-x="432" 
d="M128 373h205v-46h-185zM242 0q-83 0 -126 46.5t-43 132.5v521h310v-46h-260v-475q0 -133 120 -133h140v-46h-141zM63 831h305v-42h-305v42z" />
    <glyph glyph-name="emacron" unicode="&#x113;" 
d="M217 0q-39 0 -68.5 11t-49 30t-29.5 44.5t-10 54.5v230q0 28 10 52.5t29.5 43t49 29t68.5 10.5q37 0 65.5 -10t48 -27t29.5 -40t10 -48v-144h-240l-20 43h215v101q0 34 -27.5 58t-80.5 24q-56 0 -84 -27t-28 -65v-230q0 -41 28 -69t84 -28h138v-43h-138zM61 631h305v-42
h-305v42z" />
    <glyph glyph-name="Ebreve" unicode="&#x114;" horiz-adv-x="432" 
d="M128 373h205v-46h-185zM242 0q-83 0 -126 46.5t-43 132.5v521h310v-46h-260v-475q0 -133 120 -133h140v-46h-141zM339 873q0 -61 -31.5 -88t-91.5 -27q-61 0 -92.5 27t-31.5 88h43q0 -44 20.5 -59t60.5 -15q39 0 59.5 15t20.5 59h43z" />
    <glyph glyph-name="ebreve" unicode="&#x115;" 
d="M217 0q-39 0 -68.5 11t-49 30t-29.5 44.5t-10 54.5v230q0 28 10 52.5t29.5 43t49 29t68.5 10.5q37 0 65.5 -10t48 -27t29.5 -40t10 -48v-144h-240l-20 43h215v101q0 34 -27.5 58t-80.5 24q-56 0 -84 -27t-28 -65v-230q0 -41 28 -69t84 -28h138v-43h-138zM337 673
q0 -61 -31.5 -88t-91.5 -27q-61 0 -92.5 27t-31.5 88h43q0 -44 20.5 -59t60.5 -15q39 0 59.5 15t20.5 59h43z" />
    <glyph glyph-name="Edotaccent" unicode="&#x116;" horiz-adv-x="432" 
d="M128 373h205v-46h-185zM242 0q-83 0 -126 46.5t-43 132.5v521h310v-46h-260v-475q0 -133 120 -133h140v-46h-141zM159 855h45v-90h-45v90z" />
    <glyph glyph-name="edotaccent" unicode="&#x117;" 
d="M217 0q-39 0 -68.5 11t-49 30t-29.5 44.5t-10 54.5v230q0 28 10 52.5t29.5 43t49 29t68.5 10.5q37 0 65.5 -10t48 -27t29.5 -40t10 -48v-144h-240l-20 43h215v101q0 34 -27.5 58t-80.5 24q-56 0 -84 -27t-28 -65v-230q0 -41 28 -69t84 -28h138v-43h-138zM191 655h45v-90
h-45v90z" />
    <glyph glyph-name="Eogonek" unicode="&#x118;" horiz-adv-x="432" 
d="M305 -84q0 19 8 40t28 44h-99q-83 0 -126 46.5t-43 132.5v521h310v-46h-260v-475q0 -133 120 -133h140v-46q-32 -43 -32 -75q0 -21 12 -32t33 -11q20 0 49 14l15 -36q-15 -9 -34.5 -15t-40.5 -6q-36 0 -58 22.5t-22 54.5zM128 373h205v-46h-185z" />
    <glyph glyph-name="eogonek" unicode="&#x119;" 
d="M228 -84q0 19 8 40t28 44h-47q-39 0 -68.5 11t-49 30t-29.5 44.5t-10 54.5v230q0 29 10 54.5t29.5 44.5t49 30t68.5 11q37 0 65.5 -10.5t48 -28t29.5 -41t10 -50.5v-144h-240l-20 43h215v101q0 36 -27.5 61.5t-80.5 25.5q-56 0 -84 -28.5t-28 -68.5v-230q0 -41 28 -69
t84 -28h138v-43h-49q-15 -19 -23.5 -38.5t-8.5 -36.5q0 -21 12 -32t33 -11q20 0 49 14l15 -36q-15 -9 -34.5 -15t-40.5 -6q-36 0 -58 22.5t-22 54.5z" />
    <glyph glyph-name="Ecaron" unicode="&#x11a;" horiz-adv-x="432" 
d="M128 373h205v-46h-185zM242 0q-83 0 -126 46.5t-43 132.5v521h310v-46h-260v-475q0 -133 120 -133h140v-46h-141zM236 765h-40l-109 135h50l79 -89l78 89h50z" />
    <glyph glyph-name="ecaron" unicode="&#x11b;" 
d="M217 0q-39 0 -68.5 11t-49 30t-29.5 44.5t-10 54.5v230q0 28 10 52.5t29.5 43t49 29t68.5 10.5q37 0 65.5 -10t48 -27t29.5 -40t10 -48v-144h-240l-20 43h215v101q0 34 -27.5 58t-80.5 24q-56 0 -84 -27t-28 -65v-230q0 -41 28 -69t84 -28h138v-43h-138zM234 565h-40
l-109 135h50l79 -89l78 89h50z" />
    <glyph glyph-name="Gcircumflex" unicode="&#x11c;" horiz-adv-x="479" 
d="M114 179q0 -68 30.5 -100.5t89.5 -32.5h105l20 -46h-126q-83 0 -126 46.5t-43 132.5v342q0 86 43 132.5t126 46.5h151v-46h-150q-59 0 -89.5 -32.5t-30.5 -100.5v-342zM414 0h-50v327h-105l-20 46h175v-373zM368 765h-50l-78 89l-79 -89h-50l109 135h40z" />
    <glyph glyph-name="gcircumflex" unicode="&#x11d;" horiz-adv-x="440" 
d="M335 500h45v-610q0 -29 -10 -54.5t-29.5 -44.5t-49 -30t-68.5 -11h-138v43h138q56 0 84 28t28 69v110h-118q-39 0 -68.5 13t-49 34.5t-29.5 50.5t-10 62v180q0 33 10 62t29.5 50.5t49 34.5t68.5 13h93l20 -43h-113q-56 0 -84 -34.5t-28 -82.5v-180q0 -48 28 -82.5
t84 -34.5h118v457zM348 565h-50l-78 89l-79 -89h-50l109 135h40z" />
    <glyph glyph-name="Gbreve" unicode="&#x11e;" horiz-adv-x="479" 
d="M114 179q0 -68 30.5 -100.5t89.5 -32.5h105l20 -46h-126q-83 0 -126 46.5t-43 132.5v342q0 86 43 132.5t126 46.5h151v-46h-150q-59 0 -89.5 -32.5t-30.5 -100.5v-342zM414 0h-50v327h-105l-20 46h175v-373zM363 873q0 -61 -31.5 -88t-91.5 -27q-61 0 -92.5 27t-31.5 88
h43q0 -44 20.5 -59t60.5 -15q39 0 59.5 15t20.5 59h43z" />
    <glyph glyph-name="gbreve" unicode="&#x11f;" horiz-adv-x="440" 
d="M335 500h45v-610q0 -29 -10 -54.5t-29.5 -44.5t-49 -30t-68.5 -11h-138v43h138q56 0 84 28t28 69v110h-118q-39 0 -68.5 13t-49 34.5t-29.5 50.5t-10 62v180q0 33 10 62t29.5 50.5t49 34.5t68.5 13h93l20 -43h-113q-56 0 -84 -34.5t-28 -82.5v-180q0 -48 28 -82.5
t84 -34.5h118v457zM343 673q0 -61 -31.5 -88t-91.5 -27q-61 0 -92.5 27t-31.5 88h43q0 -44 20.5 -59t60.5 -15q39 0 59.5 15t20.5 59h43z" />
    <glyph glyph-name="Gdotaccent" unicode="&#x120;" horiz-adv-x="479" 
d="M114 179q0 -68 30.5 -100.5t89.5 -32.5h105l20 -46h-126q-83 0 -126 46.5t-43 132.5v342q0 86 43 132.5t126 46.5h151v-46h-150q-59 0 -89.5 -32.5t-30.5 -100.5v-342zM414 0h-50v327h-105l-20 46h175v-373zM183 855h45v-90h-45v90z" />
    <glyph glyph-name="gdotaccent" unicode="&#x121;" horiz-adv-x="440" 
d="M335 500h45v-610q0 -29 -10 -54.5t-29.5 -44.5t-49 -30t-68.5 -11h-138v43h138q56 0 84 28t28 69v110h-118q-39 0 -68.5 13t-49 34.5t-29.5 50.5t-10 62v180q0 33 10 62t29.5 50.5t49 34.5t68.5 13h93l20 -43h-113q-56 0 -84 -34.5t-28 -82.5v-180q0 -48 28 -82.5
t84 -34.5h118v457zM197 655h45v-90h-45v90z" />
    <glyph glyph-name="uni0122" unicode="&#x122;" horiz-adv-x="455" 
d="M114 179q0 -68 30.5 -100.5t89.5 -32.5h105l20 -46h-126q-83 0 -126 46.5t-43 132.5v342q0 86 43 132.5t126 46.5h151v-46h-150q-59 0 -89.5 -32.5t-30.5 -100.5v-342zM414 0h-50v327h-105l-20 46h175v-373zM249 -115v50h52v-50q0 -29 -12 -48t-36 -19h-4v23h4
q13 0 17.5 13.5t4.5 30.5h-26z" />
    <glyph glyph-name="uni0123" unicode="&#x123;" horiz-adv-x="450" 
d="M335 500h45v-610q0 -29 -10 -54.5t-29.5 -44.5t-49 -30t-68.5 -11h-138v43h138q56 0 84 28t28 69v110h-118q-39 0 -68.5 13t-49 34.5t-29.5 50.5t-10 62v180q0 33 10 62t29.5 50.5t49 34.5t68.5 13h93l20 -43h-113q-56 0 -84 -34.5t-28 -82.5v-180q0 -48 28 -82.5
t84 -34.5h118v457zM264.003 632.993v-49.9971h-51.9961v49.9971q0 28.998 11.999 47.9971t35.998 18.999h3.99902v-22.999h-3.99902q-13 0 -17.499 -13.499q-4.5 -13.499 -4.5 -30.498h25.998z" />
    <glyph glyph-name="Hcircumflex" unicode="&#x124;" horiz-adv-x="496" 
d="M128 374h245v326h50v-700h-50v326h-225zM123 0h-50v700h50v-700zM376 765h-50l-78 89l-79 -89h-50l109 135h40z" />
    <glyph glyph-name="hcircumflex" unicode="&#x125;" horiz-adv-x="451" 
d="M114 750v-750h-45v742zM235 500q34 0 61 -10.5t45.5 -28t28 -41t9.5 -50.5v-370h-45v370q0 18 -5.5 33.5t-18 27.5t-33 19t-50.5 7h-88l-20 43h116zM426 565h-50l-78 89l-79 -89h-50l109 135h40z" />
    <glyph glyph-name="Itilde" unicode="&#x128;" horiz-adv-x="196" 
d="M123 700v-700h-50v700h50zM166 799q24 0 59 33l24 -22q-49 -44 -81 -44q-24 0 -73 25q-47 25 -61 25q-28 0 -63 -31l-22 22q44 43 84 43q26 0 70 -26q23 -14 38.5 -19.5t24.5 -5.5z" />
    <glyph glyph-name="itilde" unicode="&#x129;" horiz-adv-x="183" 
d="M69 500h45v-500h-45v500zM160 599q24 0 59 33l24 -22q-49 -44 -81 -44q-24 0 -73 25q-47 25 -61 25q-28 0 -63 -31l-22 22q44 43 84 43q26 0 70 -26q23 -14 38.5 -19.5t24.5 -5.5z" />
    <glyph glyph-name="Imacron" unicode="&#x12a;" horiz-adv-x="196" 
d="M123 700v-700h-50v700h50zM-53 831h305v-42h-305v42z" />
    <glyph glyph-name="imacron" unicode="&#x12b;" horiz-adv-x="183" 
d="M69 500h45v-500h-45v500zM-60 631h305v-42h-305v42z" />
    <glyph glyph-name="Ibreve" unicode="&#x12c;" horiz-adv-x="196" 
d="M123 700v-700h-50v700h50zM223 873q0 -61 -31.5 -88t-91.5 -27q-61 0 -92.5 27t-31.5 88h43q0 -44 20.5 -59t60.5 -15q39 0 59.5 15t20.5 59h43z" />
    <glyph glyph-name="ibreve" unicode="&#x12d;" horiz-adv-x="183" 
d="M69 500h45v-500h-45v500zM216 673q0 -61 -31.5 -88t-91.5 -27q-61 0 -92.5 27t-31.5 88h43q0 -44 20.5 -59t60.5 -15q39 0 59.5 15t20.5 59h43z" />
    <glyph glyph-name="Iogonek" unicode="&#x12e;" horiz-adv-x="196" 
d="M45 -84q0 19 8 40t28 44h-8v700h50v-700q-32 -43 -32 -75q0 -21 12 -32t33 -11q20 0 49 14l15 -36q-15 -9 -34.5 -15t-40.5 -6q-36 0 -58 22.5t-22 54.5z" />
    <glyph glyph-name="iogonek" unicode="&#x12f;" horiz-adv-x="183" 
d="M69 0h2q-20 -23 -28 -44t-8 -40q0 -32 22 -54.5t58 -22.5q21 0 40.5 6t34.5 15l-15 36q-29 -14 -49 -14q-21 0 -33 11t-12 32q0 32 32 75h1v500h-45v-500zM69 680h45v-70h-45v70z" />
    <glyph glyph-name="Idotaccent" unicode="&#x130;" horiz-adv-x="196" 
d="M123 700v-700h-50v700h50zM76 855h45v-90h-45v90z" />
    <glyph glyph-name="dotlessi" unicode="&#x131;" horiz-adv-x="183" 
d="M69 500h45v-500h-45v500z" />
    <glyph glyph-name="ij" unicode="&#x133;" horiz-adv-x="328" 
d="M69 0h45v500h-45v-500zM69 680h45v-70h-45v70zM214 -250v750h45v-730zM214 680h45v-70h-45v70z" />
    <glyph glyph-name="Jcircumflex" unicode="&#x134;" horiz-adv-x="308" 
d="M194 700h50v-521q0 -86 -43 -132.5t-126 -46.5h-51v46h50q59 0 89.5 32.5t30.5 100.5v521zM350 765h-50l-78 89l-79 -89h-50l109 135h40z" />
    <glyph glyph-name="jcircumflex" unicode="&#x135;" horiz-adv-x="173" 
d="M64 -250v750h45v-730zM216 565h-50l-78 89l-79 -89h-50l109 135h40z" />
    <glyph glyph-name="uni0136" unicode="&#x136;" horiz-adv-x="457" 
d="M128 373h45l193 327h54l-201 -341l211 -359h-54l-193 327h-35zM123 700v-700h-50v700h50zM220 -115v50h52v-50q0 -29 -12 -48t-36 -19h-4v23h4q13 0 17.5 13.5t4.5 30.5h-26z" />
    <glyph glyph-name="uni0137" unicode="&#x137;" horiz-adv-x="409" 
d="M114 750v-750h-45v742zM200 256l168 -256h-52l-154 236h-22l-20 43h43l153 221h52zM176 -115v50h52v-50q0 -29 -12 -48t-36 -19h-4v23h4q13 0 17.5 13.5t4.5 30.5h-26z" />
    <glyph glyph-name="kgreenlandic" unicode="&#x138;" horiz-adv-x="409" 
d="M69 500h45v-272l200 272h54l-160 -218l176 -282h-50l-154 244l-66 -78v-166h-45v500z" />
    <glyph glyph-name="Lacute" unicode="&#x139;" horiz-adv-x="404" 
d="M123 700v-654h260v-46h-310v700h50zM122 765h-40l90 135h70z" />
    <glyph glyph-name="lacute" unicode="&#x13a;" horiz-adv-x="183" 
d="M114 750v-750h-45v742zM94 794h-40l90 135h70z" />
    <glyph glyph-name="uni013B" unicode="&#x13b;" horiz-adv-x="404" 
d="M123 700v-654h260v-46h-310v700h50zM214 -115v50h52v-50q0 -29 -12 -48t-36 -19h-4v23h4q13 0 17.5 13.5t4.5 30.5h-26z" />
    <glyph glyph-name="uni013C" unicode="&#x13c;" horiz-adv-x="183" 
d="M114 750v-750h-45v742zM65 -115v50h52v-50q0 -29 -12 -48t-36 -19h-4v23h4q13 0 17.5 13.5t4.5 30.5h-26z" />
    <glyph glyph-name="Lcaron" unicode="&#x13d;" horiz-adv-x="404" 
d="M123 700v-654h260v-46h-310v700h50zM121 765h-40l-109 135h50l79 -89l78 89h50z" />
    <glyph glyph-name="lcaron" unicode="&#x13e;" horiz-adv-x="250" 
d="M114 750v-750h-45v742zM182 644v56h58v-56q0 -32 -13.5 -53t-40.5 -21h-4v26h4q14 0 19.5 14.5t5.5 33.5h-29z" />
    <glyph glyph-name="Lslash" unicode="&#x141;" horiz-adv-x="404" 
d="M123 700v-654h260v-46h-310v700h50zM0 266l-18 39l303 142l18 -39z" />
    <glyph glyph-name="lslash" unicode="&#x142;" horiz-adv-x="285" 
d="M164 750v-750h-45v742zM0 266l-18 39l303 142l18 -39z" />
    <glyph glyph-name="Nacute" unicode="&#x143;" horiz-adv-x="507" 
d="M181 469l-66 186h-2q2 -69 6 -138t4 -138v-379h-50v700h70l182 -469l66 -186h2q-2 69 -6 138t-4 138v379h50v-700h-70zM253 765h-40l90 135h70z" />
    <glyph glyph-name="nacute" unicode="&#x144;" horiz-adv-x="446" 
d="M69 500h166q34 0 61 -10.5t45.5 -28t28 -41t9.5 -50.5v-370h-45v370q0 18 -5.5 33.5t-18 27.5t-33 19t-50.5 7h-158v43zM69 434l45 20v-454h-45v434zM183 565h-40l90 135h70z" />
    <glyph glyph-name="uni0145" unicode="&#x145;" horiz-adv-x="507" 
d="M181 469l-66 186h-2q2 -69 6 -138t4 -138v-379h-50v700h70l182 -469l66 -186h2q-2 69 -6 138t-4 138v379h50v-700h-70zM227 -115v50h52v-50q0 -29 -12 -48t-36 -19h-4v23h4q13 0 17.5 13.5t4.5 30.5h-26z" />
    <glyph glyph-name="uni0146" unicode="&#x146;" horiz-adv-x="446" 
d="M69 500h166q34 0 61 -10.5t45.5 -28t28 -41t9.5 -50.5v-370h-45v370q0 18 -5.5 33.5t-18 27.5t-33 19t-50.5 7h-158v43zM69 434l45 20v-454h-45v434zM197 -115v50h52v-50q0 -29 -12 -48t-36 -19h-4v23h4q13 0 17.5 13.5t4.5 30.5h-26z" />
    <glyph glyph-name="Ncaron" unicode="&#x147;" horiz-adv-x="507" 
d="M181 469l-66 186h-2q2 -69 6 -138t4 -138v-379h-50v700h70l182 -469l66 -186h2q-2 69 -6 138t-4 138v379h50v-700h-70zM274 765h-40l-109 135h50l79 -89l78 89h50z" />
    <glyph glyph-name="ncaron" unicode="&#x148;" horiz-adv-x="446" 
d="M69 500h166q34 0 61 -10.5t45.5 -28t28 -41t9.5 -50.5v-370h-45v370q0 18 -5.5 33.5t-18 27.5t-33 19t-50.5 7h-158v43zM69 434l45 20v-454h-45v434zM243 565h-40l-109 135h50l79 -89l78 89h50z" />
    <glyph glyph-name="Eng" unicode="&#x14a;" horiz-adv-x="535" 
d="M181 469l-66 186h-2q2 -69 6 -138t4 -138v-379h-50v700h70l182 -469l66 -186h2q-2 69 -6 138t-4 138v379h50v-641l1 1v-160q0 -32 -6 -59t-20 -47.5t-36.5 -32t-54.5 -11.5h-18v43h18q21 0 35 9t22 24t11.5 34t3.5 40v100h-26z" />
    <glyph glyph-name="eng" unicode="&#x14b;" horiz-adv-x="446" 
d="M334 370q0 18 -5.5 33.5t-18 27.5t-33 19t-50.5 7h-158v43h166q34 0 61 -10.5t45.5 -28t28 -41t9.5 -50.5v-510q0 -46 -26.5 -78t-90.5 -32h-18v43h18q42 0 57 20.5t15 46.5v510zM69 434l45 20v-454h-45v434z" />
    <glyph glyph-name="Omacron" unicode="&#x14c;" horiz-adv-x="498" 
d="M434 516v-337q0 -88 -43 -136t-126 -48h-32q-83 0 -126 48t-43 136v342q0 88 43 136t126 48h32q82 0 125.5 -48t43.5 -136h-50q0 70 -30.5 104t-89.5 34h-30q-59 0 -89.5 -34t-30.5 -104v-342q0 -70 30.5 -104t89.5 -34h30q58 0 89 34t31 104v317zM97 831h305v-42h-305
v42z" />
    <glyph glyph-name="omacron" unicode="&#x14d;" horiz-adv-x="441" 
d="M335 335l45 20v-220q0 -29 -10.5 -54t-30.5 -44.5t-50 -30.5t-69 -11t-69 11t-50 30.5t-30.5 44.5t-10.5 54v230q0 28 10.5 53.5t30.5 45t50 30.5t69 11t69 -11t50 -30.5t30.5 -45t10.5 -53.5h-45q0 40 -29 68.5t-86 28.5t-86 -28.5t-29 -68.5v-230q0 -40 29 -68.5
t86 -28.5t86 28.5t29 68.5v200zM68 631h305v-42h-305v42z" />
    <glyph glyph-name="Obreve" unicode="&#x14e;" horiz-adv-x="498" 
d="M434 516v-337q0 -88 -43 -136t-126 -48h-32q-83 0 -126 48t-43 136v342q0 88 43 136t126 48h32q82 0 125.5 -48t43.5 -136h-50q0 70 -30.5 104t-89.5 34h-30q-59 0 -89.5 -34t-30.5 -104v-342q0 -70 30.5 -104t89.5 -34h30q58 0 89 34t31 104v317zM373 873
q0 -61 -31.5 -88t-91.5 -27q-61 0 -92.5 27t-31.5 88h43q0 -44 20.5 -59t60.5 -15q39 0 59.5 15t20.5 59h43z" />
    <glyph glyph-name="obreve" unicode="&#x14f;" horiz-adv-x="441" 
d="M335 335l45 20v-220q0 -29 -10.5 -54t-30.5 -44.5t-50 -30.5t-69 -11t-69 11t-50 30.5t-30.5 44.5t-10.5 54v230q0 28 10.5 53.5t30.5 45t50 30.5t69 11t69 -11t50 -30.5t30.5 -45t10.5 -53.5h-45q0 40 -29 68.5t-86 28.5t-86 -28.5t-29 -68.5v-230q0 -40 29 -68.5
t86 -28.5t86 28.5t29 68.5v200zM344 673q0 -61 -31.5 -88t-91.5 -27q-61 0 -92.5 27t-31.5 88h43q0 -44 20.5 -59t60.5 -15q39 0 59.5 15t20.5 59h43z" />
    <glyph glyph-name="Ohungarumlaut" unicode="&#x150;" horiz-adv-x="498" 
d="M434 516v-337q0 -88 -43 -136t-126 -48h-32q-83 0 -126 48t-43 136v342q0 88 43 136t126 48h32q82 0 125.5 -48t43.5 -136h-50q0 70 -30.5 104t-89.5 34h-30q-59 0 -89.5 -34t-30.5 -104v-342q0 -70 30.5 -104t89.5 -34h30q58 0 89 34t31 104v317zM186 765h-40l80 135h70
zM302 765h-40l80 135h70z" />
    <glyph glyph-name="ohungarumlaut" unicode="&#x151;" horiz-adv-x="441" 
d="M335 335l45 20v-220q0 -29 -10.5 -54t-30.5 -44.5t-50 -30.5t-69 -11t-69 11t-50 30.5t-30.5 44.5t-10.5 54v230q0 28 10.5 53.5t30.5 45t50 30.5t69 11t69 -11t50 -30.5t30.5 -45t10.5 -53.5h-45q0 40 -29 68.5t-86 28.5t-86 -28.5t-29 -68.5v-230q0 -40 29 -68.5
t86 -28.5t86 28.5t29 68.5v200zM167 565h-40l80 135h70zM283 565h-40l80 135h70z" />
    <glyph glyph-name="OE" unicode="&#x152;" horiz-adv-x="702" 
d="M245 705q76 0 118 -48v43h290v-46h-240v-475q0 -133 120 -133h120v-46h-121q-108 0 -143 86q-35 -91 -144 -91h-12q-82 0 -125.5 48t-43.5 136v342q0 88 43 136t126 48h12zM244 41q58 0 89 34t31 104h-1v366q-5 57 -35.5 85.5t-83.5 28.5h-10q-120 0 -120 -138v-342
q0 -70 30.5 -104t89.5 -34h10zM418 373h185v-46h-165z" />
    <glyph glyph-name="oe" unicode="&#x153;" horiz-adv-x="702" 
d="M491 0q-58 0 -91.5 29.5t-42.5 75.5q-8 -47 -42.5 -78.5t-94.5 -31.5q-39 0 -69 11t-50 30.5t-30.5 44.5t-10.5 54v230q0 28 10.5 53.5t30.5 45t50 30.5t69 11q58 0 92.5 -30.5t43.5 -75.5q8 48 42 79.5t93 31.5q37 0 65.5 -10.5t48 -28t29.5 -41t10 -50.5v-144h-240
l-20 43h215v101q0 36 -27.5 61.5t-80.5 25.5q-56 0 -84 -28.5t-28 -68.5v-230q0 -41 28 -69t84 -28h138v-43h-138zM335 365q0 40 -29 68.5t-86 28.5t-86 -28.5t-29 -68.5v-230q0 -40 29 -68.5t86 -28.5t86 28.5t29 68.5v230z" />
    <glyph glyph-name="Racute" unicode="&#x154;" horiz-adv-x="446" 
d="M133 311h90q29 0 51.5 10t37.5 27t23 39.5t8 47.5v95q0 25 -8 47.5t-23 39.5t-37.5 27t-51.5 10h-150v46h150q41 0 73 -13.5t53.5 -37t32.5 -54.5t11 -65v-95q0 -54 -25.5 -96.5t-75.5 -61.5l103 -277h-53l-103 265h-86zM73 628l50 20v-648h-50v628zM223 765h-40l90 135
h70z" />
    <glyph glyph-name="racute" unicode="&#x155;" horiz-adv-x="266" 
d="M69 350q0 31 10 58t29.5 47.5t49 32.5t68.5 12h25v-43h-25q-56 0 -84 -31t-28 -76v-350h-45v350zM133 565h-40l90 135h70z" />
    <glyph glyph-name="Rcommaaccent" unicode="&#x156;" horiz-adv-x="446" 
d="M133 311h90q29 0 51.5 10t37.5 27t23 39.5t8 47.5v95q0 25 -8 47.5t-23 39.5t-37.5 27t-51.5 10h-150v46h150q41 0 73 -13.5t53.5 -37t32.5 -54.5t11 -65v-95q0 -54 -25.5 -96.5t-75.5 -61.5l103 -277h-53l-103 265h-86zM73 628l50 20v-648h-50v628zM197 -115v50h52v-50
q0 -29 -12 -48t-36 -19h-4v23h4q13 0 17.5 13.5t4.5 30.5h-26z" />
    <glyph glyph-name="rcommaaccent" unicode="&#x157;" horiz-adv-x="266" 
d="M69 350q0 31 10 58t29.5 47.5t49 32.5t68.5 12h25v-43h-25q-56 0 -84 -31t-28 -76v-350h-45v350zM65 -115v50h52v-50q0 -29 -12 -48t-36 -19h-4v23h4q13 0 17.5 13.5t4.5 30.5h-26z" />
    <glyph glyph-name="Rcaron" unicode="&#x158;" horiz-adv-x="446" 
d="M133 311h90q29 0 51.5 10t37.5 27t23 39.5t8 47.5v95q0 25 -8 47.5t-23 39.5t-37.5 27t-51.5 10h-150v46h150q41 0 73 -13.5t53.5 -37t32.5 -54.5t11 -65v-95q0 -54 -25.5 -96.5t-75.5 -61.5l103 -277h-53l-103 265h-86zM73 628l50 20v-648h-50v628zM243 765h-40
l-109 135h50l79 -89l78 89h50z" />
    <glyph glyph-name="rcaron" unicode="&#x159;" horiz-adv-x="266" 
d="M69 350q0 31 10 58t29.5 47.5t49 32.5t68.5 12h25v-43h-25q-56 0 -84 -31t-28 -76v-350h-45v350zM186 565h-40l-109 135h50l79 -89l78 89h50z" />
    <glyph glyph-name="Sacute" unicode="&#x15a;" horiz-adv-x="443" 
d="M393 179q0 -86 -43.5 -132.5t-127.5 -46.5h-163v46h163q121 0 121 131q0 43 -12 68.5t-31.5 41.5t-44 24.5t-49.5 16.5q-27 9 -53.5 20t-47.5 29.5t-35.5 46.5t-17.5 72l49 20q1 -40 12 -64.5t29.5 -39.5t42.5 -23.5t51 -17.5q31 -10 59 -23.5t50 -35t35 -53.5t13 -80z
M220 700h151v-46h-150q-59 0 -89.5 -32.5t-30.5 -100.5h-50q0 86 43 132.5t126 46.5zM221 765h-40l90 135h70z" />
    <glyph glyph-name="sacute" unicode="&#x15b;" horiz-adv-x="400" 
d="M94 356q4 -20 14 -32.5t24.5 -21.5t32 -15t35.5 -11q39 -11 68 -22t48.5 -26.5t29 -38.5t9.5 -57q0 -63 -40.5 -97.5t-111.5 -34.5h-156v43h156q50 0 78.5 23t28.5 63q0 24 -8 40.5t-23 27.5t-37.5 19t-52.5 16q-19 5 -40.5 11.5t-41 17.5t-35 29t-21.5 47zM92 365h-45v8
q0 57 39.5 92t111.5 35h127v-43h-127q-51 0 -78.5 -23.5t-27.5 -58.5v-10zM200 565h-40l90 135h70z" />
    <glyph glyph-name="Scircumflex" unicode="&#x15c;" horiz-adv-x="443" 
d="M393 179q0 -86 -43.5 -132.5t-127.5 -46.5h-163v46h163q121 0 121 131q0 43 -12 68.5t-31.5 41.5t-44 24.5t-49.5 16.5q-27 9 -53.5 20t-47.5 29.5t-35.5 46.5t-17.5 72l49 20q1 -40 12 -64.5t29.5 -39.5t42.5 -23.5t51 -17.5q31 -10 59 -23.5t50 -35t35 -53.5t13 -80z
M220 700h151v-46h-150q-59 0 -89.5 -32.5t-30.5 -100.5h-50q0 86 43 132.5t126 46.5zM350 765h-50l-78 89l-79 -89h-50l109 135h40z" />
    <glyph glyph-name="scircumflex" unicode="&#x15d;" horiz-adv-x="400" 
d="M94 356q4 -20 14 -32.5t24.5 -21.5t32 -15t35.5 -11q39 -11 68 -22t48.5 -26.5t29 -38.5t9.5 -57q0 -63 -40.5 -97.5t-111.5 -34.5h-156v43h156q50 0 78.5 23t28.5 63q0 24 -8 40.5t-23 27.5t-37.5 19t-52.5 16q-19 5 -40.5 11.5t-41 17.5t-35 29t-21.5 47zM92 365h-45v8
q0 57 39.5 92t111.5 35h127v-43h-127q-51 0 -78.5 -23.5t-27.5 -58.5v-10zM328 565h-50l-78 89l-79 -89h-50l109 135h40z" />
    <glyph glyph-name="Scedilla" unicode="&#x15e;" horiz-adv-x="443" 
d="M393 179q0 -83 -41 -129.5t-119 -49.5l-14 -47q23 -1 38.5 -8.5t24.5 -17.5t12.5 -21.5t3.5 -21.5q0 -11 -4.5 -23t-14 -21.5t-24.5 -16t-36 -6.5q-10 0 -31.5 1.5t-42.5 12.5l10 27q17 -7 32.5 -9t26.5 -2q16 0 29.5 8.5t13.5 28.5q0 18 -15 28.5t-38 10.5h-6l-16 13
l20 64h-143v46h163q121 0 121 131q0 43 -12 68.5t-31.5 41.5t-44 24.5t-49.5 16.5q-27 9 -53.5 20t-47.5 29.5t-35.5 46.5t-17.5 72l49 20q1 -40 12 -64.5t29.5 -39.5t42.5 -23.5t51 -17.5q31 -10 59 -23.5t50 -35t35 -53.5t13 -80zM220 700h151v-46h-150q-59 0 -89.5 -32.5
t-30.5 -100.5h-50q0 86 43 132.5t126 46.5z" />
    <glyph glyph-name="scedilla" unicode="&#x15f;" horiz-adv-x="400" 
d="M94 356q4 -20 14 -32.5t24.5 -21.5t32 -15t35.5 -11q39 -11 68 -22t48.5 -26.5t29 -38.5t9.5 -57q0 -62 -38.5 -96t-105.5 -36l-14 -47q23 -1 38.5 -8.5t24.5 -17.5t12.5 -21.5t3.5 -21.5q0 -11 -4.5 -23t-14 -21.5t-24.5 -16t-36 -6.5q-10 0 -31.5 1.5t-42.5 12.5l10 27
q17 -7 32.5 -9t26.5 -2q16 0 29.5 8.5t13.5 28.5q0 18 -15 28.5t-38 10.5h-6l-16 13l20 64h-133v43h156q50 0 78.5 23t28.5 63q0 24 -8 40.5t-23 27.5t-37.5 19t-52.5 16q-19 5 -40.5 11.5t-41 17.5t-35 29t-21.5 47zM92 365h-45v8q0 57 39.5 92t111.5 35h127v-43h-127
q-51 0 -78.5 -23.5t-27.5 -58.5v-10z" />
    <glyph glyph-name="Scaron" unicode="&#x160;" horiz-adv-x="443" 
d="M393 179q0 -86 -43.5 -132.5t-127.5 -46.5h-163v46h163q121 0 121 131q0 43 -12 68.5t-31.5 41.5t-44 24.5t-49.5 16.5q-27 9 -53.5 20t-47.5 29.5t-35.5 46.5t-17.5 72l49 20q1 -40 12 -64.5t29.5 -39.5t42.5 -23.5t51 -17.5q31 -10 59 -23.5t50 -35t35 -53.5t13 -80z
M220 700h151v-46h-150q-59 0 -89.5 -32.5t-30.5 -100.5h-50q0 86 43 132.5t126 46.5zM242 765h-40l-109 135h50l79 -89l78 89h50z" />
    <glyph glyph-name="scaron" unicode="&#x161;" horiz-adv-x="400" 
d="M94 356q4 -20 14 -32.5t24.5 -21.5t32 -15t35.5 -11q39 -11 68 -22t48.5 -26.5t29 -38.5t9.5 -57q0 -63 -40.5 -97.5t-111.5 -34.5h-156v43h156q50 0 78.5 23t28.5 63q0 24 -8 40.5t-23 27.5t-37.5 19t-52.5 16q-19 5 -40.5 11.5t-41 17.5t-35 29t-21.5 47zM92 365h-45v8
q0 57 39.5 92t111.5 35h127v-43h-127q-51 0 -78.5 -23.5t-27.5 -58.5v-10zM220 565h-40l-109 135h50l79 -89l78 89h50z" />
    <glyph glyph-name="uni0162" unicode="&#x162;" horiz-adv-x="398" 
d="M182 0h-8v631l50 20v-651h-11l-14 -47q23 -1 38.5 -8.5t24.5 -17.5t12.5 -21.5t3.5 -21.5q0 -11 -4.5 -23t-14 -21.5t-24.5 -16t-36 -6.5q-10 0 -31.5 1.5t-42.5 12.5l10 27q17 -7 32.5 -9t26.5 -2q16 0 29.5 8.5t13.5 28.5q0 18 -15 28.5t-38 10.5h-6l-16 13zM29 654v46
h340v-46h-340z" />
    <glyph glyph-name="uni0163" unicode="&#x163;" horiz-adv-x="314" 
d="M177 4q-59 13 -88 61.5t-29 114.5v430h45v-430q0 -26 5 -51t18 -44t34.5 -30.5t54.5 -11.5h67v-43h-77l-14 -47q23 -1 38.5 -8.5t24.5 -17.5t12.5 -21.5t3.5 -21.5q0 -11 -4.5 -23t-14 -21.5t-24.5 -16t-36 -6.5q-10 0 -31.5 1.5t-42.5 12.5l10 27q17 -7 32.5 -9t26.5 -2
q16 0 29.5 8.5t13.5 28.5q0 18 -15 28.5t-38 10.5h-6l-16 13zM107 495h167v-40h-147z" />
    <glyph glyph-name="Tcaron" unicode="&#x164;" horiz-adv-x="398" 
d="M224 651v-651h-50v631zM29 654v46h340v-46h-340zM219 765h-40l-109 135h50l79 -89l78 89h50z" />
    <glyph glyph-name="tcaron" unicode="&#x165;" horiz-adv-x="314" 
d="M105 180q0 -26 5 -51t18 -44t34.5 -30.5t54.5 -11.5h67v-43h-67q-39 0 -68.5 14t-49 38t-29.5 57t-10 71v430h45v-430zM107 495h167v-40h-147zM256 644v56h58v-56q0 -32 -13.5 -53t-40.5 -21h-4v26h4q14 0 19.5 14.5t5.5 33.5h-29z" />
    <glyph glyph-name="Tbar" unicode="&#x166;" horiz-adv-x="398" 
d="M224 651v-152h128v-42h-128v-457h-50v457h-127v42h127v132zM29 654v46h340v-46h-340z" />
    <glyph glyph-name="tbar" unicode="&#x167;" horiz-adv-x="314" 
d="M105 180q0 -26 5 -51t18 -44t34.5 -30.5t54.5 -11.5h67v-43h-67q-39 0 -68.5 14t-49 38t-29.5 57t-10 71v430h45v-430zM107 495h167v-40h-147zM107 375h167v-40h-147z" />
    <glyph glyph-name="Utilde" unicode="&#x168;" horiz-adv-x="479" 
d="M414 150q0 -32 -11.5 -60t-33.5 -49t-54.5 -33.5t-75.5 -12.5t-75.5 12.5t-54.5 33.5t-33.5 49t-11.5 60v550h50v-550q0 -22 8 -42t24 -35t39.5 -23.5t53.5 -8.5t53.5 8.5t39.5 23.5t24 35t8 42v550h50v-550zM306 799q24 0 59 33l24 -22q-49 -44 -81 -44q-24 0 -73 25
q-47 25 -61 25q-28 0 -63 -31l-22 22q44 43 84 43q26 0 70 -26q23 -14 38.5 -19.5t24.5 -5.5z" />
    <glyph glyph-name="utilde" unicode="&#x169;" horiz-adv-x="445" 
d="M374 500v-365q0 -29 -10 -54t-29.5 -44.5t-48 -30.5t-66.5 -11t-66.5 11t-48 30.5t-29.5 44.5t-10 54v365h45v-365q0 -40 27.5 -68.5t81.5 -28.5t81.5 28.5t27.5 68.5v365h45zM289 599q24 0 59 33l24 -22q-49 -44 -81 -44q-24 0 -73 25q-47 25 -61 25q-28 0 -63 -31
l-22 22q44 43 84 43q26 0 70 -26q23 -14 38.5 -19.5t24.5 -5.5z" />
    <glyph glyph-name="Umacron" unicode="&#x16a;" horiz-adv-x="479" 
d="M414 150q0 -32 -11.5 -60t-33.5 -49t-54.5 -33.5t-75.5 -12.5t-75.5 12.5t-54.5 33.5t-33.5 49t-11.5 60v550h50v-550q0 -22 8 -42t24 -35t39.5 -23.5t53.5 -8.5t53.5 8.5t39.5 23.5t24 35t8 42v550h50v-550zM87 831h305v-42h-305v42z" />
    <glyph glyph-name="umacron" unicode="&#x16b;" horiz-adv-x="445" 
d="M374 500v-365q0 -29 -10 -54t-29.5 -44.5t-48 -30.5t-66.5 -11t-66.5 11t-48 30.5t-29.5 44.5t-10 54v365h45v-365q0 -40 27.5 -68.5t81.5 -28.5t81.5 28.5t27.5 68.5v365h45zM70 631h305v-42h-305v42z" />
    <glyph glyph-name="Ubreve" unicode="&#x16c;" horiz-adv-x="479" 
d="M414 150q0 -32 -11.5 -60t-33.5 -49t-54.5 -33.5t-75.5 -12.5t-75.5 12.5t-54.5 33.5t-33.5 49t-11.5 60v550h50v-550q0 -22 8 -42t24 -35t39.5 -23.5t53.5 -8.5t53.5 8.5t39.5 23.5t24 35t8 42v550h50v-550zM363 873q0 -61 -31.5 -88t-91.5 -27q-61 0 -92.5 27t-31.5 88
h43q0 -44 20.5 -59t60.5 -15q39 0 59.5 15t20.5 59h43z" />
    <glyph glyph-name="ubreve" unicode="&#x16d;" horiz-adv-x="445" 
d="M374 500v-365q0 -29 -10 -54t-29.5 -44.5t-48 -30.5t-66.5 -11t-66.5 11t-48 30.5t-29.5 44.5t-10 54v365h45v-365q0 -40 27.5 -68.5t81.5 -28.5t81.5 28.5t27.5 68.5v365h45zM346 673q0 -61 -31.5 -88t-91.5 -27q-61 0 -92.5 27t-31.5 88h43q0 -44 20.5 -59t60.5 -15
q39 0 59.5 15t20.5 59h43z" />
    <glyph glyph-name="Uring" unicode="&#x16e;" horiz-adv-x="479" 
d="M414 150q0 -32 -11.5 -60t-33.5 -49t-54.5 -33.5t-75.5 -12.5t-75.5 12.5t-54.5 33.5t-33.5 49t-11.5 60v550h50v-550q0 -22 8 -42t24 -35t39.5 -23.5t53.5 -8.5t53.5 8.5t39.5 23.5t24 35t8 42v550h50v-550zM149 810q0 38 26 64t64 26t64 -26t26 -64t-26 -64t-64 -26
t-64 26t-26 64zM189 810q0 -21 14.5 -35.5t35.5 -14.5t35.5 14.5t14.5 35.5t-14.5 35.5t-35.5 14.5t-35.5 -14.5t-14.5 -35.5z" />
    <glyph glyph-name="uring" unicode="&#x16f;" horiz-adv-x="445" 
d="M374 500v-365q0 -29 -10 -54t-29.5 -44.5t-48 -30.5t-66.5 -11t-66.5 11t-48 30.5t-29.5 44.5t-10 54v365h45v-365q0 -40 27.5 -68.5t81.5 -28.5t81.5 28.5t27.5 68.5v365h45zM132 610q0 38 26 64t64 26t64 -26t26 -64t-26 -64t-64 -26t-64 26t-26 64zM172 610
q0 -21 14.5 -35.5t35.5 -14.5t35.5 14.5t14.5 35.5t-14.5 35.5t-35.5 14.5t-35.5 -14.5t-14.5 -35.5z" />
    <glyph glyph-name="Uhungarumlaut" unicode="&#x170;" horiz-adv-x="479" 
d="M414 150q0 -32 -11.5 -60t-33.5 -49t-54.5 -33.5t-75.5 -12.5t-75.5 12.5t-54.5 33.5t-33.5 49t-11.5 60v550h50v-550q0 -22 8 -42t24 -35t39.5 -23.5t53.5 -8.5t53.5 8.5t39.5 23.5t24 35t8 42v550h50v-550zM186 765h-40l80 135h70zM302 765h-40l80 135h70z" />
    <glyph glyph-name="uhungarumlaut" unicode="&#x171;" horiz-adv-x="445" 
d="M374 500v-365q0 -29 -10 -54t-29.5 -44.5t-48 -30.5t-66.5 -11t-66.5 11t-48 30.5t-29.5 44.5t-10 54v365h45v-365q0 -40 27.5 -68.5t81.5 -28.5t81.5 28.5t27.5 68.5v365h45zM169 565h-40l80 135h70zM285 565h-40l80 135h70z" />
    <glyph glyph-name="Uogonek" unicode="&#x172;" horiz-adv-x="479" 
d="M414 170q0 -47 -18.5 -87t-54.5 -64q-23 -22 -36.5 -48t-13.5 -46q0 -21 12 -32t33 -11q20 0 49 14l15 -36q-15 -9 -34.5 -15t-40.5 -6q-36 0 -58 22.5t-22 54.5q0 17 7 36.5t24 41.5q-9 -2 -18 -3t-19 -1q-43 0 -75.5 14.5t-54.5 39t-33.5 57.5t-11.5 69v530h50v-530
q0 -27 8 -51.5t24 -42.5t39.5 -29t53.5 -11t53.5 11t39.5 29t24 42.5t8 51.5v530h50v-530z" />
    <glyph glyph-name="uogonek" unicode="&#x173;" horiz-adv-x="445" 
d="M215 -84q0 38 34 81q-7 -1 -14 -1.5t-15 -0.5q-38 0 -66.5 11t-48 30.5t-29.5 44.5t-10 54v365h45v-365q0 -40 27.5 -68.5t81.5 -28.5t81.5 28.5t27.5 68.5v365h45v-365q0 -37 -16.5 -68t-48.5 -50q-22 -21 -35 -46.5t-13 -45.5q0 -21 12 -32t33 -11q20 0 49 14l15 -36
q-15 -9 -34.5 -15t-40.5 -6q-36 0 -58 22.5t-22 54.5z" />
    <glyph glyph-name="Wcircumflex" unicode="&#x174;" horiz-adv-x="710" 
d="M229 0h-50l-150 700h49l94 -438q11 -48 17 -96.5t14 -96.5h2q8 48 14 96.5t17 96.5l94 438h50l94 -438q11 -48 17 -96.5t14 -96.5h2q8 48 14 96.5t17 96.5l94 438h49l-150 -700h-50l-94 439q-11 48 -17 96.5t-14 96.5h-2q-8 -48 -14 -96.5t-17 -96.5zM483 765h-50l-78 89
l-79 -89h-50l109 135h40z" />
    <glyph glyph-name="wcircumflex" unicode="&#x175;" horiz-adv-x="580" 
d="M551 500l-120 -500h-44l-76 317q-8 30 -11.5 61t-8.5 62h-2q-5 -31 -8.5 -62t-11.5 -61l-76 -317h-44l-120 500h45l75 -317q8 -30 12 -61t9 -62h2q5 31 9 62t12 61l75 317h44l75 -317q8 -30 12 -61t9 -62h2q5 31 9 62t12 61l75 317h45zM418 565h-50l-78 89l-79 -89h-50
l109 135h40z" />
    <glyph glyph-name="Ycircumflex" unicode="&#x176;" horiz-adv-x="449" 
d="M368 700h52l-171 -425v-275h-50v275l-170 425h53l102 -257q12 -29 20.5 -59.5t18.5 -60.5h2q10 30 18.5 60.5t20.5 59.5zM353 765h-50l-78 89l-79 -89h-50l109 135h40z" />
    <glyph glyph-name="ycircumflex" unicode="&#x177;" horiz-adv-x="415" 
d="M160 178q14 -47 23.5 -93.5t20.5 -94.5h2q11 48 20.5 94.5t22.5 93.5l88 322h44l-205 -750h-44l51 185l-162 565h46zM336 565h-50l-78 89l-79 -89h-50l109 135h40z" />
    <glyph glyph-name="Ydieresis" unicode="&#x178;" horiz-adv-x="449" 
d="M368 700h52l-171 -425v-275h-50v275l-170 425h53l102 -257q12 -29 20.5 -59.5t18.5 -60.5h2q10 30 18.5 60.5t20.5 59.5zM127 855h45v-90h-45v90zM277 855h45v-90h-45v90z" />
    <glyph glyph-name="Zacute" unicode="&#x179;" horiz-adv-x="385" 
d="M86 46h266v-46h-320v39l266 615h-266v46h320v-39zM192 765h-40l90 135h70z" />
    <glyph glyph-name="zacute" unicode="&#x17a;" horiz-adv-x="365" 
d="M89 43h238v-43h-290v36l238 421h-238v43h290v-36zM182 565h-40l90 135h70z" />
    <glyph glyph-name="Zdotaccent" unicode="&#x17b;" horiz-adv-x="385" 
d="M86 46h266v-46h-320v39l266 615h-266v46h320v-39zM170 855h45v-90h-45v90z" />
    <glyph glyph-name="zdotaccent" unicode="&#x17c;" horiz-adv-x="365" 
d="M89 43h238v-43h-290v36l238 421h-238v43h290v-36zM160 655h45v-90h-45v90z" />
    <glyph glyph-name="Zcaron" unicode="&#x17d;" horiz-adv-x="385" 
d="M86 46h266v-46h-320v39l266 615h-266v46h320v-39zM214 765h-40l-109 135h50l79 -89l78 89h50z" />
    <glyph glyph-name="zcaron" unicode="&#x17e;" horiz-adv-x="365" 
d="M89 43h238v-43h-290v36l238 421h-238v43h290v-36zM204 565h-40l-109 135h50l79 -89l78 89h50z" />
    <glyph glyph-name="florin" unicode="&#x192;" horiz-adv-x="336" 
d="M146 -50q0 -54 -39.5 -92t-117.5 -38v41q33 0 54.5 7.5t34.5 20t18 28.5t5 33v505h-80v40h80v100q0 29 10 54.5t29.5 44.5t49 30t68.5 11h37v-41h-37q-33 0 -54.5 -8.5t-34.5 -22t-18 -31.5t-5 -37v-645zM151 495h164v-40h-144z" />
    <glyph glyph-name="aeacute" unicode="&#x1fd;" horiz-adv-x="682" 
d="M471 0q-59 0 -93 30.5t-42 78.5q-9 -49 -43.5 -81.5t-98.5 -32.5q-42 0 -69.5 10t-44 27.5t-23.5 42.5t-7 55q0 36 12 61.5t32.5 43t47.5 28t58 15.5l94 16l18 -41l-105 -19q-22 -4 -42.5 -11t-36 -19.5t-24.5 -30.5t-9 -44q0 -20 3.5 -36t14.5 -28t31.5 -18.5t53.5 -6.5
q60 0 88.5 32t28.5 78v210q0 40 -26.5 68.5t-75.5 28.5h-128v43h128q51 0 82 -28.5t41 -73.5q8 48 41.5 80t93.5 32q37 0 65.5 -10.5t48 -28t29.5 -41t10 -50.5v-144h-240l-20 43h215v101q0 36 -27.5 61.5t-80.5 25.5q-56 0 -84 -28.5t-28 -68.5v-230q0 -41 28 -69t84 -28
h138v-43h-138zM341 565h-40l90 135h70z" />
    <glyph glyph-name="oslashacute" unicode="&#x1ff;" horiz-adv-x="441" 
d="M335 335l45 20v-220q0 -29 -10.5 -54t-30.5 -44.5t-50 -30.5t-69 -11q-42 0 -73 12.5t-51 33.5l-45 -65l-31 23l53 75q-13 27 -13 61v230q0 28 10.5 53.5t30.5 45t50 30.5t69 11q41 0 72 -12.5t51 -33.5l46 66l31 -23l-54 -76q14 -30 14 -61h-45q0 4 -0.5 7.5t-0.5 6.5
l-211 -300q14 -19 38 -30t59 -11q57 0 86 28.5t29 68.5v200zM220 462q-57 0 -86 -28.5t-29 -68.5v-230q0 -10 1 -14l210 300q-14 19 -38 30t-58 11zM223 565h-40l90 135h70z" />
    <glyph glyph-name="uni0218" unicode="&#x218;" horiz-adv-x="443" 
d="M393 179q0 -86 -43.5 -132.5t-127.5 -46.5h-163v46h163q121 0 121 131q0 43 -12 68.5t-31.5 41.5t-44 24.5t-49.5 16.5q-27 9 -53.5 20t-47.5 29.5t-35.5 46.5t-17.5 72l49 20q1 -40 12 -64.5t29.5 -39.5t42.5 -23.5t51 -17.5q31 -10 59 -23.5t50 -35t35 -53.5t13 -80z
M220 700h151v-46h-150q-59 0 -89.5 -32.5t-30.5 -100.5h-50q0 86 43 132.5t126 46.5zM195 -115v50h52v-50q0 -29 -12 -48t-36 -19h-4v23h4q13 0 17.5 13.5t4.5 30.5h-26z" />
    <glyph glyph-name="uni0219" unicode="&#x219;" horiz-adv-x="400" 
d="M94 356q4 -20 14 -32.5t24.5 -21.5t32 -15t35.5 -11q39 -11 68 -22t48.5 -26.5t29 -38.5t9.5 -57q0 -63 -40.5 -97.5t-111.5 -34.5h-156v43h156q50 0 78.5 23t28.5 63q0 24 -8 40.5t-23 27.5t-37.5 19t-52.5 16q-19 5 -40.5 11.5t-41 17.5t-35 29t-21.5 47zM92 365h-45v8
q0 57 39.5 92t111.5 35h127v-43h-127q-51 0 -78.5 -23.5t-27.5 -58.5v-10zM174 -115v50h52v-50q0 -29 -12 -48t-36 -19h-4v23h4q13 0 17.5 13.5t4.5 30.5h-26z" />
    <glyph glyph-name="uni021A" unicode="&#x21a;" horiz-adv-x="398" 
d="M224 651v-651h-50v631zM29 654v46h340v-46h-340zM173 -115v50h52v-50q0 -29 -12 -48t-36 -19h-4v23h4q13 0 17.5 13.5t4.5 30.5h-26z" />
    <glyph glyph-name="uni021B" unicode="&#x21b;" horiz-adv-x="314" 
d="M105 180q0 -26 5 -51t18 -44t34.5 -30.5t54.5 -11.5h67v-43h-67q-39 0 -68.5 14t-49 38t-29.5 57t-10 71v430h45v-430zM107 495h167v-40h-147zM131 -115v50h52v-50q0 -29 -12 -48t-36 -19h-4v23h4q13 0 17.5 13.5t4.5 30.5h-26z" />
    <glyph glyph-name="dotlessj" unicode="&#x237;" horiz-adv-x="173" 
d="M64 -250v750h45v-730z" />
    <glyph glyph-name="circumflex" unicode="&#x2c6;" horiz-adv-x="387" 
d="M322 565h-50l-78 89l-79 -89h-50l109 135h40z" />
    <glyph glyph-name="caron" unicode="&#x2c7;" horiz-adv-x="387" 
d="M214 565h-40l-109 135h50l79 -89l78 89h50z" />
    <glyph glyph-name="breve" unicode="&#x2d8;" horiz-adv-x="357" 
d="M302 673q0 -61 -31.5 -88t-91.5 -27q-61 0 -92.5 27t-31.5 88h43q0 -44 20.5 -59t60.5 -15q39 0 59.5 15t20.5 59h43z" />
    <glyph glyph-name="dotaccent" unicode="&#x2d9;" horiz-adv-x="155" 
d="M55 655h45v-90h-45v90z" />
    <glyph glyph-name="ring" unicode="&#x2da;" horiz-adv-x="222" 
d="M21 610q0 38 26 64t64 26t64 -26t26 -64t-26 -64t-64 -26t-64 26t-26 64zM61 610q0 -21 14.5 -35.5t35.5 -14.5t35.5 14.5t14.5 35.5t-14.5 35.5t-35.5 14.5t-35.5 -14.5t-14.5 -35.5z" />
    <glyph glyph-name="ogonek" unicode="&#x2db;" horiz-adv-x="283" 
d="M64 -84q0 23 13 49t43 57l22 -22q-32 -43 -32 -75q0 -21 12 -32t33 -11q20 0 49 14l15 -36q-15 -9 -34.5 -15t-40.5 -6q-36 0 -58 22.5t-22 54.5z" />
    <glyph glyph-name="tilde" unicode="&#x2dc;" horiz-adv-x="410" 
d="M272 599q24 0 59 33l24 -22q-49 -44 -81 -44q-24 0 -73 25q-47 25 -61 25q-28 0 -63 -31l-22 22q44 43 84 43q26 0 70 -26q23 -14 38.5 -19.5t24.5 -5.5z" />
    <glyph glyph-name="hungarumlaut" unicode="&#x2dd;" horiz-adv-x="372" 
d="M93 565h-40l80 135h70zM209 565h-40l80 135h70z" />
    <glyph glyph-name="uni0400" unicode="&#x400;" horiz-adv-x="432" 
d="M128 373h205v-46h-185zM242 0q-83 0 -126 46.5t-43 132.5v521h310v-46h-260v-475q0 -133 120 -133h140v-46h-141zM125 900h70l90 -135h-40z" />
    <glyph glyph-name="uni0401" unicode="&#x401;" horiz-adv-x="432" 
d="M128 373h205v-46h-185zM242 0q-83 0 -126 46.5t-43 132.5v521h310v-46h-260v-475q0 -133 120 -133h140v-46h-141zM139 855h45v-90h-45v90zM289 855h45v-90h-45v90z" />
    <glyph glyph-name="uni0402" unicode="&#x402;" horiz-adv-x="532" 
d="M418 315q0 33 -6 59.5t-21 45t-40.5 29t-64.5 10.5q-38 0 -67.5 -17.5t-50.5 -46.5v-395h-50v654h-95v46h350v-46h-205v-59q0 -36 -2.5 -71.5t-4.5 -70.5q21 23 55.5 37.5t79.5 14.5q42 0 74 -15.5t54 -41.5t33 -60.5t11 -72.5v-145q0 -36 -10 -67t-29.5 -54t-49 -36
t-68.5 -13h-37v46h37q53 0 80 35.5t27 88.5v145z" />
    <glyph glyph-name="uni0403" unicode="&#x403;" horiz-adv-x="374" 
d="M73 0v700h280v-46h-230v-654h-50zM187 765h-40l90 135h70z" />
    <glyph glyph-name="uni0404" unicode="&#x404;" horiz-adv-x="414" 
d="M139 327h205v46h-225zM114 179q0 -68 30.5 -100.5t89.5 -32.5h150v-46h-151q-83 0 -126 46.5t-43 132.5v342q0 86 43 132.5t126 46.5h151v-46h-150q-59 0 -89.5 -32.5t-30.5 -100.5v-342z" />
    <glyph glyph-name="uni0405" unicode="&#x405;" horiz-adv-x="443" 
d="M393 179q0 -86 -43.5 -132.5t-127.5 -46.5h-163v46h163q121 0 121 131q0 43 -12 68.5t-31.5 41.5t-44 24.5t-49.5 16.5q-27 9 -53.5 20t-47.5 29.5t-35.5 46.5t-17.5 72l49 20q1 -40 12 -64.5t29.5 -39.5t42.5 -23.5t51 -17.5q31 -10 59 -23.5t50 -35t35 -53.5t13 -80z
M220 700h151v-46h-150q-59 0 -89.5 -32.5t-30.5 -100.5h-50q0 86 43 132.5t126 46.5z" />
    <glyph glyph-name="uni0406" unicode="&#x406;" horiz-adv-x="196" 
d="M123 700v-700h-50v700h50z" />
    <glyph glyph-name="uni0407" unicode="&#x407;" horiz-adv-x="196" 
d="M2 855h45v-90h-45v90zM152 855h45v-90h-45v90zM123 700v-700h-50v700h50z" />
    <glyph glyph-name="uni0408" unicode="&#x408;" horiz-adv-x="308" 
d="M194 700h50v-521q0 -86 -43 -132.5t-126 -46.5h-51v46h50q59 0 89.5 32.5t30.5 100.5v521z" />
    <glyph glyph-name="uni0409" unicode="&#x409;" horiz-adv-x="650" 
d="M157 654l2 46h217v-654h60q29 0 51.5 9t37.5 24.5t23 36.5t8 44v115q0 23 -8 44t-23 36.5t-37.5 24.5t-51.5 9h-35l-20 46h55q41 0 73 -13t53.5 -34.5t32.5 -50.5t11 -62v-115q0 -33 -11 -62t-32.5 -50.5t-53.5 -34.5t-73 -13h-110v654h-169zM58 0h-37v46h27
q29 0 47.5 29t30 97.5t18.5 180t12 276.5l50 20q-4 -172 -11.5 -295t-24 -201.5t-43.5 -115.5t-69 -37z" />
    <glyph glyph-name="uni040A" unicode="&#x40a;" horiz-adv-x="667" 
d="M128 373h214v327h51v-654h60q29 0 51.5 9t37.5 24.5t23 36.5t8 44v115q0 23 -8 44t-23 36.5t-37.5 24.5t-51.5 9h-45l-10 46h55q41 0 73 -13t53.5 -34.5t32.5 -50.5t11 -62v-115q0 -33 -11 -62t-32.5 -50.5t-53.5 -34.5t-73 -13h-111v327h-194zM123 0h-50v700h50v-700z
" />
    <glyph glyph-name="uni040B" unicode="&#x40b;" horiz-adv-x="490" 
d="M20 654v46h340v-46h-340zM125 0v629l50 20v-649h-50zM395 0v265q0 25 -8 47.5t-23 39.5t-37.5 27t-51.5 10h-75l-20 46h95q41 0 73 -13.5t53.5 -37t32.5 -54.5t11 -65v-265h-50z" />
    <glyph glyph-name="uni040C" unicode="&#x40c;" horiz-adv-x="457" 
d="M228 765h-40l90 135h70zM128 373h45l193 327h54l-201 -341l211 -359h-54l-193 327h-35zM123 700v-700h-50v700h50z" />
    <glyph glyph-name="uni040D" unicode="&#x40d;" horiz-adv-x="496" 
d="M383 614l-260 -614h-50v700h50v-306l-12 -309h2l260 615h50v-700h-50v306l12 308h-2zM125 900h70l90 -135h-40z" />
    <glyph glyph-name="uni040E" unicode="&#x40e;" horiz-adv-x="449" 
d="M363 700h51l-165 -572q-5 -20 -11 -42.5t-17.5 -42t-28.5 -32.5t-42 -13h-52v46h52q12 0 21 9.5t15 24.5t10 32.5t7 32.5l-169 557h51l104 -341q13 -42 21 -84t18 -84h2q8 42 15.5 84t19.5 84zM348 873q0 -61 -31.5 -88t-91.5 -27q-61 0 -92.5 27t-31.5 88h43
q0 -44 20.5 -59t60.5 -15q39 0 59.5 15t20.5 59h43z" />
    <glyph glyph-name="uni040F" unicode="&#x40f;" horiz-adv-x="496" 
d="M78 700h50v-654h240v654h50v-700h-145v-150h-50v150h-145v700z" />
    <glyph glyph-name="uni0410" unicode="&#x410;" horiz-adv-x="491" 
d="M360 186h-193l-20 46h200l-69 255q-11 42 -17.5 84t-14.5 84h-2q-8 -42 -14.5 -84t-17.5 -84l-133 -487h-51l192 700h50l192 -700h-51z" />
    <glyph glyph-name="uni0411" unicode="&#x411;" horiz-adv-x="474" 
d="M128 420h105q41 0 73 -12t53.5 -32.5t32.5 -47.5t11 -58v-120q0 -31 -11 -58t-32.5 -47.5t-53.5 -32.5t-73 -12h-160v700h300v-46h-250v-608h110q33 0 56 8.5t37 23t20.5 33t6.5 39.5v120q0 21 -6.5 39.5t-20.5 33t-37 23t-56 8.5h-85z" />
    <glyph glyph-name="uni0412" unicode="&#x412;" horiz-adv-x="464" 
d="M213 373q63 0 96.5 33t33.5 79v55q0 23 -8 44t-23 36.5t-37.5 24.5t-51.5 9h-150v46h150q41 0 73 -13t53.5 -34.5t32.5 -50.5t11 -62v-55q0 -46 -27 -81.5t-80 -52.5q57 -14 87 -51t30 -85v-55q0 -33 -11 -62t-32.5 -50.5t-53.5 -34.5t-73 -13h-85l-20 46h105
q29 0 51.5 9t37.5 24.5t23 36.5t8 44v55q0 46 -33.5 79t-96.5 33h-50l-20 46h60zM73 629l50 20v-649h-50v629z" />
    <glyph glyph-name="uni0413" unicode="&#x413;" horiz-adv-x="374" 
d="M73 0v700h280v-46h-230v-654h-50z" />
    <glyph glyph-name="uni0414" unicode="&#x414;" horiz-adv-x="484" 
d="M21 46h2q34 0 56 29t36 97t22 180t14 277l50 20q-3 -128 -9 -227.5t-16 -174t-25.5 -124.5t-39.5 -77h350v-196h-45v150h-350v-150h-45v196zM154 700h257v-629l-50 -20v603h-209z" />
    <glyph glyph-name="uni0415" unicode="&#x415;" horiz-adv-x="432" 
d="M128 373h205v-46h-185zM242 0q-83 0 -126 46.5t-43 132.5v521h310v-46h-260v-475q0 -133 120 -133h140v-46h-141z" />
    <glyph glyph-name="uni0416" unicode="&#x416;" horiz-adv-x="724" 
d="M392 373h45l193 327h54l-201 -341l211 -359h-54l-193 327h-35zM240 359l-200 341h54l192 -327h26l20 -46h-55l-193 -327h-54zM387 700v-700h-50v700h50z" />
    <glyph glyph-name="uni0417" unicode="&#x417;" horiz-adv-x="422" 
d="M183 46q61 0 94.5 31t33.5 73v65q0 46 -33.5 79t-94.5 33h-102l-20 46h120q59 0 89.5 33t30.5 79v65q0 42 -30.5 73t-89.5 31h-151v46h151q41 0 73 -12t53.5 -32.5t32.5 -48t11 -57.5v-65q0 -45 -25.5 -81.5t-74.5 -53.5q54 -16 82 -52.5t28 -82.5v-65q0 -30 -12 -57.5
t-34.5 -48t-55.5 -32.5t-76 -12h-151v46h151z" />
    <glyph glyph-name="uni0418" unicode="&#x418;" horiz-adv-x="496" 
d="M383 614l-260 -614h-50v700h50v-306l-12 -309h2l260 615h50v-700h-50v306l12 308h-2z" />
    <glyph glyph-name="uni0419" unicode="&#x419;" horiz-adv-x="496" 
d="M383 614l-260 -614h-50v700h50v-306l-12 -309h2l260 615h50v-700h-50v306l12 308h-2zM372 873q0 -61 -31.5 -88t-91.5 -27q-61 0 -92.5 27t-31.5 88h43q0 -44 20.5 -59t60.5 -15q39 0 59.5 15t20.5 59h43z" />
    <glyph glyph-name="uni041A" unicode="&#x41a;" horiz-adv-x="457" 
d="M128 373h45l193 327h54l-201 -341l211 -359h-54l-193 327h-35zM123 700v-700h-50v700h50z" />
    <glyph glyph-name="uni041B" unicode="&#x41b;" horiz-adv-x="479" 
d="M157 654l2 46h247v-700h-50v654h-199zM58 0h-37v46h27q29 0 47.5 29t30 97.5t18.5 180t12 276.5l50 20q-4 -172 -11.5 -295t-24 -201.5t-43.5 -115.5t-69 -37z" />
    <glyph glyph-name="uni041C" unicode="&#x41c;" horiz-adv-x="587" 
d="M433 700h80v-700h-50v379q0 69 1.5 138t3.5 138h-2q-11 -47 -22 -93t-24 -93l-102 -371h-50l-102 371q-13 47 -24 93t-22 93h-2q2 -69 3.5 -138t1.5 -138v-379h-50v700h80l93 -336q14 -50 24.5 -100t21.5 -101h2q11 51 21.5 101t24.5 100z" />
    <glyph glyph-name="uni041D" unicode="&#x41d;" horiz-adv-x="496" 
d="M128 374h245v326h50v-700h-50v326h-225zM123 0h-50v700h50v-700z" />
    <glyph glyph-name="uni041E" unicode="&#x41e;" horiz-adv-x="498" 
d="M434 516v-337q0 -88 -43 -136t-126 -48h-32q-83 0 -126 48t-43 136v342q0 88 43 136t126 48h32q82 0 125.5 -48t43.5 -136h-50q0 70 -30.5 104t-89.5 34h-30q-59 0 -89.5 -34t-30.5 -104v-342q0 -70 30.5 -104t89.5 -34h30q58 0 89 34t31 104v317z" />
    <glyph glyph-name="uni041F" unicode="&#x41f;" horiz-adv-x="486" 
d="M413 700v-700h-50v654h-290v46h340zM123 649v-649h-50v629z" />
    <glyph glyph-name="uni0420" unicode="&#x420;" horiz-adv-x="438" 
d="M128 311h95q29 0 51.5 10t37.5 27t23 39.5t8 47.5v95q0 25 -8 47.5t-23 39.5t-37.5 27t-51.5 10h-100v-654h-50v700h150q41 0 73 -13.5t53.5 -37t32.5 -54.5t11 -65v-95q0 -35 -11 -65.5t-32.5 -54t-53.5 -37t-73 -13.5h-75z" />
    <glyph glyph-name="uni0421" unicode="&#x421;" horiz-adv-x="414" 
d="M64 496l50 20v-337q0 -68 30.5 -100.5t89.5 -32.5h150v-46h-151q-83 0 -126 46.5t-43 132.5v317zM64 521q0 86 43 132.5t126 46.5h151v-46h-150q-59 0 -89.5 -32.5t-30.5 -100.5h-50z" />
    <glyph glyph-name="uni0422" unicode="&#x422;" horiz-adv-x="398" 
d="M224 651v-651h-50v631zM29 654v46h340v-46h-340z" />
    <glyph glyph-name="uni0423" unicode="&#x423;" horiz-adv-x="449" 
d="M363 700h51l-165 -572q-5 -20 -11 -42.5t-17.5 -42t-28.5 -32.5t-42 -13h-52v46h52q12 0 21 9.5t15 24.5t10 32.5t7 32.5l-169 557h51l104 -341q13 -42 21 -84t18 -84h2q8 42 15.5 84t19.5 84z" />
    <glyph glyph-name="uni0424" unicode="&#x424;" horiz-adv-x="560" 
d="M310 136h30q30 0 53.5 9t39.5 24.5t24 36.5t8 44v200q0 23 -8 44t-24 36.5t-39 24.5t-54 9h-35v-564h-50v90h-35q-43 0 -75.5 13t-54.5 34.5t-33.5 50.5t-11.5 62v200q0 33 11.5 62t33.5 50.5t55 34.5t75 13h10l20 -46h-30q-30 0 -53.5 -9t-39.5 -24.5t-24 -36.5t-8 -44
v-200q0 -23 8 -44t23.5 -36.5t39 -24.5t54.5 -9h35v564h50v-90h35q43 0 75.5 -13t54.5 -34.5t33.5 -50.5t11.5 -62v-200q0 -33 -11.5 -62t-33.5 -50.5t-55 -34.5t-75 -13h-10z" />
    <glyph glyph-name="uni0425" unicode="&#x425;" horiz-adv-x="460" 
d="M79 0h-50l175 360l-165 340h50l77 -157q17 -35 31.5 -71.5t30.5 -72.5h2q16 36 31 72.5t32 71.5l77 157h50l-166 -340l176 -360h-50l-78 159q-20 41 -37 82t-35 83h-2q-18 -42 -35 -83t-37 -82z" />
    <glyph glyph-name="uni0426" unicode="&#x426;" horiz-adv-x="486" 
d="M73 0v700h50v-654h340v-196h-45v150h-345zM363 51v649h50v-629z" />
    <glyph glyph-name="uni0427" unicode="&#x427;" horiz-adv-x="444" 
d="M370 700v-700h-50v700h50zM315 265h-95q-41 0 -73 13.5t-53.5 37t-32.5 54t-11 65.5v265h50v-265q0 -25 8 -47.5t23 -39.5t37.5 -27t51.5 -10h75z" />
    <glyph glyph-name="uni0428" unicode="&#x428;" horiz-adv-x="646" 
d="M523 46v654h50v-700h-500v700h50v-654h400zM298 51v649h50v-629z" />
    <glyph glyph-name="uni0429" unicode="&#x429;" horiz-adv-x="646" 
d="M73 0v700h50v-654h400v654h50v-654h50v-196h-45v150h-505zM298 51v649h50v-629z" />
    <glyph glyph-name="uni042A" unicode="&#x42a;" horiz-adv-x="500" 
d="M185 654h-180v46h180v-46zM190 435h95q41 0 73 -13.5t53.5 -37t32.5 -54.5t11 -65v-95q0 -35 -11 -65.5t-32.5 -54t-53.5 -37t-73 -13.5h-150v629l50 20v-603h100q29 0 51.5 10t37.5 27t23 39.5t8 47.5v95q0 25 -8 47.5t-23 39.5t-37.5 27t-51.5 10h-75z" />
    <glyph glyph-name="uni042B" unicode="&#x42b;" horiz-adv-x="584" 
d="M510 700v-700h-50v700h50zM129 435h95q41 0 73 -13.5t53.5 -37t32.5 -54.5t11 -65v-95q0 -35 -11 -65.5t-32.5 -54t-53.5 -37t-73 -13.5h-150v700h50v-654h100q29 0 51.5 10t37.5 27t23 39.5t8 47.5v95q0 25 -8 47.5t-23 39.5t-37.5 27t-51.5 10h-75z" />
    <glyph glyph-name="uni042C" unicode="&#x42c;" horiz-adv-x="438" 
d="M128 435h95q41 0 73 -13.5t53.5 -37t32.5 -54.5t11 -65v-95q0 -35 -11 -65.5t-32.5 -54t-53.5 -37t-73 -13.5h-150v700h50v-654h100q29 0 51.5 10t37.5 27t23 39.5t8 47.5v95q0 25 -8 47.5t-23 39.5t-37.5 27t-51.5 10h-75z" />
    <glyph glyph-name="uni042D" unicode="&#x42d;" horiz-adv-x="414" 
d="M295 373h-225v-46h205zM300 521q0 68 -30.5 100.5t-89.5 32.5h-150v46h151q83 0 126 -46.5t43 -132.5v-342q0 -86 -43 -132.5t-126 -46.5h-151v46h150q59 0 89.5 32.5t30.5 100.5v342z" />
    <glyph glyph-name="uni042E" unicode="&#x42e;" horiz-adv-x="647" 
d="M128 373h115v177q0 33 11 62t32.5 50.5t53 34.5t73.5 13q41 0 73 -13t53.5 -34.5t32.5 -50.5t11 -62v-400q0 -33 -11 -62t-32.5 -50.5t-53.5 -34.5t-73 -13q-42 0 -73.5 13t-53 34.5t-32.5 50.5t-11 62v177h-95zM123 0h-50v700h50v-700zM533 550q0 23 -8 44t-23 36.5
t-37.5 24.5t-51.5 9t-51.5 -9t-37.5 -24.5t-23 -36.5t-8 -44v-400q0 -23 8 -44t23 -36.5t37.5 -24.5t51.5 -9t51.5 9t37.5 24.5t23 36.5t8 44v400z" />
    <glyph glyph-name="uni042F" unicode="&#x42f;" horiz-adv-x="446" 
d="M293 311l20 -46h-107l-102 -265h-53l103 277q-50 19 -75.5 61.5t-25.5 96.5v95q0 34 11 65t32.5 54.5t53.5 37t73 13.5h150v-46h-150q-29 0 -51.5 -10t-37.5 -27t-23 -39.5t-8 -47.5v-95q0 -25 8 -47.5t23 -39.5t37.5 -27t51.5 -10h70zM323 0h50v648l-50 -20v-628z" />
    <glyph glyph-name="uni0430" unicode="&#x430;" horiz-adv-x="425" 
d="M85 500h128q35 0 62.5 -11t46 -30t28.5 -44.5t10 -54.5v-360h-23l-18 61q-17 -30 -47.5 -48t-77.5 -18q-42 0 -69.5 10t-44 27.5t-23.5 42.5t-7 55q0 36 12 61.5t32.5 43t47.5 28t58 15.5l94 16l18 -41l-105 -19q-22 -4 -42.5 -11t-36 -19.5t-24.5 -30.5t-9 -44
q0 -20 3.5 -36t14.5 -28t31.5 -18.5t53.5 -6.5q60 0 88.5 32t28.5 78v210q0 40 -26.5 68.5t-75.5 28.5h-128v43z" />
    <glyph glyph-name="uni0431" unicode="&#x431;" horiz-adv-x="441" 
d="M223 500q37 0 66.5 -11t49.5 -29.5t30.5 -43t10.5 -51.5v-230q0 -29 -10.5 -54t-30.5 -44.5t-50 -30.5t-69 -11t-69 11t-50 30.5t-30.5 44.5t-10.5 54v397q0 50 17 82t41 51.5t49.5 29t42.5 13.5l140 34l11 -41l-139 -35q-14 -3 -34 -10.5t-38.5 -23t-31.5 -40t-13 -62.5
v-395q0 -40 29 -68.5t86 -28.5t86 28.5t29 68.5v230q0 38 -29 66t-83 28h-93l-20 41h113v0z" />
    <glyph glyph-name="uni0432" unicode="&#x432;" horiz-adv-x="425" 
d="M69 0v500h158q67 0 104.5 -32.5t37.5 -83.5v-40q0 -35 -18 -57t-45 -33q34 -11 53.5 -34t19.5 -61v-40q0 -57 -41 -88t-111 -31h-158zM229 43q57 0 81 19t24 56v40q0 42 -26.5 57.5t-83.5 15.5h-85l-20 43h105q47 0 73.5 15.5t26.5 53.5v40q0 33 -22.5 53.5t-74.5 20.5
h-113v-414h115z" />
    <glyph glyph-name="uni0433" unicode="&#x433;" horiz-adv-x="323" 
d="M69 500h225v-43h-180v-457h-45v500z" />
    <glyph glyph-name="uni0434" unicode="&#x434;" horiz-adv-x="421" 
d="M19 43q26 0 44 20t30.5 65.5t20.5 119t14 179.5l45 19q-8 -165 -26 -263.5t-53 -139.5h306v-153h-43v110h-295v-110h-43v153zM130 457l2 43h220v-431l-45 -20v408h-177z" />
    <glyph glyph-name="uni0435" unicode="&#x435;" 
d="M217 0q-39 0 -68.5 11t-49 30t-29.5 44.5t-10 54.5v230q0 28 10 52.5t29.5 43t49 29t68.5 10.5q37 0 65.5 -10t48 -27t29.5 -40t10 -48v-144h-240l-20 43h215v101q0 34 -27.5 58t-80.5 24q-56 0 -84 -27t-28 -65v-230q0 -41 28 -69t84 -28h138v-43h-138z" />
    <glyph glyph-name="uni0436" unicode="&#x436;" horiz-adv-x="613" 
d="M415 256l168 -256h-52l-154 236h-22l-20 43h43l153 221h52zM258 279l20 -43h-43l-153 -236h-52l168 256l-168 244h52l153 -221h23zM284 500h45v-500h-45v500z" />
    <glyph glyph-name="uni0437" unicode="&#x437;" horiz-adv-x="363" 
d="M165 43q50 0 79 26.5t29 73.5t-27 67.5t-83 20.5h-65l-20 43h85q52 0 81 23.5t29 69.5q0 44 -29.5 67t-77.5 23h-127v43h127q72 0 112 -37t40 -95q0 -48 -22 -75t-54 -40q35 -12 55.5 -39t20.5 -74q0 -63 -41 -101.5t-113 -38.5h-127v43h128v0z" />
    <glyph glyph-name="uni0438" unicode="&#x438;" horiz-adv-x="448" 
d="M336 422l-219 -422h-48v500h45v-256q0 -42 -1.5 -83.5t-3.5 -83.5h3l219 423h48v-500h-45v256q0 42 1.5 83t2.5 83h-2z" />
    <glyph glyph-name="uni0439" unicode="&#x439;" horiz-adv-x="448" 
d="M336 422l-219 -422h-48v500h45v-256q0 -42 -1.5 -83.5t-3.5 -83.5h3l219 423h48v-500h-45v256q0 42 1.5 83t2.5 83h-2zM348 673q0 -61 -31.5 -88t-91.5 -27q-61 0 -92.5 27t-31.5 88h43q0 -44 20.5 -59t60.5 -15q39 0 59.5 15t20.5 59h43z" />
    <glyph glyph-name="uni043A" unicode="&#x43a;" horiz-adv-x="409" 
d="M200 256l168 -256h-52l-154 236h-22l-20 43h43l153 221h52zM69 500h45v-500h-45v500z" />
    <glyph glyph-name="uni043B" unicode="&#x43b;" horiz-adv-x="426" 
d="M135 457q0 11 0.5 21.5t1.5 21.5h220v-500h-45v457h-177zM47 43q20 0 34.5 20t24 65.5t16.5 119t12 179.5l43 20q-4 -118 -12.5 -202.5t-23.5 -139t-37.5 -80t-54.5 -25.5h-30v43h28z" />
    <glyph glyph-name="uni043C" unicode="&#x43c;" horiz-adv-x="536" 
d="M401 500h66v-500h-45v179q0 69 1.5 138t3.5 138h-2q-17 -47 -32 -93.5t-34 -92.5l-71 -171h-40l-71 171q-19 46 -34 92.5t-32 93.5h-2q2 -69 3.5 -138t1.5 -138v-179h-45v500h66l90 -236q11 -30 21 -60.5t21 -60.5h2q11 30 21 60.5t21 60.5z" />
    <glyph glyph-name="uni043D" unicode="&#x43d;" horiz-adv-x="448" 
d="M119 272h215v228h45v-500h-45v229h-195zM114 0h-45v500h45v-500z" />
    <glyph glyph-name="uni043E" unicode="&#x43e;" horiz-adv-x="441" 
d="M335 335l45 20v-220q0 -29 -10.5 -54t-30.5 -44.5t-50 -30.5t-69 -11t-69 11t-50 30.5t-30.5 44.5t-10.5 54v230q0 28 10.5 53.5t30.5 45t50 30.5t69 11t69 -11t50 -30.5t30.5 -45t10.5 -53.5h-45q0 40 -29 68.5t-86 28.5t-86 -28.5t-29 -68.5v-230q0 -40 29 -68.5
t86 -28.5t86 28.5t29 68.5v200z" />
    <glyph glyph-name="uni043F" unicode="&#x43f;" horiz-adv-x="448" 
d="M69 500h310v-500h-45v457h-265v43zM114 452v-452h-45v432z" />
    <glyph glyph-name="uni0440" unicode="&#x440;" horiz-adv-x="450" 
d="M232 43q56 0 84 28.5t28 68.5v220q0 40 -28 68.5t-84 28.5h-118v-707h-45v750h163q39 0 68.5 -11t49 -30t29.5 -44.5t10 -54.5v-220q0 -29 -10 -54.5t-29.5 -44.5t-49 -30t-68.5 -11h-93l-20 43h113z" />
    <glyph glyph-name="uni0441" unicode="&#x441;" horiz-adv-x="416" 
d="M325 43v-43h-108q-39 0 -68.5 12t-49 32.5t-29.5 47.5t-10 58v185l45 20v-205q0 -45 28 -76t84 -31h108zM217 457q-51 0 -79 -26.5t-33 -65.5h-45q2 28 13 52.5t31 43t48 29t65 10.5h108v-43h-108z" />
    <glyph glyph-name="uni0442" unicode="&#x442;" horiz-adv-x="323" 
d="M184 447v-447h-45v427zM19 452v48h285v-48h-285z" />
    <glyph glyph-name="uni0443" unicode="&#x443;" horiz-adv-x="415" 
d="M160 178q14 -47 23.5 -93.5t20.5 -94.5h2q11 48 20.5 94.5t22.5 93.5l88 322h44l-205 -750h-44l51 185l-162 565h46z" />
    <glyph glyph-name="uni0444" unicode="&#x444;" horiz-adv-x="575" 
d="M315 43h30q62 0 93.5 34.5t31.5 82.5v180q0 48 -31.5 82.5t-93.5 34.5h-35v-707h-45v250h-35q-42 0 -73.5 13t-53 34.5t-32.5 50.5t-11 62v180q0 33 11 62t32.5 50.5t53 34.5t73.5 13h10l20 -43h-30q-62 0 -93.5 -34.5t-31.5 -82.5v-180q0 -48 31.5 -82.5t93.5 -34.5h35
v696l45 7v-246h35q42 0 73.5 -13t53 -34.5t32.5 -50.5t11 -62v-180q0 -33 -11 -62t-32.5 -50.5t-53 -34.5t-73.5 -13h-10z" />
    <glyph glyph-name="uni0445" unicode="&#x445;" horiz-adv-x="396" 
d="M69 0h-53l155 263l-138 237h51l82 -138q9 -16 16 -32t15 -33q8 17 15 33t17 32l82 138h51l-139 -237l156 -263h-53l-83 141q-13 22 -24 44.5t-22 45.5q-11 -23 -22 -45.5t-24 -44.5z" />
    <glyph glyph-name="uni0446" unicode="&#x446;" horiz-adv-x="448" 
d="M69 0v500h45v-457h313v-153h-43v110h-315zM379 66l-45 -20v454h45v-434z" />
    <glyph glyph-name="uni0447" unicode="&#x447;" horiz-adv-x="420" 
d="M306 500h45v-500h-45v500zM301 223l-20 -43h-75q-34 0 -62.5 7.5t-49 24.5t-32 44t-11.5 66v178h45v-178q0 -54 31 -76.5t79 -22.5h95z" />
    <glyph glyph-name="uni0448" unicode="&#x448;" horiz-adv-x="593" 
d="M479 43v457h45v-500h-455v500h45v-457h365zM274 48v452h45v-432z" />
    <glyph glyph-name="uni0449" unicode="&#x449;" horiz-adv-x="593" 
d="M69 0v500h45v-457h365v457h45v-457h48v-153h-43v110h-460zM274 48v452h45v-432z" />
    <glyph glyph-name="uni044A" unicode="&#x44a;" horiz-adv-x="460" 
d="M369 178q0 54 -31 76.5t-79 22.5h-75l-20 43h95q34 0 62.5 -7.5t49 -24.5t32 -44t11.5 -66v-40q0 -64 -41 -101t-111 -37h-148v457h-95v43h140v-457h103q49 0 78 25.5t29 69.5v40z" />
    <glyph glyph-name="uni044B" unicode="&#x44b;" horiz-adv-x="523" 
d="M319 178q0 54 -31 76.5t-79 22.5h-75l-20 43h95q34 0 62.5 -7.5t49 -24.5t32 -44t11.5 -66v-40q0 -64 -41 -101t-111 -37h-148v500h45v-457h103q49 0 78 25.5t29 69.5v40zM414 500h45v-500h-45v500z" />
    <glyph glyph-name="uni044C" unicode="&#x44c;" horiz-adv-x="415" 
d="M324 178q0 54 -31 76.5t-79 22.5h-75l-20 43h95q34 0 62.5 -7.5t49 -24.5t32 -44t11.5 -66v-40q0 -64 -41 -101t-111 -37h-148v500h45v-457h103q49 0 78 25.5t29 69.5v40z" />
    <glyph glyph-name="uni044D" unicode="&#x44d;" horiz-adv-x="355" 
d="M226 229h-164v43h184zM138 43q56 0 84 34.5t28 82.5v180q0 48 -28 82.5t-84 34.5h-108v43h108q39 0 68.5 -13t49 -34.5t29.5 -50.5t10 -62v-180q0 -33 -10 -62t-29.5 -50.5t-49 -34.5t-68.5 -13h-108v43h108z" />
    <glyph glyph-name="uni044E" unicode="&#x44e;" horiz-adv-x="579" 
d="M119 272h100v98q0 28 9.5 53.5t28.5 45t47 30.5t65 11q36 0 64 -11t47 -30.5t29 -45t10 -53.5v-240q0 -29 -10 -54t-29 -44.5t-47 -30.5t-64 -11q-37 0 -65 11t-47 30.5t-28.5 44.5t-9.5 54v99h-80zM369 33q51 0 78 28.5t27 68.5v240q0 40 -27 68.5t-78 28.5t-78 -28.5
t-27 -68.5v-240q0 -40 27 -68.5t78 -28.5zM114 0h-45v500h45v-500z" />
    <glyph glyph-name="uni044F" unicode="&#x44f;" horiz-adv-x="427" 
d="M198 180l-104 -180h-48l106 187q-43 11 -68.5 43.5t-25.5 91.5v40q0 64 41 101t111 37h148v-500h-45v457h-103q-49 0 -78 -25.5t-29 -69.5v-40q0 -54 31 -76.5t79 -22.5h75l20 -43h-110z" />
    <glyph glyph-name="uni0450" unicode="&#x450;" 
d="M217 0q-39 0 -68.5 11t-49 30t-29.5 44.5t-10 54.5v230q0 28 10 52.5t29.5 43t49 29t68.5 10.5q37 0 65.5 -10t48 -27t29.5 -40t10 -48v-144h-240l-20 43h215v101q0 34 -27.5 58t-80.5 24q-56 0 -84 -27t-28 -65v-230q0 -41 28 -69t84 -28h138v-43h-138zM95 700h70
l90 -135h-40z" />
    <glyph glyph-name="uni0451" unicode="&#x451;" 
d="M217 0q-39 0 -68.5 11t-49 30t-29.5 44.5t-10 54.5v230q0 28 10 52.5t29.5 43t49 29t68.5 10.5q37 0 65.5 -10t48 -27t29.5 -40t10 -48v-144h-240l-20 43h215v101q0 34 -27.5 58t-80.5 24q-56 0 -84 -27t-28 -65v-230q0 -41 28 -69t84 -28h138v-43h-138zM117 655h45v-90
h-45v90zM267 655h45v-90h-45v90z" />
    <glyph glyph-name="uni0452" unicode="&#x452;" horiz-adv-x="477" 
d="M405 0q0 -38 -8 -71t-23.5 -57t-38 -38t-52.5 -14h-37v46h37q36 0 56.5 38.5t20.5 95.5v370q0 18 -5.5 33.5t-18 27.5t-33 19t-50.5 7h-88l-20 43h116q34 0 61 -10.5t45.5 -28t28 -41t9.5 -50.5v-370zM20 660h75v90h45v-750h-45v620h-75v40zM142 660h167v-40h-147z" />
    <glyph glyph-name="uni0453" unicode="&#x453;" horiz-adv-x="323" 
d="M69 500h225v-43h-180v-457h-45v500zM161 565h-40l90 135h70z" />
    <glyph glyph-name="uni0454" unicode="&#x454;" horiz-adv-x="355" 
d="M109 272h184v-43h-164zM325 43v-43h-108q-39 0 -68.5 13t-49 34.5t-29.5 50.5t-10 62v180q0 33 10 62t29.5 50.5t49 34.5t68.5 13h108v-43h-108q-56 0 -84 -34.5t-28 -82.5v-180q0 -48 28 -82.5t84 -34.5h108z" />
    <glyph glyph-name="uni0455" unicode="&#x455;" horiz-adv-x="400" 
d="M94 356q4 -20 14 -32.5t24.5 -21.5t32 -15t35.5 -11q39 -11 68 -22t48.5 -26.5t29 -38.5t9.5 -57q0 -63 -40.5 -97.5t-111.5 -34.5h-156v43h156q50 0 78.5 23t28.5 63q0 24 -8 40.5t-23 27.5t-37.5 19t-52.5 16q-19 5 -40.5 11.5t-41 17.5t-35 29t-21.5 47zM92 365h-45v8
q0 57 39.5 92t111.5 35h127v-43h-127q-51 0 -78.5 -23.5t-27.5 -58.5v-10z" />
    <glyph glyph-name="uni0456" unicode="&#x456;" horiz-adv-x="183" 
d="M69 0h45v500h-45v-500zM69 680h45v-70h-45v70z" />
    <glyph glyph-name="uni0457" unicode="&#x457;" horiz-adv-x="183" 
d="M69 500h45v-500h-45v500zM-1 680h50v-90h-50v90zM134 680h50v-90h-50v90z" />
    <glyph glyph-name="uni0458" unicode="&#x458;" horiz-adv-x="209" 
d="M94 -250v750h45v-730zM94 680h45v-70h-45v70z" />
    <glyph glyph-name="uni0459" unicode="&#x459;" horiz-adv-x="613" 
d="M142 500h200v-457h73q49 0 78 25.5t29 69.5v40q0 54 -31 76.5t-79 22.5h-45l-20 43h65q34 0 62.5 -7.5t49 -24.5t32 -44t11.5 -66v-40q0 -64 -41 -101t-111 -37h-118v457h-157q0 11 0.5 21.5t1.5 21.5zM54 0h-35v48h33q20 0 34.5 20t24 65t16.5 117.5t12 176.5l43 20
q-4 -118 -12.5 -202.5t-23.5 -139t-37.5 -80t-54.5 -25.5z" />
    <glyph glyph-name="uni045A" unicode="&#x45a;" horiz-adv-x="625" 
d="M579 138q0 -64 -41 -101t-111 -37h-118v229h-170l-20 43h190v228h45v-457h73q49 0 78 25.5t29 69.5v40q0 54 -31 76.5t-79 22.5h-45l-20 43h65q34 0 62.5 -7.5t49 -24.5t32 -44t11.5 -66v-40zM114 0h-45v500h45v-500z" />
    <glyph glyph-name="uni045B" unicode="&#x45b;" horiz-adv-x="477" 
d="M20 660h75v90h45v-750h-45v620h-75v40zM261 500q34 0 61 -10.5t45.5 -28t28 -41t9.5 -50.5v-370h-45v370q0 18 -5.5 33.5t-18 27.5t-33 19t-50.5 7h-88l-20 43h116zM142 660h167v-40h-147z" />
    <glyph glyph-name="uni045C" unicode="&#x45c;" horiz-adv-x="409" 
d="M200 256l168 -256h-52l-154 236h-22l-20 43h43l153 221h52zM69 500h45v-500h-45v500zM204 565h-40l90 135h70z" />
    <glyph glyph-name="uni045D" unicode="&#x45d;" horiz-adv-x="448" 
d="M336 422l-219 -422h-48v500h45v-256q0 -42 -1.5 -83.5t-3.5 -83.5h3l219 423h48v-500h-45v256q0 42 1.5 83t2.5 83h-2zM101 700h70l90 -135h-40z" />
    <glyph glyph-name="uni045E" unicode="&#x45e;" horiz-adv-x="415" 
d="M160 178q14 -47 23.5 -93.5t20.5 -94.5h2q11 48 20.5 94.5t22.5 93.5l88 322h44l-205 -750h-44l51 185l-162 565h46zM331 673q0 -61 -31.5 -88t-91.5 -27q-61 0 -92.5 27t-31.5 88h43q0 -44 20.5 -59t60.5 -15q39 0 59.5 15t20.5 59h43z" />
    <glyph glyph-name="uni045F" unicode="&#x45f;" horiz-adv-x="448" 
d="M69 500h45v-457h220v457h45v-500h-132v-150h-46v150h-132v500z" />
    <glyph glyph-name="uni0462" unicode="&#x462;" horiz-adv-x="490" 
d="M275 435q41 0 73 -13.5t53.5 -37t32.5 -54.5t11 -65v-95q0 -35 -11 -65.5t-32.5 -54t-53.5 -37t-73 -13.5h-150v554h-105v46h105v129l50 20v-149h185v-46h-185v-508h100q29 0 51.5 10t37.5 27t23 39.5t8 47.5v95q0 25 -8 47.5t-23 39.5t-37.5 27t-51.5 10h-75l-20 46h95z
" />
    <glyph glyph-name="uni0463" unicode="&#x463;" horiz-adv-x="460" 
d="M369 178q0 54 -31 76.5t-79 22.5h-75l-20 43h95q34 0 62.5 -7.5t49 -24.5t32 -44t11.5 -66v-40q0 -64 -41 -101t-111 -37h-148v457l28 43h-28v231l45 20v-708h103q49 0 78 25.5t29 69.5v40zM192 457h95v43h-123zM19 457h95v43h-95v-43z" />
    <glyph glyph-name="uni0490" unicode="&#x490;" horiz-adv-x="374" 
d="M308 850h45v-196h-230v-654h-50v700h235v150z" />
    <glyph glyph-name="uni0491" unicode="&#x491;" horiz-adv-x="323" 
d="M251 615h43v-158h-180v-457h-45v500h182v115z" />
    <glyph glyph-name="uni0492" unicode="&#x492;" horiz-adv-x="416" 
d="M11 374h104v326h280v-46h-230v-280h151v-42h-151v-332h-50v332h-104v42z" />
    <glyph glyph-name="uni0493" unicode="&#x493;" horiz-adv-x="357" 
d="M11 272h92v228h225v-43h-180v-185h118v-42h-118v-230h-45v230h-92v42z" />
    <glyph glyph-name="uni0498" unicode="&#x498;" horiz-adv-x="422" 
d="M183 46q61 0 94.5 31t33.5 73v65q0 46 -33.5 79t-94.5 33h-102l-20 46h120q59 0 89.5 33t30.5 79v65q0 42 -30.5 73t-89.5 31h-151v46h151q41 0 73 -12t53.5 -32.5t32.5 -48t11 -57.5v-65q0 -45 -25.5 -81.5t-74.5 -53.5q54 -16 82 -52.5t28 -82.5v-65q0 -28 -10 -53
t-29 -45t-47 -33.5t-64 -17.5q13 -23 18.5 -44.5t5.5 -40.5q0 -32 -22 -54.5t-58 -22.5q-21 0 -40.5 6t-34.5 15l15 36q29 -14 49 -14q21 0 33 11t12 32q0 16 -3.5 35t-8.5 40h-145v46h151z" />
    <glyph glyph-name="uni0499" unicode="&#x499;" horiz-adv-x="363" 
d="M165 43q50 0 79 26.5t29 73.5t-27 67.5t-83 20.5h-65l-20 43h85q52 0 81 23.5t29 69.5q0 44 -29.5 67t-77.5 23h-127v43h127q72 0 112 -37t40 -95q0 -48 -22 -75t-54 -40q35 -12 55.5 -39t20.5 -74q0 -57 -33.5 -94t-93.5 -45q13 -23 18.5 -44.5t5.5 -40.5
q0 -32 -22 -54.5t-58 -22.5q-21 0 -40.5 6t-34.5 15l15 36q29 -14 49 -14q21 0 33 11t12 32q0 16 -3.5 35t-8.5 40h-120v43h128v0z" />
    <glyph glyph-name="uni04A0" unicode="&#x4a0;" horiz-adv-x="520" 
d="M191 373h45l193 327h54l-201 -341l211 -359h-54l-193 327h-35zM186 0h-50v629l50 20v-649zM186 654h-180v46h180v-46z" />
    <glyph glyph-name="uni04A1" unicode="&#x4a1;" horiz-adv-x="445" 
d="M236 256l168 -256h-52l-154 236h-22l-20 43h43l153 221h52zM150 0h-45v457h-95v43h140v-500z" />
    <glyph glyph-name="uni04A2" unicode="&#x4a2;" horiz-adv-x="496" 
d="M128 374h245v326h50v-612h45v-238h-45v150h-50v326h-225zM123 0h-50v700h50v-700z" />
    <glyph glyph-name="uni04A3" unicode="&#x4a3;" horiz-adv-x="448" 
d="M379 0h-45v229h-195l-20 43h215v228h45v-412h45v-238h-45v150zM114 0h-45v500h45v-500z" />
    <glyph glyph-name="uni04AA" unicode="&#x4aa;" horiz-adv-x="414" 
d="M230 -84q0 39 23 84h-20q-83 0 -126 46.5t-43 132.5v317l50 20v-337q0 -68 30.5 -100.5t89.5 -32.5h150v-46h-96q-12 -42 -12 -75q0 -21 12 -32t33 -11q20 0 49 14l15 -36q-15 -9 -34.5 -15t-40.5 -6q-36 0 -58 22.5t-22 54.5zM64 521q0 86 43 132.5t126 46.5h151v-46
h-150q-59 0 -89.5 -32.5t-30.5 -100.5h-50z" />
    <glyph glyph-name="uni04AB" unicode="&#x4ab;" horiz-adv-x="355" 
d="M190 -84q0 39 23 84q-38 0 -66.5 12.5t-48 32.5t-29 47.5t-9.5 57.5v185l45 20v-205q0 -45 28 -76t84 -31h108v-43h-77q-12 -42 -12 -75q0 -21 12 -32t33 -11q20 0 49 14l15 -36q-15 -9 -34.5 -15t-40.5 -6q-36 0 -58 22.5t-22 54.5zM217 457q-51 0 -79 -26.5t-33 -65.5
h-45q2 28 13 52.5t31 43t48 29t65 10.5h108v-43h-108z" />
    <glyph glyph-name="uni04AE" unicode="&#x4ae;" horiz-adv-x="449" 
d="M368 700h52l-171 -425v-275h-50v275l-170 425h53l102 -257q12 -29 20.5 -59.5t18.5 -60.5h2q10 30 18.5 60.5t20.5 59.5z" />
    <glyph glyph-name="uni04AF" unicode="&#x4af;" horiz-adv-x="407" 
d="M181 0l-156 500h45l90 -289q13 -40 22 -81t20 -82h2q11 41 20 82t22 81l90 289h45l-155 -500v-250h-45v250z" />
    <glyph glyph-name="uni04B0" unicode="&#x4b0;" horiz-adv-x="449" 
d="M368 700h52l-171 -425v-58h128v-42h-128v-175h-50v175h-127v42h127v58l-170 425h53l102 -257q12 -29 20.5 -59.5t18.5 -60.5h2q10 30 18.5 60.5t20.5 59.5z" />
    <glyph glyph-name="uni04B1" unicode="&#x4b1;" horiz-adv-x="407" 
d="M51 -99h130v99l-156 500h45l90 -289q13 -40 22 -81t20 -82h2q11 41 20 82t22 81l90 289h45l-155 -500v-99h130v-42h-130v-109h-45v109h-130v42z" />
    <glyph glyph-name="uni04BA" unicode="&#x4ba;" horiz-adv-x="444" 
d="M69 0v700h50v-700h-50zM124 435h95q41 0 73 -13.5t53.5 -37t32.5 -54.5t11 -65v-265h-50v265q0 25 -8 47.5t-23 39.5t-37.5 27t-51.5 10h-75z" />
    <glyph glyph-name="uni04BB" unicode="&#x4bb;" horiz-adv-x="451" 
d="M114 750v-750h-45v742zM235 400q34 0 61 -10.5t45.5 -28t28 -41t9.5 -50.5v-270h-45v270q0 18 -5.5 33.5t-18 27.5t-33 19t-50.5 7h-88l-20 43h116z" />
    <glyph glyph-name="uni04C1" unicode="&#x4c1;" horiz-adv-x="724" 
d="M392 373h45l193 327h54l-201 -341l211 -359h-54l-193 327h-35zM240 359l-200 341h54l192 -327h26l20 -46h-55l-193 -327h-54zM387 700v-700h-50v700h50zM486 873q0 -61 -31.5 -88t-91.5 -27q-61 0 -92.5 27t-31.5 88h43q0 -44 20.5 -59t60.5 -15q39 0 59.5 15t20.5 59h43
z" />
    <glyph glyph-name="uni04C2" unicode="&#x4c2;" horiz-adv-x="613" 
d="M415 256l168 -256h-52l-154 236h-22l-20 43h43l153 221h52zM258 279l20 -43h-43l-153 -236h-52l168 256l-168 244h52l153 -221h23zM284 500h45v-500h-45v500zM430 673q0 -61 -31.5 -88t-91.5 -27q-61 0 -92.5 27t-31.5 88h43q0 -44 20.5 -59t60.5 -15q39 0 59.5 15
t20.5 59h43z" />
    <glyph glyph-name="uni04D0" unicode="&#x4d0;" horiz-adv-x="491" 
d="M360 186h-193l-20 46h200l-69 255q-11 42 -17.5 84t-14.5 84h-2q-8 -42 -14.5 -84t-17.5 -84l-133 -487h-51l192 700h50l192 -700h-51zM369 873q0 -61 -31.5 -88t-91.5 -27q-61 0 -92.5 27t-31.5 88h43q0 -44 20.5 -59t60.5 -15q39 0 59.5 15t20.5 59h43z" />
    <glyph glyph-name="uni04D1" unicode="&#x4d1;" horiz-adv-x="420" 
d="M85 500h128q35 0 62.5 -11t46 -30t28.5 -44.5t10 -54.5v-360h-23l-18 61q-17 -30 -47.5 -48t-77.5 -18q-42 0 -69.5 10t-44 27.5t-23.5 42.5t-7 55q0 36 12 61.5t32.5 43t47.5 28t58 15.5l94 16l18 -41l-105 -19q-22 -4 -42.5 -11t-36 -19.5t-24.5 -30.5t-9 -44
q0 -20 3.5 -36t14.5 -28t31.5 -18.5t53.5 -6.5q60 0 88.5 32t28.5 78v210q0 40 -26.5 68.5t-75.5 28.5h-128v43zM323 673q0 -61 -31.5 -88t-91.5 -27q-61 0 -92.5 27t-31.5 88h43q0 -44 20.5 -59t60.5 -15q39 0 59.5 15t20.5 59h43z" />
    <glyph glyph-name="uni04D2" unicode="&#x4d2;" horiz-adv-x="491" 
d="M360 186h-193l-20 46h200l-69 255q-11 42 -17.5 84t-14.5 84h-2q-8 -42 -14.5 -84t-17.5 -84l-133 -487h-51l192 700h50l192 -700h-51zM148 855h45v-90h-45v90zM298 855h45v-90h-45v90z" />
    <glyph glyph-name="uni04D3" unicode="&#x4d3;" horiz-adv-x="420" 
d="M85 500h128q35 0 62.5 -11t46 -30t28.5 -44.5t10 -54.5v-360h-23l-18 61q-17 -30 -47.5 -48t-77.5 -18q-42 0 -69.5 10t-44 27.5t-23.5 42.5t-7 55q0 36 12 61.5t32.5 43t47.5 28t58 15.5l94 16l18 -41l-105 -19q-22 -4 -42.5 -11t-36 -19.5t-24.5 -30.5t-9 -44
q0 -20 3.5 -36t14.5 -28t31.5 -18.5t53.5 -6.5q60 0 88.5 32t28.5 78v210q0 40 -26.5 68.5t-75.5 28.5h-128v43zM113 655h45v-90h-45v90zM263 655h45v-90h-45v90z" />
    <glyph glyph-name="uni04D4" unicode="&#x4d4;" horiz-adv-x="614" 
d="M564 46v-46h-260v186h-174l-51 -186h-51l192 700h344v-46h-210v-281h160v-46h-160v-281h210zM142 232h162v423h-60q-8 -42 -14.5 -84t-17.5 -84z" />
    <glyph glyph-name="uni04D5" unicode="&#x4d5;" horiz-adv-x="682" 
d="M471 0q-59 0 -93 30.5t-42 78.5q-9 -49 -43.5 -81.5t-98.5 -32.5q-42 0 -69.5 10t-44 27.5t-23.5 42.5t-7 55q0 36 12 61.5t32.5 43t47.5 28t58 15.5l94 16l18 -41l-105 -19q-22 -4 -42.5 -11t-36 -19.5t-24.5 -30.5t-9 -44q0 -20 3.5 -36t14.5 -28t31.5 -18.5t53.5 -6.5
q60 0 88.5 32t28.5 78v210q0 40 -26.5 68.5t-75.5 28.5h-128v43h128q51 0 82 -28.5t41 -73.5q8 48 41.5 80t93.5 32q37 0 65.5 -10.5t48 -28t29.5 -41t10 -50.5v-144h-240l-20 43h215v101q0 36 -27.5 61.5t-80.5 25.5q-56 0 -84 -28.5t-28 -68.5v-230q0 -41 28 -69t84 -28
h138v-43h-138z" />
    <glyph glyph-name="uni04D6" unicode="&#x4d6;" horiz-adv-x="432" 
d="M128 373h205v-46h-185zM242 0q-83 0 -126 46.5t-43 132.5v521h310v-46h-260v-475q0 -133 120 -133h140v-46h-141zM362 873q0 -61 -31.5 -88t-91.5 -27q-61 0 -92.5 27t-31.5 88h43q0 -44 20.5 -59t60.5 -15q39 0 59.5 15t20.5 59h43z" />
    <glyph glyph-name="uni04D7" unicode="&#x4d7;" 
d="M217 0q-39 0 -68.5 11t-49 30t-29.5 44.5t-10 54.5v230q0 28 10 52.5t29.5 43t49 29t68.5 10.5q37 0 65.5 -10t48 -27t29.5 -40t10 -48v-144h-240l-20 43h215v101q0 34 -27.5 58t-80.5 24q-56 0 -84 -27t-28 -65v-230q0 -41 28 -69t84 -28h138v-43h-138zM338 673
q0 -61 -31.5 -88t-91.5 -27q-61 0 -92.5 27t-31.5 88h43q0 -44 20.5 -59t60.5 -15q39 0 59.5 15t20.5 59h43z" />
    <glyph glyph-name="uni04D8" unicode="&#x4d8;" horiz-adv-x="455" 
d="M360 327h-246v-148q0 -68 30.5 -100.5t89.5 -32.5h10q59 0 89.5 32.5t30.5 100.5v342q0 68 -30.5 100.5t-89.5 32.5h-150v46h151q83 0 126 -46.5t43 -132.5v-342q0 -86 -43 -132.5t-126 -46.5h-12q-83 0 -126 46.5t-43 132.5v194h276z" />
    <glyph glyph-name="uni04D9" unicode="&#x4d9;" 
d="M213 500q39 0 68.5 -11t49 -30t29.5 -44.5t10 -54.5v-230q0 -28 -10 -52.5t-29.5 -43t-49 -29t-68.5 -10.5q-37 0 -65.5 10t-48 27t-29.5 39.5t-10 48.5v144h240l20 -43h-215v-101q0 -34 27.5 -58t80.5 -24q56 0 84 27t28 65v230q0 41 -28 69t-84 28h-138v43h138z" />
    <glyph glyph-name="uni04DA" unicode="&#x4da;" horiz-adv-x="455" 
d="M360 327h-246v-148q0 -68 30.5 -100.5t89.5 -32.5h10q59 0 89.5 32.5t30.5 100.5v342q0 68 -30.5 100.5t-89.5 32.5h-150v46h151q83 0 126 -46.5t43 -132.5v-342q0 -86 -43 -132.5t-126 -46.5h-12q-83 0 -126 46.5t-43 132.5v194h276zM130 855h45v-90h-45v90zM280 855h45
v-90h-45v90z" />
    <glyph glyph-name="uni04DB" unicode="&#x4db;" 
d="M213 500q39 0 68.5 -11t49 -30t29.5 -44.5t10 -54.5v-230q0 -28 -10 -52.5t-29.5 -43t-49 -29t-68.5 -10.5q-37 0 -65.5 10t-48 27t-29.5 39.5t-10 48.5v144h240l20 -43h-215v-101q0 -34 27.5 -58t80.5 -24q56 0 84 27t28 65v230q0 41 -28 69t-84 28h-138v43h138z
M117 655h45v-90h-45v90zM267 655h45v-90h-45v90z" />
    <glyph glyph-name="uni04DC" unicode="&#x4dc;" horiz-adv-x="724" 
d="M392 373h45l193 327h54l-201 -341l211 -359h-54l-193 327h-35zM240 359l-200 341h54l192 -327h26l20 -46h-55l-193 -327h-54zM387 700v-700h-50v700h50zM265 855h45v-90h-45v90zM415 855h45v-90h-45v90z" />
    <glyph glyph-name="uni04DD" unicode="&#x4dd;" horiz-adv-x="613" 
d="M415 256l168 -256h-52l-154 236h-22l-20 43h43l153 221h52zM258 279l20 -43h-43l-153 -236h-52l168 256l-168 244h52l153 -221h23zM284 500h45v-500h-45v500zM209 655h45v-90h-45v90zM359 655h45v-90h-45v90z" />
    <glyph glyph-name="uni04DE" unicode="&#x4de;" horiz-adv-x="422" 
d="M183 46q61 0 94.5 31t33.5 73v65q0 46 -33.5 79t-94.5 33h-102l-20 46h120q59 0 89.5 33t30.5 79v65q0 42 -30.5 73t-89.5 31h-151v46h151q41 0 73 -12t53.5 -32.5t32.5 -48t11 -57.5v-65q0 -45 -25.5 -81.5t-74.5 -53.5q54 -16 82 -52.5t28 -82.5v-65q0 -30 -12 -57.5
t-34.5 -48t-55.5 -32.5t-76 -12h-151v46h151zM82 855h45v-90h-45v90zM232 855h45v-90h-45v90z" />
    <glyph glyph-name="uni04DF" unicode="&#x4df;" horiz-adv-x="363" 
d="M165 43q50 0 79 26.5t29 73.5t-27 67.5t-83 20.5h-65l-20 43h85q52 0 81 23.5t29 69.5q0 44 -29.5 67t-77.5 23h-127v43h127q72 0 112 -37t40 -95q0 -48 -22 -75t-54 -40q35 -12 55.5 -39t20.5 -74q0 -63 -41 -101.5t-113 -38.5h-127v43h128v0zM64 655h45v-90h-45v90z
M214 655h45v-90h-45v90z" />
    <glyph glyph-name="uni04E2" unicode="&#x4e2;" horiz-adv-x="496" 
d="M383 614l-260 -614h-50v700h50v-306l-12 -309h2l260 615h50v-700h-50v306l12 308h-2zM96 831h305v-42h-305v42z" />
    <glyph glyph-name="uni04E3" unicode="&#x4e3;" horiz-adv-x="448" 
d="M336 422l-219 -422h-48v500h45v-256q0 -42 -1.5 -83.5t-3.5 -83.5h3l219 423h48v-500h-45v256q0 42 1.5 83t2.5 83h-2zM72 631h305v-42h-305v42z" />
    <glyph glyph-name="uni04E4" unicode="&#x4e4;" horiz-adv-x="496" 
d="M383 614l-260 -614h-50v700h50v-306l-12 -309h2l260 615h50v-700h-50v306l12 308h-2zM151 855h45v-90h-45v90zM301 855h45v-90h-45v90z" />
    <glyph glyph-name="uni04E5" unicode="&#x4e5;" horiz-adv-x="448" 
d="M336 422l-219 -422h-48v500h45v-256q0 -42 -1.5 -83.5t-3.5 -83.5h3l219 423h48v-500h-45v256q0 42 1.5 83t2.5 83h-2zM127 655h45v-90h-45v90zM277 655h45v-90h-45v90z" />
    <glyph glyph-name="uni04E6" unicode="&#x4e6;" horiz-adv-x="498" 
d="M434 516v-337q0 -88 -43 -136t-126 -48h-32q-83 0 -126 48t-43 136v342q0 88 43 136t126 48h32q82 0 125.5 -48t43.5 -136h-50q0 70 -30.5 104t-89.5 34h-30q-59 0 -89.5 -34t-30.5 -104v-342q0 -70 30.5 -104t89.5 -34h30q58 0 89 34t31 104v317zM152 855h45v-90h-45v90
zM302 855h45v-90h-45v90z" />
    <glyph glyph-name="uni04E7" unicode="&#x4e7;" horiz-adv-x="441" 
d="M335 335l45 20v-220q0 -29 -10.5 -54t-30.5 -44.5t-50 -30.5t-69 -11t-69 11t-50 30.5t-30.5 44.5t-10.5 54v230q0 28 10.5 53.5t30.5 45t50 30.5t69 11t69 -11t50 -30.5t30.5 -45t10.5 -53.5h-45q0 40 -29 68.5t-86 28.5t-86 -28.5t-29 -68.5v-230q0 -40 29 -68.5
t86 -28.5t86 28.5t29 68.5v200zM123 655h45v-90h-45v90zM273 655h45v-90h-45v90z" />
    <glyph glyph-name="uni04E8" unicode="&#x4e8;" horiz-adv-x="498" 
d="M128 374h256v122l50 20v-337q0 -88 -43 -136t-126 -48h-32q-83 0 -126 48t-43 136v342q0 88 43 136t126 48h32q82 0 125.5 -48t43.5 -136h-50q0 70 -30.5 104t-89.5 34h-30q-59 0 -89.5 -34t-30.5 -104v-342q0 -70 30.5 -104t89.5 -34h30q58 0 89 34t31 104v147h-236z
" />
    <glyph glyph-name="uni04E9" unicode="&#x4e9;" horiz-adv-x="441" 
d="M119 272h216v63l45 20v-220q0 -29 -10.5 -54t-30.5 -44.5t-50 -30.5t-69 -11t-69 11t-50 30.5t-30.5 44.5t-10.5 54v230q0 28 10.5 53.5t30.5 45t50 30.5t69 11t69 -11t50 -30.5t30.5 -45t10.5 -53.5h-45q0 40 -29 68.5t-86 28.5t-86 -28.5t-29 -68.5v-230
q0 -40 29 -68.5t86 -28.5t86 28.5t29 68.5v94h-196z" />
    <glyph glyph-name="uni04EA" unicode="&#x4ea;" horiz-adv-x="498" 
d="M128 374h256v122l50 20v-337q0 -88 -43 -136t-126 -48h-32q-83 0 -126 48t-43 136v342q0 88 43 136t126 48h32q82 0 125.5 -48t43.5 -136h-50q0 70 -30.5 104t-89.5 34h-30q-59 0 -89.5 -34t-30.5 -104v-342q0 -70 30.5 -104t89.5 -34h30q58 0 89 34t31 104v147h-236z
M151 855h45v-90h-45v90zM301 855h45v-90h-45v90z" />
    <glyph glyph-name="uni04EB" unicode="&#x4eb;" horiz-adv-x="441" 
d="M119 272h216v63l45 20v-220q0 -29 -10.5 -54t-30.5 -44.5t-50 -30.5t-69 -11t-69 11t-50 30.5t-30.5 44.5t-10.5 54v230q0 28 10.5 53.5t30.5 45t50 30.5t69 11t69 -11t50 -30.5t30.5 -45t10.5 -53.5h-45q0 40 -29 68.5t-86 28.5t-86 -28.5t-29 -68.5v-230
q0 -40 29 -68.5t86 -28.5t86 28.5t29 68.5v94h-196zM123 655h45v-90h-45v90zM273 655h45v-90h-45v90z" />
    <glyph glyph-name="uni04EC" unicode="&#x4ec;" horiz-adv-x="414" 
d="M295 373h-225v-46h205zM300 521q0 68 -30.5 100.5t-89.5 32.5h-150v46h151q83 0 126 -46.5t43 -132.5v-342q0 -86 -43 -132.5t-126 -46.5h-151v46h150q59 0 89.5 32.5t30.5 100.5v342zM83 855h45v-90h-45v90zM233 855h45v-90h-45v90z" />
    <glyph glyph-name="uni04ED" unicode="&#x4ed;" horiz-adv-x="355" 
d="M226 229h-164v43h184zM138 43q56 0 84 34.5t28 82.5v180q0 48 -28 82.5t-84 34.5h-108v43h108q39 0 68.5 -13t49 -34.5t29.5 -50.5t10 -62v-180q0 -33 -10 -62t-29.5 -50.5t-49 -34.5t-68.5 -13h-108v43h108zM57 655h45v-90h-45v90zM207 655h45v-90h-45v90z" />
    <glyph glyph-name="uni04EE" unicode="&#x4ee;" horiz-adv-x="449" 
d="M363 700h51l-165 -572q-5 -20 -11 -42.5t-17.5 -42t-28.5 -32.5t-42 -13h-52v46h52q12 0 21 9.5t15 24.5t10 32.5t7 32.5l-169 557h51l104 -341q13 -42 21 -84t18 -84h2q8 42 15.5 84t19.5 84zM72 831h305v-42h-305v42z" />
    <glyph glyph-name="uni04EF" unicode="&#x4ef;" horiz-adv-x="415" 
d="M160 178q14 -47 23.5 -93.5t20.5 -94.5h2q11 48 20.5 94.5t22.5 93.5l88 322h44l-205 -750h-44l51 185l-162 565h46zM55 631h305v-42h-305v42z" />
    <glyph glyph-name="uni04F0" unicode="&#x4f0;" horiz-adv-x="449" 
d="M363 700h51l-165 -572q-5 -20 -11 -42.5t-17.5 -42t-28.5 -32.5t-42 -13h-52v46h52q12 0 21 9.5t15 24.5t10 32.5t7 32.5l-169 557h51l104 -341q13 -42 21 -84t18 -84h2q8 42 15.5 84t19.5 84zM127 855h45v-90h-45v90zM277 855h45v-90h-45v90z" />
    <glyph glyph-name="uni04F1" unicode="&#x4f1;" horiz-adv-x="415" 
d="M160 178q14 -47 23.5 -93.5t20.5 -94.5h2q11 48 20.5 94.5t22.5 93.5l88 322h44l-205 -750h-44l51 185l-162 565h46zM110 655h45v-90h-45v90zM260 655h45v-90h-45v90z" />
    <glyph glyph-name="uni04F2" unicode="&#x4f2;" horiz-adv-x="449" 
d="M363 700h51l-165 -572q-5 -20 -11 -42.5t-17.5 -42t-28.5 -32.5t-42 -13h-52v46h52q12 0 21 9.5t15 24.5t10 32.5t7 32.5l-169 557h51l104 -341q13 -42 21 -84t18 -84h2q8 42 15.5 84t19.5 84zM165 765h-40l90 135h70zM292 765h-40l90 135h70z" />
    <glyph glyph-name="uni04F3" unicode="&#x4f3;" horiz-adv-x="415" 
d="M160 178q14 -47 23.5 -93.5t20.5 -94.5h2q11 48 20.5 94.5t22.5 93.5l88 322h44l-205 -750h-44l51 185l-162 565h46zM137 565h-40l90 135h70zM264 565h-40l90 135h70z" />
    <glyph glyph-name="uni04F4" unicode="&#x4f4;" horiz-adv-x="444" 
d="M370 700v-700h-50v700h50zM315 265h-95q-41 0 -73 13.5t-53.5 37t-32.5 54t-11 65.5v265h50v-265q0 -25 8 -47.5t23 -39.5t37.5 -27t51.5 -10h75zM113 855h45v-90h-45v90zM263 855h45v-90h-45v90z" />
    <glyph glyph-name="uni04F5" unicode="&#x4f5;" horiz-adv-x="420" 
d="M306 500h45v-500h-45v500zM301 223l-20 -43h-75q-34 0 -62.5 7.5t-49 24.5t-32 44t-11.5 66v178h45v-178q0 -54 31 -76.5t79 -22.5h95zM113 655h45v-90h-45v90zM263 655h45v-90h-45v90z" />
    <glyph glyph-name="uni04F8" unicode="&#x4f8;" horiz-adv-x="584" 
d="M510 700v-700h-50v700h50zM129 435h95q41 0 73 -13.5t53.5 -37t32.5 -54.5t11 -65v-95q0 -35 -11 -65.5t-32.5 -54t-53.5 -37t-73 -13.5h-150v700h50v-654h100q29 0 51.5 10t37.5 27t23 39.5t8 47.5v95q0 25 -8 47.5t-23 39.5t-37.5 27t-51.5 10h-75zM195 855h45v-90h-45
v90zM345 855h45v-90h-45v90z" />
    <glyph glyph-name="uni04F9" unicode="&#x4f9;" horiz-adv-x="523" 
d="M319 178q0 54 -31 76.5t-79 22.5h-75l-20 43h95q34 0 62.5 -7.5t49 -24.5t32 -44t11.5 -66v-40q0 -64 -41 -101t-111 -37h-148v500h45v-457h103q49 0 78 25.5t29 69.5v40zM414 500h45v-500h-45v500zM164 655h45v-90h-45v90zM314 655h45v-90h-45v90z" />
    <glyph glyph-name="Wgrave" unicode="&#x1e80;" horiz-adv-x="710" 
d="M229 0h-50l-150 700h49l94 -438q11 -48 17 -96.5t14 -96.5h2q8 48 14 96.5t17 96.5l94 438h50l94 -438q11 -48 17 -96.5t14 -96.5h2q8 48 14 96.5t17 96.5l94 438h49l-150 -700h-50l-94 439q-11 48 -17 96.5t-14 96.5h-2q-8 -48 -14 -96.5t-17 -96.5zM235 900h70l90 -135
h-40z" />
    <glyph glyph-name="wgrave" unicode="&#x1e81;" horiz-adv-x="580" 
d="M551 500l-120 -500h-44l-76 317q-8 30 -11.5 61t-8.5 62h-2q-5 -31 -8.5 -62t-11.5 -61l-76 -317h-44l-120 500h45l75 -317q8 -30 12 -61t9 -62h2q5 31 9 62t12 61l75 317h44l75 -317q8 -30 12 -61t9 -62h2q5 31 9 62t12 61l75 317h45zM170 700h70l90 -135h-40z" />
    <glyph glyph-name="Wacute" unicode="&#x1e82;" horiz-adv-x="710" 
d="M229 0h-50l-150 700h49l94 -438q11 -48 17 -96.5t14 -96.5h2q8 48 14 96.5t17 96.5l94 438h50l94 -438q11 -48 17 -96.5t14 -96.5h2q8 48 14 96.5t17 96.5l94 438h49l-150 -700h-50l-94 439q-11 48 -17 96.5t-14 96.5h-2q-8 -48 -14 -96.5t-17 -96.5zM355 765h-40l90 135
h70z" />
    <glyph glyph-name="wacute" unicode="&#x1e83;" horiz-adv-x="580" 
d="M551 500l-120 -500h-44l-76 317q-8 30 -11.5 61t-8.5 62h-2q-5 -31 -8.5 -62t-11.5 -61l-76 -317h-44l-120 500h45l75 -317q8 -30 12 -61t9 -62h2q5 31 9 62t12 61l75 317h44l75 -317q8 -30 12 -61t9 -62h2q5 31 9 62t12 61l75 317h45zM290 565h-40l90 135h70z" />
    <glyph glyph-name="Wdieresis" unicode="&#x1e84;" horiz-adv-x="710" 
d="M229 0h-50l-150 700h49l94 -438q11 -48 17 -96.5t14 -96.5h2q8 48 14 96.5t17 96.5l94 438h50l94 -438q11 -48 17 -96.5t14 -96.5h2q8 48 14 96.5t17 96.5l94 438h49l-150 -700h-50l-94 439q-11 48 -17 96.5t-14 96.5h-2q-8 -48 -14 -96.5t-17 -96.5zM257 855h45v-90h-45
v90zM407 855h45v-90h-45v90z" />
    <glyph glyph-name="wdieresis" unicode="&#x1e85;" horiz-adv-x="580" 
d="M551 500l-120 -500h-44l-76 317q-8 30 -11.5 61t-8.5 62h-2q-5 -31 -8.5 -62t-11.5 -61l-76 -317h-44l-120 500h45l75 -317q8 -30 12 -61t9 -62h2q5 31 9 62t12 61l75 317h44l75 -317q8 -30 12 -61t9 -62h2q5 31 9 62t12 61l75 317h45zM192 655h45v-90h-45v90zM342 655
h45v-90h-45v90z" />
    <glyph glyph-name="Ygrave" unicode="&#x1ef2;" horiz-adv-x="449" 
d="M368 700h52l-171 -425v-275h-50v275l-170 425h53l102 -257q12 -29 20.5 -59.5t18.5 -60.5h2q10 30 18.5 60.5t20.5 59.5zM104 900h70l90 -135h-40z" />
    <glyph glyph-name="ygrave" unicode="&#x1ef3;" horiz-adv-x="415" 
d="M160 178q14 -47 23.5 -93.5t20.5 -94.5h2q11 48 20.5 94.5t22.5 93.5l88 322h44l-205 -750h-44l51 185l-162 565h46zM87 700h70l90 -135h-40z" />
    <glyph glyph-name="endash" unicode="&#x2013;" horiz-adv-x="481" 
d="M73 229v43h335v-43h-335z" />
    <glyph glyph-name="emdash" unicode="&#x2014;" horiz-adv-x="631" 
d="M73 229v43h485v-43h-485z" />
    <glyph glyph-name="quoteleft" unicode="&#x2018;" horiz-adv-x="168" 
d="M113 626v-56h-58v56q0 32 13.5 53t40.5 21h4v-26h-4q-14 0 -19.5 -14.5t-5.5 -33.5h29z" />
    <glyph glyph-name="quoteright" unicode="&#x2019;" horiz-adv-x="168" 
d="M55 644v56h58v-56q0 -32 -13.5 -53t-40.5 -21h-4v26h4q14 0 19.5 14.5t5.5 33.5h-29z" />
    <glyph glyph-name="quotesinglbase" unicode="&#x201a;" horiz-adv-x="168" 
d="M55 0v56h58v-56q0 -32 -13.5 -53t-40.5 -21h-4v26h4q14 0 19.5 14.5t5.5 33.5h-29z" />
    <glyph glyph-name="quotedblleft" unicode="&#x201c;" horiz-adv-x="268" 
d="M213 626v-56h-58v56q0 32 13.5 53t40.5 21h4v-26h-4q-14 0 -19.5 -14.5t-5.5 -33.5h29zM113 626v-56h-58v56q0 32 13.5 53t40.5 21h4v-26h-4q-14 0 -19.5 -14.5t-5.5 -33.5h29z" />
    <glyph glyph-name="quotedblright" unicode="&#x201d;" horiz-adv-x="268" 
d="M55 644v56h58v-56q0 -32 -13.5 -53t-40.5 -21h-4v26h4q14 0 19.5 14.5t5.5 33.5h-29zM155 644v56h58v-56q0 -32 -13.5 -53t-40.5 -21h-4v26h4q14 0 19.5 14.5t5.5 33.5h-29z" />
    <glyph glyph-name="quotedblbase" unicode="&#x201e;" horiz-adv-x="268" 
d="M55 0v56h58v-56q0 -32 -13.5 -53t-40.5 -21h-4v26h4q14 0 19.5 14.5t5.5 33.5h-29zM155 0v56h58v-56q0 -32 -13.5 -53t-40.5 -21h-4v26h4q14 0 19.5 14.5t5.5 33.5h-29z" />
    <glyph glyph-name="bullet" unicode="&#x2022;" horiz-adv-x="306" 
d="M73 330q0 34 23 57t57 23t57 -23t23 -57t-23 -57t-57 -23t-57 23t-23 57z" />
    <glyph glyph-name="ellipsis" unicode="&#x2026;" horiz-adv-x="621" 
d="M70 0v63h65v-63h-65zM277 0v63h65v-63h-65zM484 0v63h65v-63h-65z" />
    <glyph glyph-name="guilsinglleft" unicode="&#x2039;" horiz-adv-x="310" 
d="M50 272l158 228h52l-168 -244l168 -256h-52l-158 243v29z" />
    <glyph glyph-name="guilsinglright" unicode="&#x203a;" horiz-adv-x="310" 
d="M260 243l-158 -243h-52l168 256l-168 244h52l158 -228v-29z" />
    <glyph glyph-name="Euro" unicode="&#x20ac;" horiz-adv-x="472" 
d="M172 435h206l-20 -44h-186v-82h206l-20 -44h-186v-86q0 -68 30.5 -100.5t89.5 -32.5h150v-46h-151q-83 0 -126 46.5t-43 132.5v86h-99l20 44h79v82h-99l20 44h79v86q0 86 43 132.5t126 46.5h151v-46h-150q-59 0 -89.5 -32.5t-30.5 -100.5v-86z" />
    <glyph glyph-name="uni20B4" unicode="&#x20b4;" horiz-adv-x="451" 
d="M224 0q-88 0 -127 35t-39 101q0 38 11.5 69.5t37.5 59.5h-84v44h132l82 82h-214v44h260q26 23 43 59.5t17 74.5q0 39 -25 62t-90 23h-170v46h169q88 0 127 -34.5t39 -98.5q0 -42 -13 -73t-36 -59h84v-44h-131l-82 -82h213v-44h-260q-26 -25 -43 -58.5t-17 -68.5
q0 -45 25 -68.5t90 -23.5h170v-46h-169v0z" />
    <glyph glyph-name="uni20BD" unicode="&#x20bd;" horiz-adv-x="487" 
d="M43 311h79v389h150q41 0 73 -13.5t53.5 -37t32.5 -54.5t11 -65v-95q0 -35 -11 -65.5t-32.5 -54t-53.5 -37t-73 -13.5h-75l-20 46h95q29 0 51.5 10t37.5 27t23 39.5t8 47.5v95q0 25 -8 47.5t-23 39.5t-37.5 27t-51.5 10h-100v-469h206l-20 -44h-186v-141h-50v141h-99
l20 44h79v82h-99z" />
    <glyph glyph-name="afii61352" unicode="&#x2116;" horiz-adv-x="847" 
d="M650 354q-30 0 -53.5 10.5t-39 28t-23.5 40.5t-8 49v100q0 26 8 49t23.5 40.5t39 28t53.5 10.5t53.5 -10.5t39 -28t23.5 -40.5t8 -49v-100q0 -26 -8 -49t-23.5 -40.5t-39 -28t-53.5 -10.5zM526 244v43h248v-43h-248zM650 397q38 0 58.5 25t20.5 60v100q0 35 -20.5 60
t-58.5 25t-58.5 -25t-20.5 -60v-100q0 -35 20.5 -60t58.5 -25zM181 469l-66 186h-2q2 -69 6 -138t4 -138v-379h-50v700h70l182 -469l66 -186h2q-2 69 -6 138t-4 138v379h50v-700h-70z" />
    <glyph glyph-name="trademark" unicode="&#x2122;" horiz-adv-x="470" 
d="M306 589q7 -25 12.5 -50t10.5 -51h1q5 26 10.5 51t12.5 50l30 111h40v-300h-25v139q0 35 1 69t2 69h-1l-23 -93l-35 -128h-25l-35 128l-23 93h-1q1 -35 2 -69t1 -69v-139h-25v300h40zM92 400v277h-72v23h170v-23h-73v-277h-25z" />
    <glyph glyph-name="estimated" unicode="&#x212e;" horiz-adv-x="893" 
d="M215 317q-5 0 -5 -4v-183q0 -10 9 -21q43 -46 102 -72.5t127 -26.5q72 0 134 30t106 81h55q-51 -60 -128 -95.5t-168 -35.5q-77 0 -145 26.5t-119 72t-80.5 106.5t-29.5 131t29.5 131t80.5 106.5t119 72t145 26.5t145 -26.5t118.5 -72t80 -106.5t29.5 -131v-9h-605z
M684 525q0 12 -10 22q-44 44 -102 69.5t-124 25.5q-68 0 -126 -26.5t-102 -71.5q-10 -10 -10 -23v-180q0 -5 5 -5h464q5 0 5 5v184z" />
    <glyph glyph-name="arrowleft" unicode="&#x2190;" horiz-adv-x="652" 
d="M118 279q45 -45 88.5 -88t88.5 -87l-31 -30q-56 57 -112 113.5t-113 113.5q113 112 225 225q8 -8 15.5 -15t15.5 -14l-179 -177h486v-41h-484z" />
    <glyph glyph-name="arrowup" unicode="&#x2191;" horiz-adv-x="541" 
d="M291 23h-42v486l-176 -179l-29 30l225 226l113 -113l113 -113l-29 -30l-175 177v-484z" />
    <glyph glyph-name="arrowright" unicode="&#x2192;" horiz-adv-x="652" 
d="M387 74l-30 30l177 175h-484v41h486l-179 177l30 29q57 -57 112.5 -113t112.5 -112z" />
    <glyph glyph-name="arrowdown" unicode="&#x2193;" horiz-adv-x="541" 
d="M269 13q-57 57 -112.5 113t-112.5 112l29 31l176 -179v486h42v-484l175 177l29 -31z" />
    <glyph glyph-name="arrowboth" unicode="&#x2194;" horiz-adv-x="742" 
d="M447 104l177 175h-506q45 -45 88.5 -88t88.5 -87l-31 -30q-56 57 -112 113.5t-113 113.5q113 112 225 225q8 -8 15.5 -15t15.5 -14l-179 -177h510l-179 177l30 29q57 -57 112.5 -113t112.5 -112l-225 -227z" />
    <glyph glyph-name="arrowupdn" unicode="&#x2195;" horiz-adv-x="541" 
d="M496 193q-57 -56 -113 -112t-113 -112l-226 224l30 31q87 -90 176 -179v510l-176 -179l-30 30l226 225l226 -225l-29 -30l-176 177v-506l176 177q7 -8 14 -15.5t15 -15.5z" />
    <glyph glyph-name="uni2196" unicode="&#x2196;" horiz-adv-x="500" 
d="M113 470q87 -86 171.5 -171t170.5 -172l-29 -29q-86 87 -171.5 172t-171.5 171l2 -250h-42v319q80 0 159 0.5t160 0.5v-43l-249 2v0z" />
    <glyph glyph-name="uni2197" unicode="&#x2197;" horiz-adv-x="500" 
d="M413 191l2 250q-86 -86 -171.5 -171t-171.5 -172l-29 29q86 87 170.5 172t171.5 171l-249 -2v43q80 0 159.5 -0.5t159.5 -0.5v-319h-42z" />
    <glyph glyph-name="uni2198" unicode="&#x2198;" horiz-adv-x="500" 
d="M455 99q-80 0 -159.5 -0.5t-159.5 -0.5v42q63 0 124.5 -0.5t124.5 -0.5q-87 86 -171.5 171t-170.5 171l29 30l343 -344l-2 251q11 0 21.5 -0.5t20.5 -0.5v-318z" />
    <glyph glyph-name="uni2199" unicode="&#x2199;" horiz-adv-x="500" 
d="M43 99v318q10 0 20.5 0.5t21.5 0.5l-2 -251l343 344l29 -30q-86 -86 -170.5 -171t-171.5 -171q63 0 124.5 0.5t124.5 0.5v-41h-319z" />
    <glyph glyph-name="uni21A4" unicode="&#x21a4;" horiz-adv-x="652" 
d="M264 74l-224 226l224 225l31 -29l-178 -176h443v144h42v-328h-42v143h-442q45 -45 88.5 -88t88.5 -87z" />
    <glyph glyph-name="uni21A5" unicode="&#x21a5;" horiz-adv-x="541" 
d="M467 331l-176 177v-443h144v-41h-328v41h143v443l-176 -177l-29 30l225 224l226 -224z" />
    <glyph glyph-name="uni21A6" unicode="&#x21a6;" horiz-adv-x="652" 
d="M357 104l177 175h-443v-143h-41v328h41v-144h443l-177 176l30 29l224 -225l-224 -226z" />
    <glyph glyph-name="uni21A7" unicode="&#x21a7;" horiz-adv-x="541" 
d="M467 269q7 -8 14 -15.5t15 -15.5l-226 -224l-225 224l29 31l176 -178v443h-143v42h328v-42h-144v-442l176 177v0z" />
    <glyph glyph-name="minus" unicode="&#x2212;" horiz-adv-x="516" 
d="M73 373h370v-46h-370v46z" />
    <glyph glyph-name="Q.salt" unicode="&#xe051;" horiz-adv-x="498" 
d="M233 -5q-83 0 -126 48t-43 136v342q0 88 43 136t126 48h32q82 0 125.5 -48t43.5 -136v-342q0 -130 -91 -170l51 -122h-54l-46 110q-7 -1 -14 -1.5t-15 -0.5h-32zM273 180l52 -127q59 31 59 126v342q0 70 -30.5 104t-89.5 34h-30q-59 0 -89.5 -34t-30.5 -104v-342
q0 -70 30.5 -104t89.5 -34h42l-57 139h54z" />
    <glyph glyph-name="registered.sups" unicode="&#xe0ae;" horiz-adv-x="540" 
d="M75 560q0 38 12.5 72.5t37.5 60.5t61 41.5t84 15.5q47 0 83.5 -15.5t61 -41.5t37.5 -60.5t13 -72.5v-200q0 -38 -13 -72.5t-37.5 -60.5t-61 -41.5t-83.5 -15.5q-48 0 -84 15.5t-61 41.5t-37.5 60.5t-12.5 72.5v200zM115 360q0 -31 10 -59t30 -49.5t48.5 -34t66.5 -12.5
q37 0 66 12.5t49 34t30 49.5t10 59v200q0 31 -10 59t-30 49.5t-49 34t-66 12.5q-38 0 -66.5 -12.5t-48.5 -34t-30 -49.5t-10 -59v-200zM241 422h43l52 -132h26l-51 138q25 10 37.5 31.5t12.5 47.5v48q0 35 -21.5 60t-63.5 25h-75v-23h75q29 0 44.5 -18.5t15.5 -43.5v-48
q0 -25 -15.5 -43.5t-44.5 -18.5h-45zM201 604l25 10v-324h-25v314z" />
    <glyph glyph-name="uni0414.BUL" unicode="&#xe0414;" horiz-adv-x="522" 
d="M56 -150h-45v196h46l180 654h50l179 -654h45v-196h-45v150h-410v-150zM108 46h307l-120 441q-11 42 -17.5 84t-14.5 84h-2q-8 -42 -14.5 -84t-17.5 -84z" />
    <glyph glyph-name="uni041B.BUL" unicode="&#xe041b;" horiz-adv-x="493" 
d="M279 487q-11 42 -17.5 84t-14.5 84h-2q-8 -42 -14.5 -84t-17.5 -84l-133 -487h-51l192 700h50l192 -700h-51z" />
    <glyph glyph-name="uni0432.BUL" unicode="&#xe0432;" horiz-adv-x="425" 
d="M69 584q0 51 32 83.5t90 32.5h36q67 0 104.5 -32.5t37.5 -83.5v-114q0 -35 -18 -57t-45 -33q34 -11 53.5 -34t19.5 -61v-166q0 -57 -41 -88t-111 -31h-36q-58 0 -90 32.5t-32 83.5v468zM229 43q57 0 81 19t24 56v166q0 42 -26.5 57.5t-83.5 15.5h-85l-20 43h105
q47 0 73.5 15.5t26.5 53.5v114q0 33 -22.5 53.5t-74.5 20.5h-36q-42 0 -59.5 -20.5t-17.5 -53.5v-466q0 -33 17.5 -53.5t59.5 -20.5h38z" />
    <glyph glyph-name="uni0433.BUL" unicode="&#xe0433;" horiz-adv-x="400" 
d="M199 43h156v-43h-156q-71 0 -111.5 34.5t-40.5 97.5q0 34 9.5 57t29 38.5t48.5 26.5t68 22q21 6 40.5 12.5t34.5 17.5t24 27t9 42q0 35 -27.5 58.5t-78.5 23.5h-127v43h127q72 0 111.5 -35t39.5 -92q0 -41 -14 -65.5t-35.5 -39.5t-46.5 -22.5t-46 -13.5q-30 -8 -52.5 -16
t-37.5 -19t-23 -27.5t-8 -40.5q0 -40 28 -63t79 -23z" />
    <glyph glyph-name="uni0434.BUL" unicode="&#xe0434;" horiz-adv-x="450" 
d="M335 500h45v-610q0 -29 -10 -54.5t-29.5 -44.5t-49 -30t-68.5 -11h-138v43h138q56 0 84 28t28 69v110h-118q-39 0 -68.5 13t-49 34.5t-29.5 50.5t-10 62v180q0 33 10 62t29.5 50.5t49 34.5t68.5 13h93l20 -43h-113q-56 0 -84 -34.5t-28 -82.5v-180q0 -48 28 -82.5
t84 -34.5h118v457z" />
    <glyph glyph-name="uni0436.BUL" unicode="&#xe0436;" horiz-adv-x="613" 
d="M329 750v-750h-45v742zM415 256l168 -256h-52l-154 236h-22l-20 43h43l153 221h52zM258 279l20 -43h-43l-153 -236h-52l168 256l-168 244h52l153 -221h23z" />
    <glyph glyph-name="uni0437.BUL" unicode="&#xe0437;" horiz-adv-x="363" 
d="M273 69q0 47 -27 67.5t-83 20.5h-65l-20 43h85q52 0 81 23.5t29 69.5v74q0 44 -29.5 67t-77.5 23h-127v43h127q72 0 112 -37t40 -95v-74q0 -48 -22 -75t-54 -40q35 -12 55.5 -39t20.5 -74v-176q0 -63 -41 -101.5t-113 -38.5h-127v43h128q50 0 79 26.5t29 73.5v176z" />
    <glyph glyph-name="uni0438.BUL" unicode="&#xe0438;" horiz-adv-x="446" 
d="M377 0h-166q-34 0 -61 10.5t-45.5 28t-28 41t-9.5 50.5v370h45v-370q0 -18 5.5 -33.5t18 -27.5t33 -19t50.5 -7h158v-43zM377 66l-45 -20v454h45v-434z" />
    <glyph glyph-name="uni0439.BUL" unicode="&#xe0439;" horiz-adv-x="446" 
d="M377 0h-166q-34 0 -61 10.5t-45.5 28t-28 41t-9.5 50.5v370h45v-370q0 -18 5.5 -33.5t18 -27.5t33 -19t50.5 -7h158v-43zM377 66l-45 -20v454h45v-434zM347 673q0 -61 -31.5 -88t-91.5 -27q-61 0 -92.5 27t-31.5 88h43q0 -44 20.5 -59t60.5 -15q39 0 59.5 15t20.5 59h43z
" />
    <glyph glyph-name="uni043A.BUL" unicode="&#xe043a;" horiz-adv-x="409" 
d="M114 750v-750h-45v742zM200 256l168 -256h-52l-154 236h-22l-20 43h43l153 221h52z" />
    <glyph glyph-name="uni043B.BUL" unicode="&#xe043b;" horiz-adv-x="407" 
d="M246 289q-13 40 -22 81t-20 82h-2q-11 -41 -20 -82t-22 -81l-90 -289h-45l156 500h44l156 -500h-45z" />
    <glyph glyph-name="uni043F.BUL" unicode="&#xe043f;" horiz-adv-x="446" 
d="M69 500h166q34 0 61 -10.5t45.5 -28t28 -41t9.5 -50.5v-370h-45v370q0 18 -5.5 33.5t-18 27.5t-33 19t-50.5 7h-158v43zM69 434l45 20v-454h-45v434z" />
    <glyph glyph-name="uni0442.BUL" unicode="&#xe0442;" horiz-adv-x="661" 
d="M69 500h381q34 0 61 -11t45.5 -30.5t28 -45t9.5 -53.5v-360h-45v360q0 19 -5.5 37t-18 31t-33 21t-50.5 8h-373v43zM354 454v-454h-45v434zM69 434l45 20v-454h-45v434z" />
    <glyph glyph-name="uni0446.BUL" unicode="&#xe0446;" horiz-adv-x="446" 
d="M425 -110h-43v110h-171q-34 0 -61 10.5t-45.5 28t-28 41t-9.5 50.5v370h45v-370q0 -18 5.5 -33.5t18 -27.5t33 -19t50.5 -7h206v-153zM377 66l-45 -20v454h45v-434z" />
    <glyph glyph-name="uni0448.BUL" unicode="&#xe0448;" horiz-adv-x="661" 
d="M594 0h-381q-34 0 -61 11t-45.5 30.5t-28 44.5t-9.5 54v360h45v-360q0 -20 5.5 -37.5t18 -30.5t33 -21t50.5 -8h373v-43zM309 46v454h45v-434zM594 66l-45 -20v454h45v-434z" />
    <glyph glyph-name="uni0449.BUL" unicode="&#xe0449;" horiz-adv-x="661" 
d="M213 0q-34 0 -61 11t-45.5 30.5t-28 44.5t-9.5 54v360h45v-360q0 -20 5.5 -37.5t18 -30.5t33 -21t50.5 -8h421v-153h-43v110h-386zM594 66l-45 -20v454h45v-434zM309 46v454h45v-434z" />
    <glyph glyph-name="uni044A.BUL" unicode="&#xe044a;" horiz-adv-x="460" 
d="M236 0q-58 0 -90 32.5t-32 83.5v341h-95v43h140v-383q0 -33 17.5 -53.5t59.5 -20.5h26q49 0 78 25.5t29 69.5v40q0 54 -31 76.5t-79 22.5h-75l-20 43h95q34 0 62.5 -7.5t49 -24.5t32 -44t11.5 -66v-40q0 -64 -41 -101t-111 -37h-26z" />
    <glyph glyph-name="uni044C.BUL" unicode="&#xe044c;" horiz-adv-x="415" 
d="M191 0q-58 0 -90 32.5t-32 83.5v384h45v-383q0 -33 17.5 -53.5t59.5 -20.5h26q49 0 78 25.5t29 69.5v40q0 54 -31 76.5t-79 22.5h-75l-20 43h95q34 0 62.5 -7.5t49 -24.5t32 -44t11.5 -66v-40q0 -64 -41 -101t-111 -37h-26z" />
    <glyph glyph-name="uni044E.BUL" unicode="&#xe044e;" horiz-adv-x="579" 
d="M119 272h100v98q0 28 9.5 53.5t28.5 45t47 30.5t65 11q36 0 64 -11t47 -30.5t29 -45t10 -53.5v-240q0 -29 -10 -54t-29 -44.5t-47 -30.5t-64 -11q-37 0 -65 11t-47 30.5t-28.5 44.5t-9.5 54v99h-80zM369 33q51 0 78 28.5t27 68.5v240q0 40 -27 68.5t-78 28.5t-78 -28.5
t-27 -68.5v-240q0 -40 27 -68.5t78 -28.5zM114 750v-750h-45v742z" />
    <glyph glyph-name="uni0434.tri" unicode="&#xf0434;" horiz-adv-x="464" 
d="M54 -110h-43v153h55l143 457h44l142 -457h58v-153h-43v110h-356v-110zM111 43h239l-76 246q-13 40 -22 81t-20 82h-2q-11 -41 -20 -82t-22 -81z" />
    <glyph glyph-name="commaaccent" horiz-adv-x="162" 
d="M55 -115v50h52v-50q0 -29 -12 -48t-36 -19h-4v23h4q13 0 17.5 13.5t4.5 30.5h-26z" />
    <glyph glyph-name="slash_for_L" horiz-adv-x="285" 
d="M0 266l-18 39l303 142l18 -39z" />
    <glyph glyph-name="undercommaaccent" horiz-adv-x="162" 
d="M107 615v-50h-52v50q0 29 12 48t36 19h4v-23h-4q-13 0 -17.5 -13.5t-4.5 -30.5h26z" />
    <glyph glyph-name="ogonek_for_e" 
d="M215 -84q0 23 13 49t43 57l40 -3q-23 -22 -36.5 -48t-13.5 -46q0 -21 12 -32t33 -11q20 0 49 14l15 -36q-15 -9 -34.5 -15t-40.5 -6q-36 0 -58 22.5t-22 54.5z" />
    </font>
</defs>
</svg>
